<svg xmlns="http://www.w3.org/2000/svg" width="89.958" height="89.958" viewBox="0 0 89.958 89.958">
  <g id="Grupo_54432" data-name="Grupo 54432" transform="translate(-703.31 -491.146)">
    <circle id="Elipse_4061" data-name="Elipse 4061" cx="44.979" cy="44.979" r="44.979" transform="translate(703.31 491.146)" fill="#ea7424"/>
    <g id="Grupo_54052" data-name="Grupo 54052" transform="translate(720.777 507.31)">
      <path id="Trazado_100692" data-name="Trazado 100692" d="M658.071,491.187h21.02v47.774h-21.02Z" transform="translate(-639.917 -487.365)" fill="#fdbd40"/>
      <path id="Trazado_100693" data-name="Trazado 100693" d="M665.715,527.495h5.733v11.466h-5.733Z" transform="translate(-639.917 -487.365)" fill="#e9686a"/>
      <path id="Trazado_100694" data-name="Trazado 100694" d="M640.872,512.207h17.2V537.05h-17.2Z" transform="translate(-639.917 -487.365)" fill="#a7c6d3"/>
      <path id="Trazado_100695" data-name="Trazado 100695" d="M642.783,500.742h11.466v11.465H642.783Z" transform="translate(-639.917 -487.365)" fill="#cfdfe8"/>
      <path id="Trazado_100696" data-name="Trazado 100696" d="M644.694,494.053h7.644v6.689h-7.644Z" transform="translate(-639.917 -487.365)" fill="#a7c6d3"/>
      <path id="Trazado_100697" data-name="Trazado 100697" d="M647.561,487.365h1.911v6.688h-1.911Z" transform="translate(-639.917 -487.365)" fill="#5a6470"/>
      <path id="Trazado_100698" data-name="Trazado 100698" d="M679.091,512.207h17.2V537.05h-17.2Z" transform="translate(-639.917 -487.365)" fill="#e9686a"/>
      <path id="Trazado_100699" data-name="Trazado 100699" d="M694.379,512.207H682.913V494.053l11.466,3.822Z" transform="translate(-639.917 -487.365)" fill="#e9686a"/>
      <g id="Grupo_54051" data-name="Grupo 54051" transform="translate(3.822 9.555)">
        <path id="Trazado_100700" data-name="Trazado 100700" d="M685.78,499.786h1.911v12.421H685.78Z" transform="translate(-643.739 -496.92)" fill="#e9686a"/>
        <path id="Trazado_100701" data-name="Trazado 100701" d="M689.6,499.786h1.911v12.421H689.6Z" transform="translate(-643.739 -496.92)" fill="#e9686a"/>
        <g id="Grupo_54035" data-name="Grupo 54035" transform="translate(0 18.154)">
          <path id="SVGCleanerId_0" data-name="SVGCleanerId 0" d="M643.739,515.074h11.466v1.911H643.739Z" transform="translate(-643.739 -515.074)" fill="#e9686a"/>
        </g>
        <g id="Grupo_54036" data-name="Grupo 54036" transform="translate(0 21.976)">
          <path id="SVGCleanerId_1" data-name="SVGCleanerId 1" d="M643.739,518.9h11.466v1.911H643.739Z" transform="translate(-643.739 -518.896)" fill="#e9686a"/>
        </g>
        <g id="Grupo_54037" data-name="Grupo 54037" transform="translate(0 25.798)">
          <path id="SVGCleanerId_2" data-name="SVGCleanerId 2" d="M643.739,522.718h11.466v1.91H643.739Z" transform="translate(-643.739 -522.718)" fill="#e9686a"/>
        </g>
        <g id="Grupo_54038" data-name="Grupo 54038" transform="translate(0 29.619)">
          <path id="SVGCleanerId_3" data-name="SVGCleanerId 3" d="M643.739,526.539h11.466v1.911H643.739Z" transform="translate(-643.739 -526.539)" fill="#e9686a"/>
        </g>
        <path id="Trazado_100702" data-name="Trazado 100702" d="M662.848,496.92h3.822v3.822h-3.822Z" transform="translate(-643.739 -496.92)" fill="#e9686a"/>
        <path id="Trazado_100703" data-name="Trazado 100703" d="M670.492,496.92h3.822v3.822h-3.822Z" transform="translate(-643.739 -496.92)" fill="#e9686a"/>
        <path id="Trazado_100704" data-name="Trazado 100704" d="M662.848,504.563h3.822v3.822h-3.822Z" transform="translate(-643.739 -496.92)" fill="#e9686a"/>
        <path id="Trazado_100705" data-name="Trazado 100705" d="M670.492,504.563h3.822v3.822h-3.822Z" transform="translate(-643.739 -496.92)" fill="#e9686a"/>
        <path id="Trazado_100706" data-name="Trazado 100706" d="M662.848,512.207h3.822v3.822h-3.822Z" transform="translate(-643.739 -496.92)" fill="#e9686a"/>
        <path id="Trazado_100707" data-name="Trazado 100707" d="M670.492,512.207h3.822v3.822h-3.822Z" transform="translate(-643.739 -496.92)" fill="#e9686a"/>
        <path id="Trazado_100708" data-name="Trazado 100708" d="M662.848,519.851h3.822v3.822h-3.822Z" transform="translate(-643.739 -496.92)" fill="#e9686a"/>
        <path id="Trazado_100709" data-name="Trazado 100709" d="M670.492,519.851h3.822v3.822h-3.822Z" transform="translate(-643.739 -496.92)" fill="#e9686a"/>
        <path id="Trazado_100710" data-name="Trazado 100710" d="M684.824,531.317h5.733v5.733h-5.733Z" transform="translate(-643.739 -496.92)" fill="#e9686a"/>
        <g id="Grupo_54039" data-name="Grupo 54039" transform="translate(38.219 18.154)">
          <path id="SVGCleanerId_4" data-name="SVGCleanerId 4" d="M681.958,515.074h1.911v1.911h-1.911Z" transform="translate(-681.958 -515.074)" fill="#e9686a"/>
        </g>
        <g id="Grupo_54040" data-name="Grupo 54040" transform="translate(42.041 18.154)">
          <path id="SVGCleanerId_5" data-name="SVGCleanerId 5" d="M685.78,515.074H689.6v1.911H685.78Z" transform="translate(-685.78 -515.074)" fill="#e9686a"/>
        </g>
        <g id="Grupo_54041" data-name="Grupo 54041" transform="translate(47.774 18.154)">
          <path id="SVGCleanerId_6" data-name="SVGCleanerId 6" d="M691.513,515.074h1.911v1.911h-1.911Z" transform="translate(-691.513 -515.074)" fill="#e9686a"/>
        </g>
        <g id="Grupo_54042" data-name="Grupo 54042" transform="translate(38.219 21.976)">
          <path id="SVGCleanerId_7" data-name="SVGCleanerId 7" d="M681.958,518.9h1.911v1.911h-1.911Z" transform="translate(-681.958 -518.896)" fill="#e9686a"/>
        </g>
        <g id="Grupo_54043" data-name="Grupo 54043" transform="translate(42.041 21.976)">
          <path id="SVGCleanerId_8" data-name="SVGCleanerId 8" d="M685.78,518.9H689.6v1.911H685.78Z" transform="translate(-685.78 -518.896)" fill="#e9686a"/>
        </g>
        <g id="Grupo_54044" data-name="Grupo 54044" transform="translate(47.774 21.976)">
          <path id="SVGCleanerId_9" data-name="SVGCleanerId 9" d="M691.513,518.9h1.911v1.911h-1.911Z" transform="translate(-691.513 -518.896)" fill="#e9686a"/>
        </g>
        <g id="Grupo_54045" data-name="Grupo 54045" transform="translate(38.219 25.798)">
          <path id="SVGCleanerId_10" data-name="SVGCleanerId 10" d="M681.958,522.718h1.911v1.91h-1.911Z" transform="translate(-681.958 -522.718)" fill="#e9686a"/>
        </g>
        <g id="Grupo_54046" data-name="Grupo 54046" transform="translate(42.041 25.798)">
          <path id="SVGCleanerId_11" data-name="SVGCleanerId 11" d="M685.78,522.718H689.6v1.91H685.78Z" transform="translate(-685.78 -522.718)" fill="#e9686a"/>
        </g>
        <g id="Grupo_54047" data-name="Grupo 54047" transform="translate(47.774 25.798)">
          <path id="SVGCleanerId_12" data-name="SVGCleanerId 12" d="M691.513,522.718h1.911v1.91h-1.911Z" transform="translate(-691.513 -522.718)" fill="#e9686a"/>
        </g>
        <g id="Grupo_54048" data-name="Grupo 54048" transform="translate(38.219 29.619)">
          <path id="SVGCleanerId_13" data-name="SVGCleanerId 13" d="M681.958,526.539h1.911v1.911h-1.911Z" transform="translate(-681.958 -526.539)" fill="#e9686a"/>
        </g>
        <g id="Grupo_54049" data-name="Grupo 54049" transform="translate(42.041 29.619)">
          <path id="SVGCleanerId_14" data-name="SVGCleanerId 14" d="M685.78,526.539H689.6v1.911H685.78Z" transform="translate(-685.78 -526.539)" fill="#e9686a"/>
        </g>
        <g id="Grupo_54050" data-name="Grupo 54050" transform="translate(47.774 29.619)">
          <path id="SVGCleanerId_15" data-name="SVGCleanerId 15" d="M691.513,526.539h1.911v1.911h-1.911Z" transform="translate(-691.513 -526.539)" fill="#e9686a"/>
        </g>
      </g>
      <path id="Trazado_100711" data-name="Trazado 100711" d="M695.335,497.186l-13.377-4.459v18.525h-1.911V490.231H657.116v21.021h-1.911V499.786h-1.911V493.1h-3.822v-5.733h-1.911V493.1h-3.822v6.688h-1.911v11.466h-1.911v26.753h17.2v1.911h22.931v-1.911h17.2V511.252h-1.911Zm-11.466-1.807,9.555,3.185v12.688h-1.911V499.786H689.6v11.466h-1.911V499.786H685.78v11.466h-1.911Zm-38.219-.37h5.733v4.777H645.65Zm-1.911,6.688h9.555v9.555h-9.555Zm-1.911,34.4V513.163h15.288v22.931Zm24.842,1.911V528.45h3.822v9.555Zm5.733,0V526.539h-7.644v11.466h-5.733V492.142h19.11v45.863Zm13.377-1.911v-3.822H689.6v3.822Zm9.555,0h-3.822v-5.733h-7.644v5.733h-3.822V513.163h15.288Z" transform="translate(-639.917 -487.365)" fill="#753a12"/>
      <path id="SVGCleanerId_0-2" data-name="SVGCleanerId 0" d="M643.739,515.074h11.466v1.911H643.739Z" transform="translate(-639.917 -487.365)" fill="#753a12"/>
      <path id="SVGCleanerId_1-2" data-name="SVGCleanerId 1" d="M643.739,518.9h11.466v1.911H643.739Z" transform="translate(-639.917 -487.365)" fill="#753a12"/>
      <path id="SVGCleanerId_2-2" data-name="SVGCleanerId 2" d="M643.739,522.718h11.466v1.91H643.739Z" transform="translate(-639.917 -487.365)" fill="#753a12"/>
      <path id="SVGCleanerId_3-2" data-name="SVGCleanerId 3" d="M643.739,526.539h11.466v1.911H643.739Z" transform="translate(-639.917 -487.365)" fill="#753a12"/>
      <path id="Trazado_100712" data-name="Trazado 100712" d="M661.893,501.7h5.733v-5.733h-5.733Zm1.911-3.822h1.911v1.911H663.8Z" transform="translate(-639.917 -487.365)" fill="#753a12"/>
      <path id="Trazado_100713" data-name="Trazado 100713" d="M669.537,501.7h5.733v-5.733h-5.733Zm1.911-3.822h1.911v1.911h-1.911Z" transform="translate(-639.917 -487.365)" fill="#753a12"/>
      <path id="Trazado_100714" data-name="Trazado 100714" d="M661.893,509.341h5.733v-5.733h-5.733Zm1.911-3.822h1.911v1.911H663.8Z" transform="translate(-639.917 -487.365)" fill="#753a12"/>
      <path id="Trazado_100715" data-name="Trazado 100715" d="M669.537,509.341h5.733v-5.733h-5.733Zm1.911-3.822h1.911v1.911h-1.911Z" transform="translate(-639.917 -487.365)" fill="#753a12"/>
      <path id="Trazado_100716" data-name="Trazado 100716" d="M661.893,516.985h5.733v-5.733h-5.733Zm1.911-3.822h1.911v1.911H663.8Z" transform="translate(-639.917 -487.365)" fill="#753a12"/>
      <path id="Trazado_100717" data-name="Trazado 100717" d="M669.537,516.985h5.733v-5.733h-5.733Zm1.911-3.822h1.911v1.911h-1.911Z" transform="translate(-639.917 -487.365)" fill="#753a12"/>
      <path id="Trazado_100718" data-name="Trazado 100718" d="M661.893,524.628h5.733V518.9h-5.733Zm1.911-3.821h1.911v1.911H663.8Z" transform="translate(-639.917 -487.365)" fill="#753a12"/>
      <path id="Trazado_100719" data-name="Trazado 100719" d="M669.537,524.628h5.733V518.9h-5.733Zm1.911-3.821h1.911v1.911h-1.911Z" transform="translate(-639.917 -487.365)" fill="#753a12"/>
      <path id="SVGCleanerId_4-2" data-name="SVGCleanerId 4" d="M681.958,515.074h1.911v1.911h-1.911Z" transform="translate(-639.917 -487.365)" fill="#753a12"/>
      <path id="SVGCleanerId_5-2" data-name="SVGCleanerId 5" d="M685.78,515.074H689.6v1.911H685.78Z" transform="translate(-639.917 -487.365)" fill="#753a12"/>
      <path id="SVGCleanerId_6-2" data-name="SVGCleanerId 6" d="M691.513,515.074h1.911v1.911h-1.911Z" transform="translate(-639.917 -487.365)" fill="#753a12"/>
      <path id="SVGCleanerId_7-2" data-name="SVGCleanerId 7" d="M681.958,518.9h1.911v1.911h-1.911Z" transform="translate(-639.917 -487.365)" fill="#753a12"/>
      <path id="SVGCleanerId_8-2" data-name="SVGCleanerId 8" d="M685.78,518.9H689.6v1.911H685.78Z" transform="translate(-639.917 -487.365)" fill="#753a12"/>
      <path id="SVGCleanerId_9-2" data-name="SVGCleanerId 9" d="M691.513,518.9h1.911v1.911h-1.911Z" transform="translate(-639.917 -487.365)" fill="#753a12"/>
      <path id="SVGCleanerId_10-2" data-name="SVGCleanerId 10" d="M681.958,522.718h1.911v1.91h-1.911Z" transform="translate(-639.917 -487.365)" fill="#753a12"/>
      <path id="SVGCleanerId_11-2" data-name="SVGCleanerId 11" d="M685.78,522.718H689.6v1.91H685.78Z" transform="translate(-639.917 -487.365)" fill="#753a12"/>
      <path id="SVGCleanerId_12-2" data-name="SVGCleanerId 12" d="M691.513,522.718h1.911v1.91h-1.911Z" transform="translate(-639.917 -487.365)" fill="#753a12"/>
      <path id="SVGCleanerId_13-2" data-name="SVGCleanerId 13" d="M681.958,526.539h1.911v1.911h-1.911Z" transform="translate(-639.917 -487.365)" fill="#753a12"/>
      <path id="SVGCleanerId_14-2" data-name="SVGCleanerId 14" d="M685.78,526.539H689.6v1.911H685.78Z" transform="translate(-639.917 -487.365)" fill="#753a12"/>
      <path id="SVGCleanerId_15-2" data-name="SVGCleanerId 15" d="M691.513,526.539h1.911v1.911h-1.911Z" transform="translate(-639.917 -487.365)" fill="#753a12"/>
    </g>
  </g>
</svg>
