<svg xmlns="http://www.w3.org/2000/svg" width="89.958" height="89.958" viewBox="0 0 89.958 89.958">
  <g id="Grupo_54433" data-name="Grupo 54433" transform="translate(-1019.299 -491.146)">
    <circle id="Elipse_4062" data-name="Elipse 4062" cx="44.979" cy="44.979" r="44.979" transform="translate(1019.299 491.146)" fill="#ea7424"/>
    <g id="Grupo_54054" data-name="Grupo 54054" transform="translate(1034.411 512.729)">
      <path id="Trazado_100720" data-name="Trazado 100720" d="M1063.543,532.607h51.769v5.973h-51.769Z" transform="translate(-1059.561 -492.784)" fill="#754c29"/>
      <path id="Trazado_100721" data-name="Trazado 100721" d="M1118.3,528.624v3.983h-57.742v-3.983Z" transform="translate(-1059.561 -492.784)" fill="#8b5e3c"/>
      <path id="Trazado_100722" data-name="Trazado 100722" d="M1080.467,525.638v2.986h-13.938v-2.986Z" transform="translate(-1059.561 -492.784)" fill="#898890"/>
      <path id="Trazado_100723" data-name="Trazado 100723" d="M1069.516,521.655h7.965v3.983h-7.965Z" transform="translate(-1059.561 -492.784)" fill="#acabb1"/>
      <path id="Trazado_100724" data-name="Trazado 100724" d="M1086.441,505.727v13.937a2,2,0,0,1-1.992,1.991h-21.9a2,2,0,0,1-1.991-1.991V505.727a2,2,0,0,1,1.991-1.992h21.9A2,2,0,0,1,1086.441,505.727Z" transform="translate(-1059.561 -492.784)" fill="#787680"/>
      <path id="Trazado_100725" data-name="Trazado 100725" d="M1098.387,512.7l4.978,5.974-5.973.995Z" transform="translate(-1059.561 -492.784)" fill="#1e81ce"/>
      <path id="Trazado_100726" data-name="Trazado 100726" d="M1111.329,528.624h-7.964v-9.955l5.973.995-.995-6.969a7.964,7.964,0,0,1,7.964,7.965v7.964Z" transform="translate(-1059.561 -492.784)" fill="#5aaae7"/>
      <path id="Trazado_100727" data-name="Trazado 100727" d="M1108.343,512.7l.995,6.969-5.973-.995Z" transform="translate(-1059.561 -492.784)" fill="#3d9ae2"/>
      <path id="Trazado_100728" data-name="Trazado 100728" d="M1097.392,519.664l5.973-.995v9.955h-12.942V520.66a7.964,7.964,0,0,1,7.964-7.965Z" transform="translate(-1059.561 -492.784)" fill="#3d9ae2"/>
      <path id="Trazado_100729" data-name="Trazado 100729" d="M1108.343,512.7l-4.978,5.974-4.978-5.974Z" transform="translate(-1059.561 -492.784)" fill="#ffdaaa"/>
      <path id="Trazado_100730" data-name="Trazado 100730" d="M1109.338,500.749v3.982a5.973,5.973,0,0,1-11.946,0v-3.982a.947.947,0,0,1,.009-.169c2-.359,6.432-1.295,7.955-2.818a7.4,7.4,0,0,0,3.973,2.867A.538.538,0,0,1,1109.338,500.749Z" transform="translate(-1059.561 -492.784)" fill="#ffdaaa"/>
      <path id="Trazado_100731" data-name="Trazado 100731" d="M1110.334,500.749a4.143,4.143,0,0,1-1.005-.12,7.4,7.4,0,0,1-3.973-2.867c-1.523,1.523-5.953,2.459-7.955,2.818-.617.109-1.005.169-1.005.169a6.969,6.969,0,0,1,13.938,0Z" transform="translate(-1059.561 -492.784)" fill="#898890"/>
      <path id="Trazado_100732" data-name="Trazado 100732" d="M1069.516,521.655h7.965v1.992h-7.965Z" transform="translate(-1059.561 -492.784)" fill="#898890"/>
      <path id="Trazado_100733" data-name="Trazado 100733" d="M1063.543,532.607h51.769V534.6h-51.769Z" transform="translate(-1059.561 -492.784)" fill="#603913"/>
      <path id="Trazado_100734" data-name="Trazado 100734" d="M1110.334,504.731v-2.987a.994.994,0,0,0,.995-.995,7.964,7.964,0,1,0-15.928,0,.994.994,0,0,0,.995.995v2.987a6.969,6.969,0,1,0,13.938,0Zm-6.969-9.956a5.984,5.984,0,0,1,5.858,4.8,6.707,6.707,0,0,1-3.039-2.367,1,1,0,0,0-.729-.438h-.1a1,1,0,0,0-.7.292c-1.087,1.084-4.549,2.013-7.14,2.491A5.985,5.985,0,0,1,1103.365,494.775Zm0,14.934a4.985,4.985,0,0,1-4.978-4.978l-.007-3.314a22.5,22.5,0,0,0,6.81-2.273,8.3,8.3,0,0,0,3.153,2.222v3.365A4.985,4.985,0,0,1,1103.365,509.709Z" transform="translate(-1059.561 -492.784)" fill="#753a12"/>
      <path id="Trazado_100735" data-name="Trazado 100735" d="M1118.3,527.629h-.995V520.66a8.97,8.97,0,0,0-8.96-8.96h-9.956a8.97,8.97,0,0,0-8.96,8.96v6.969h-7.964v-1.991a1,1,0,0,0-1-1h-1.991v-1.991h5.973a2.987,2.987,0,0,0,2.987-2.987V505.727a2.987,2.987,0,0,0-2.987-2.987h-21.9a2.986,2.986,0,0,0-2.986,2.987v13.937a2.986,2.986,0,0,0,2.986,2.987h5.974v1.991h-1.992a1,1,0,0,0-.995,1v1.991h-4.978a1,1,0,0,0-.995.995v3.983a1,1,0,0,0,.995.995h1.991v4.978a1,1,0,0,0,1,.995h51.769a1,1,0,0,0,.995-.995V533.6h1.991a1,1,0,0,0,1-.995v-3.983A1,1,0,0,0,1118.3,527.629Zm-2.986-6.969v6.969h-2.987V520.66h-1.991v6.969h-5.973v-7.785l4.813.8a.995.995,0,0,0,1.15-1.123l-.818-5.727A6.97,6.97,0,0,1,1115.312,520.66Zm-7.152-2.2-2.919-.487,2.433-2.92Zm-1.943-4.768-2.852,3.423-2.853-3.423Zm-7.161,1.362,2.433,2.919-2.92.486Zm-7.638,5.607a6.97,6.97,0,0,1,5.806-6.864l-.818,5.727a.994.994,0,0,0,1.15,1.123l4.813-.8v7.785H1096.4V520.66h-1.991v6.969h-2.987Zm-29.866-1V505.727a1,1,0,0,1,.995-1h21.9a1,1,0,0,1,1,1v13.937a1,1,0,0,1-1,1h-21.9A1,1,0,0,1,1061.552,519.664Zm8.96,2.987h5.973v1.991h-5.973Zm-2.987,3.982h11.947v1h-11.947Zm46.791,10.951h-49.778V533.6h49.778Zm2.987-5.973h-55.751V529.62H1117.3Z" transform="translate(-1059.561 -492.784)" fill="#753a12"/>
      <path id="Trazado_100736" data-name="Trazado 100736" d="M1102.369,502.74a1,1,0,1,1-.995-1A.994.994,0,0,1,1102.369,502.74Z" transform="translate(-1059.561 -492.784)" fill="#753a12"/>
      <path id="Trazado_100737" data-name="Trazado 100737" d="M1106.352,502.74a1,1,0,1,1-1-1A1,1,0,0,1,1106.352,502.74Z" transform="translate(-1059.561 -492.784)" fill="#753a12"/>
      <path id="Trazado_100738" data-name="Trazado 100738" d="M1101.374,505.727h3.982v1.991h-3.982Z" transform="translate(-1059.561 -492.784)" fill="#753a12"/>
    </g>
  </g>
</svg>
