<?xml version="1.0" encoding="utf-8"?>
<!-- Generator: Adobe Illustrator 25.3.1, SVG Export Plug-In . SVG Version: 6.00 Build 0)  -->
<svg version="1.1" id="Capa_1" xmlns="http://www.w3.org/2000/svg" xmlns:xlink="http://www.w3.org/1999/xlink" x="0px" y="0px"
	 viewBox="0 0 1005.9 540.2" style="enable-background:new 0 0 1005.9 540.2;" xml:space="preserve">
<style type="text/css">
	.st0{fill:#DF1024;}
	.st1{fill:#FFFFFF;}
	.st2{fill:#F9B522;}
	.st3{fill:#759289;}
	.st4{fill:#FFCF6E;}
	.st5{clip-path:url(#SVGID_2_);}
	.st6{fill:#F2DB0C;}
	.st7{fill:#747C40;}
	.st8{fill:#7D9292;}
	.st9{fill:#FFAF0D;}
	.st10{fill:#FF6B00;}
	.st11{enable-background:new    ;}
	.st12{opacity:0.31;fill:#FFAF0D;enable-background:new    ;}
	.st13{fill:#12263F;}
</style>
<g id="Grupo_54479" transform="translate(-285 -3776)">
	<g id="Grupo_54474" transform="translate(148.742 -1558.811)">
		<ellipse id="Elipse_4103" class="st0" cx="594.2" cy="5688.5" rx="106.7" ry="103.6"/>
		<circle id="Elipse_4104" class="st1" cx="593.7" cy="5689.9" r="68.4"/>
		<path id="Trazado_101842" class="st2" d="M519.6,5548h146.7l-8.8,6.6H529.4L519.6,5548z"/>
		<g id="Grupo_54465">
			<path id="Trazado_101843" class="st3" d="M603.7,5748.4c0,0,5.3-6.8-0.5-8.9s-16.8-1.3-23.4-9.8s2-27.8,2-27.8l3.6,7.1l-0.6,3.7
				v2.7l-1.3,3.3c0.3,6.2,4.6,11.5,10.7,13c10.7,3,18.8,4.9,13.7,12.4C607,5745.8,605.5,5747.4,603.7,5748.4z"/>
			<path id="Trazado_101844" class="st4" d="M603.7,5748.7c-0.1,0-0.1,0-0.2-0.1c-0.1-0.1-0.1-0.2,0-0.4c0,0,2.8-3.6,2.1-6.2
				c-0.4-1.1-1.3-1.9-2.4-2.2c-1.9-0.6-3.8-1-5.7-1.3c-5.8-1-12.9-2.4-17.8-8.6c-6.6-8.5,1.6-27.3,2-28.1c0-0.1,0.1-0.2,0.2-0.2h0
				c0.1,0,0.2,0.1,0.2,0.1l3.6,7.1c0,0.1,0,0.1,0,0.2l-0.6,3.7v2.6c0,0,0,0.1,0,0.1l-1.3,3.3c0.3,6.1,4.6,11.2,10.5,12.7l1.1,0.3
				c7.2,2,12.9,3.5,14.1,6.9c0.6,1.6,0.1,3.4-1.3,5.6c-1,1.9-2.5,3.4-4.4,4.5C603.9,5748.7,603.8,5748.7,603.7,5748.7z
				 M581.9,5702.5c-1.3,3.2-7.6,19.6-1.8,27c4.7,6.1,11.8,7.4,17.4,8.4c2,0.3,3.9,0.7,5.8,1.3c1.3,0.4,2.3,1.3,2.7,2.6
				c0.5,1.9-0.5,4-1.3,5.4c1.2-0.9,2.2-2,3-3.4c1.4-2.1,1.8-3.8,1.3-5.2c-1.1-3.1-6.7-4.6-13.7-6.6l-1.1-0.3
				c-6.2-1.5-10.6-6.9-10.9-13.2c0,0,0-0.1,0-0.1l1.3-3.3v-2.6l0.6-3.7L581.9,5702.5z"/>
		</g>
		<path id="Trazado_101845" class="st2" d="M491.2,5530.7h203.5l-8.4,6.6H498.9L491.2,5530.7z"/>
		<path id="Trazado_101846" class="st2" d="M616.5,5511.3h94.8l-5.5,6.6h-93.4L616.5,5511.3z"/>
		<path id="Trazado_101847" class="st2" d="M624.3,5491.7h99.4l-3.8,6.6h-95.2L624.3,5491.7z"/>
		<path id="Trazado_101848" class="st2" d="M571.9,5511.3h-99.5l5.5,6.6H576L571.9,5511.3z"/>
		<path id="Trazado_101849" class="st2" d="M564.9,5491.7H460l3.8,6.6h100.6L564.9,5491.7z"/>
		<path id="Trazado_101850" class="st2" d="M558.6,5495c0,0,12.4,33.2,35,33.4s36.6-32.7,36.6-32.7l1.2-4h-8c0,0-11.4,30.5-29.7,30
			c0,0-18.2,2.5-29-30L558.6,5495z"/>
		<circle id="Elipse_4105" cx="594.4" cy="5467.8" r="15.8"/>
		<circle id="Elipse_4106" cx="589.9" cy="5481.9" r="4.6"/>
		<circle id="Elipse_4107" cx="599.6" cy="5481.9" r="4.6"/>
		<g id="Grupo_54466">
			<path id="Trazado_101851" class="st3" d="M593.7,5637.9c-4.1,0.3-8.2-0.7-11.7-2.9c-2.6-1.7-4.8-3.9-6.4-6.5
				c-1.2-2.2-1-4.7-0.9-7.3c0-2,0.5-4,1.4-5.9c0.2-0.7,0.5-1.3,1-1.8c0.5-0.4,1.1-0.7,1.8-1c0.8-0.4,0.9-1,2.4-3.4
				c0.8-1.3,0.7-1.1,1.5-2.5c0.7-1,1.2-2.1,1.6-3.2c0.4-0.8,0.5-1.7,0.3-2.6c-0.3-0.7-0.8-1.2-1.5-1.3c-0.5-0.1-1.1,0.1-1.5,0.4
				c-2.9,1.5-1,0.2-3.2,1.5c-1.8,1-3.4,2.1-5.1,3.3c-0.7,0.5-1.2,1.1-1.6,1.8c-0.2,0.4-0.4,0.8-0.5,1.2c-0.3,1-0.8,1.4-1.7,3
				c-0.7,1.2-1.3,2.4-1.8,3.7c-0.6,1.4-0.5,2.6-0.7,4.1c-0.3,1.8-0.3,3.6-0.1,5.4c0.1,2.1,0.5,4.1,1.3,6.1c1.3,3.4,3.4,6.4,6.1,8.7
				c3.2,2.8,7.1,4.7,11.3,5.5c2.7,0.6,5.5,0.9,8.3,1c1.2,0,2.9,0.1,4.4,0.2c1.4,0.1,3.6,1.2,5.8,3c1.2,0.9,2.4,1.9,3.4,3
				c1.2,1.2,2.2,2.6,2.9,4.1c0.3,0.7,2.1,4.9,0.5,8.7c-1,2.2-2.6,3.2-2.2,3.8c0.3,0.5,1.4,0.3,3.6,0c0.8-0.1,1.6-0.2,2.4-0.5
				c1.4-0.8,2.5-2,3.1-3.5c0.4-0.9,0.7-1.9,0.8-3c0.3-2.3,0-4.7-0.7-6.9c-0.9-2.6-2.2-4.2-4.3-6.8c-1.5-2-3.3-3.7-5.2-5.2
				c-2.3-2.1-5.3-3.6-8.4-4.1C596,5637.5,594.6,5638,593.7,5637.9z"/>
			<path id="Trazado_101852" class="st4" d="M609.7,5668.6c-0.6,0-1-0.1-1.1-0.4c-0.3-0.5,0.1-1,0.7-1.7c0.6-0.7,1.1-1.5,1.5-2.4
				c1.5-3.3,0.2-7-0.5-8.5c-0.7-1.5-1.7-2.9-2.8-4c-1-1.1-2.2-2-3.4-2.9c-2.2-1.7-4.3-2.8-5.7-3c-1.5-0.2-3.2-0.2-4.4-0.2
				c-0.1,0-2.2,0.1-8.4-1c-4.2-0.8-8.1-2.7-11.3-5.5l-0.1-0.1c-2.8-2.4-4.9-5.4-6.2-8.8c-0.7-1.9-1.2-3.9-1.3-6l0-0.2
				c-0.2-1.8-0.1-3.6,0.1-5.4c0.1-0.5,0.1-0.9,0.1-1.4c0-0.9,0.2-1.9,0.6-2.7l0.2-0.5c0.4-0.9,0.6-1.3,1.6-3.2
				c0.3-0.6,0.6-1.1,1-1.6c0.3-0.4,0.5-0.9,0.7-1.3l0-0.2c0.1-0.4,0.3-0.8,0.5-1.1c0.4-0.7,1-1.4,1.7-1.9c1.6-1.2,3.3-2.4,5.1-3.4
				c0.4-0.3,0.9-0.6,1.4-0.7c0.6-0.2,1.2-0.5,1.8-0.8c0.5-0.3,1.1-0.5,1.7-0.4c0.8,0.2,1.4,0.7,1.7,1.5c0.3,0.9,0.2,1.9-0.3,2.8
				c-0.4,1.2-1,2.3-1.6,3.3c-0.4,0.7-0.6,1-0.8,1.3c-0.2,0.3-0.4,0.5-0.7,1.1c-0.4,0.7-0.7,1.2-0.9,1.6c-0.7,1.2-0.9,1.6-1.6,1.9
				l-0.4,0.2c-0.5,0.2-0.9,0.4-1.3,0.7c-0.4,0.3-0.7,0.8-0.8,1.3c0,0.1-0.1,0.3-0.2,0.4c-0.9,1.8-1.3,3.8-1.4,5.8l0,0.5
				c-0.1,2.4-0.2,4.7,0.9,6.7c1.6,2.6,3.7,4.8,6.3,6.4c3.4,2.2,7.4,3.2,11.5,2.8c0,0,0.1,0,0.1,0c0.4,0,0.7,0,1.1,0
				c1.7-0.1,3.5-0.1,5.2,0.2c3,0.5,5.8,1.8,8.1,3.8c0.2,0.1,0.3,0.3,0.4,0.3c2,1.5,3.8,3.3,5.3,5.3c2.2,2.6,3.5,4.2,4.3,6.9
				c0.7,2.3,1,4.6,0.7,7c-0.1,1-0.4,2.1-0.8,3c-0.6,1.6-1.7,2.9-3.2,3.7c-0.8,0.3-1.6,0.4-2.4,0.5
				C611.6,5668.4,610.7,5668.5,609.7,5668.6z M594,5644.9L594,5644.9c1.3,0,2.9,0.1,4.5,0.2c1.5,0.2,3.7,1.3,6,3.1
				c1.2,0.9,2.4,1.9,3.5,3c1.2,1.2,2.2,2.6,2.9,4.2c0.7,1.5,2,5.4,0.5,8.9c-0.4,0.9-1,1.7-1.6,2.5c-0.4,0.5-0.7,0.9-0.6,1.1
				c0.2,0.3,1.5,0.1,3.4-0.1c0.8-0.1,1.6-0.2,2.3-0.5c1.4-0.7,2.4-1.9,2.9-3.4c0.4-0.9,0.6-1.9,0.7-2.9c0.3-2.3,0-4.6-0.7-6.7
				c-0.8-2.6-2.1-4.1-4.2-6.7c-1.5-2-3.2-3.7-5.2-5.2c-0.1-0.1-0.3-0.2-0.4-0.4c-2.2-2-4.9-3.2-7.8-3.7c-1.7-0.3-3.4-0.3-5.1-0.2
				c-0.4,0-0.8,0-1.2,0c-4.1,0.3-8.3-0.7-11.8-2.9c-2.6-1.7-4.8-4-6.5-6.6c-1.2-2.1-1.1-4.5-1-7l0-0.5c0-2.1,0.5-4.1,1.4-6
				c0.1-0.1,0.1-0.2,0.1-0.4c0.2-0.6,0.5-1.1,1-1.5c0.4-0.3,0.9-0.6,1.4-0.8l0.4-0.2c0.5-0.2,0.7-0.6,1.3-1.7c0.2-0.4,0.5-1,0.9-1.6
				c0.4-0.6,0.5-0.9,0.7-1.2c0.2-0.3,0.4-0.6,0.8-1.3c0.6-1,1.2-2.1,1.6-3.2c0.4-1.1,0.6-1.7,0.3-2.4c-0.2-0.6-0.7-1-1.3-1.2
				c-0.5,0-0.9,0.1-1.3,0.3c-0.6,0.4-1.3,0.7-2,0.9c-0.5,0.2-0.9,0.4-1.3,0.7c-1.7,1-3.4,2.1-5,3.3c-0.6,0.5-1.2,1-1.5,1.7
				c-0.2,0.3-0.3,0.7-0.4,1l-0.1,0.2c-0.2,0.5-0.4,1-0.8,1.5c-0.3,0.5-0.7,1-1,1.6c-1,2-1.2,2.3-1.6,3.2l-0.2,0.5
				c-0.3,0.8-0.5,1.7-0.5,2.6c0,0.5-0.1,0.9-0.2,1.4c-0.3,1.8-0.3,3.5-0.1,5.3l0,0.2c0.1,2,0.5,3.9,1.3,5.8c1.3,3.3,3.4,6.3,6.1,8.6
				l0.1,0.1c3.1,2.8,6.9,4.6,11,5.4C588.4,5644.5,591.2,5644.8,594,5644.9L594,5644.9z"/>
		</g>
		<g id="Grupo_54467">
			<path id="Trazado_101853" class="st3" d="M595.9,5637.9c4.1,0.3,8.2-0.7,11.7-2.9c2.6-1.7,4.8-3.9,6.4-6.5c1.2-2.2,1-4.7,0.9-7.3
				c0-2-0.5-4-1.4-5.9c-0.2-0.7-0.5-1.3-1-1.8c-0.5-0.4-1.1-0.7-1.8-1c-0.8-0.4-0.9-1-2.4-3.4c-0.8-1.3-0.7-1.1-1.5-2.5
				c-0.7-1-1.2-2.1-1.6-3.2c-0.4-0.8-0.5-1.7-0.3-2.6c0.3-0.7,0.8-1.2,1.5-1.3c0.5-0.1,1.1,0.1,1.5,0.4c2.9,1.5,1,0.2,3.2,1.5
				c1.8,1,3.4,2.1,5.1,3.3c0.7,0.5,1.2,1.1,1.6,1.8c0.2,0.4,0.4,0.8,0.5,1.2c0.3,1,0.8,1.4,1.7,3c0.7,1.2,1.3,2.4,1.8,3.7
				c0.6,1.4,0.5,2.6,0.7,4.1c0.3,1.8,0.3,3.6,0.1,5.4c-0.1,2.1-0.5,4.1-1.3,6.1c-1.3,3.4-3.4,6.4-6.1,8.7c-3.2,2.8-7.1,4.8-11.3,5.5
				c-2.7,0.6-5.5,0.9-8.3,1c-1.2,0-2.9,0.1-4.4,0.2c-1.4,0.1-3.6,1.2-5.8,3c-1.2,0.9-2.4,1.9-3.4,3c-1.2,1.2-2.2,2.6-2.9,4.1
				c-0.3,0.7-2.1,4.9-0.5,8.7c1,2.2,2.6,3.2,2.2,3.8c-0.3,0.5-1.4,0.3-3.6,0c-0.8-0.1-1.6-0.2-2.4-0.5c-1.4-0.8-2.5-2-3.1-3.5
				c-0.4-0.9-0.7-1.9-0.8-3c-0.3-2.3,0-4.7,0.7-6.9c0.9-2.6,2.2-4.2,4.3-6.8c1.5-2,3.3-3.7,5.2-5.2c2.3-2.1,5.3-3.6,8.4-4.1
				C593.6,5637.5,595,5638,595.9,5637.9z"/>
			<path id="Trazado_101854" class="st4" d="M579.9,5668.6c-0.9,0-1.8-0.1-2.7-0.3c-0.8-0.1-1.7-0.2-2.5-0.5
				c-1.5-0.8-2.6-2.1-3.2-3.7c-0.4-1-0.7-2-0.8-3c-0.3-2.4,0-4.7,0.7-7c0.9-2.7,2.2-4.2,4.3-6.9c1.5-2,3.3-3.8,5.3-5.3
				c0.1-0.1,0.3-0.2,0.4-0.3c2.3-2,5.1-3.3,8.1-3.8c1.7-0.3,3.5-0.3,5.2-0.2c0.4,0,0.7,0,1.1,0c0,0,0.1,0,0.1,0
				c4,0.3,8-0.7,11.5-2.8c2.5-1.6,4.7-3.8,6.3-6.4c1.1-2,1-4.3,0.9-6.7l0-0.5c0-2-0.5-4-1.4-5.8c-0.1-0.1-0.1-0.3-0.2-0.4
				c-0.1-0.5-0.4-0.9-0.8-1.2c-0.4-0.3-0.8-0.6-1.3-0.7l-0.4-0.2c-0.7-0.3-0.9-0.7-1.6-1.9c-0.2-0.4-0.5-1-0.9-1.6
				c-0.4-0.6-0.5-0.9-0.7-1.1c-0.2-0.3-0.4-0.6-0.8-1.3c-0.7-1-1.2-2.1-1.6-3.3c-0.4-0.9-0.5-1.8-0.3-2.8c0.3-0.8,0.9-1.3,1.7-1.5
				c0.6-0.1,1.2,0.1,1.7,0.4c0.6,0.3,1.2,0.6,1.8,0.8c0.5,0.2,1,0.4,1.4,0.7c1.8,1,3.5,2.1,5.1,3.4c0.7,0.5,1.3,1.2,1.7,1.9
				c0.2,0.4,0.3,0.7,0.4,1.1l0.1,0.2c0.2,0.5,0.4,0.9,0.7,1.3c0.4,0.5,0.7,1.1,1,1.6c1.1,2,1.2,2.4,1.6,3.2l0.2,0.5
				c0.4,0.9,0.6,1.8,0.6,2.7c0,0.4,0.1,0.9,0.1,1.4c0.3,1.8,0.3,3.6,0.1,5.4l0,0.2c-0.1,2-0.5,4.1-1.3,6c-1.3,3.4-3.4,6.4-6.2,8.8
				l-0.1,0.1c-3.2,2.8-7.1,4.8-11.3,5.5c-2.8,0.6-5.6,0.9-8.4,1c-1.2,0-2.9,0.1-4.4,0.2c-1.4,0.1-3.5,1.3-5.7,2.9
				c-1.2,0.9-2.4,1.9-3.4,2.9c-1.2,1.2-2.1,2.5-2.8,4c-0.6,1.4-1.9,5.1-0.5,8.5c0.4,0.9,0.9,1.6,1.5,2.4c0.6,0.7,1,1.2,0.7,1.7
				C580.9,5668.5,580.5,5668.6,579.9,5668.6z M593.1,5638.1c-1.1,0-2.3,0.1-3.4,0.3c-2.9,0.5-5.6,1.7-7.8,3.7
				c-0.2,0.1-0.3,0.3-0.4,0.4c-2,1.5-3.7,3.2-5.2,5.2c-2.1,2.6-3.4,4.1-4.2,6.7c-0.7,2.2-0.9,4.5-0.7,6.7c0.1,1,0.4,2,0.7,2.9
				c0.5,1.5,1.6,2.7,2.9,3.4c0.7,0.2,1.5,0.4,2.3,0.5c1.8,0.3,3.2,0.4,3.4,0.1c0.1-0.2-0.2-0.6-0.6-1.1c-0.6-0.7-1.2-1.6-1.6-2.5
				c-1.6-3.5-0.2-7.4,0.5-8.9c0.7-1.6,1.7-3,2.9-4.2c1.1-1.1,2.2-2.1,3.5-3c2.2-1.8,4.5-2.9,6-3.1c1.6-0.2,3.2-0.2,4.4-0.2
				c0,0,0.1,0,0.1,0c2.8-0.1,5.5-0.4,8.3-0.9c4.1-0.7,7.9-2.6,11-5.4l0.1-0.1c2.7-2.3,4.8-5.3,6-8.6c0.7-1.9,1.1-3.8,1.3-5.8l0-0.2
				c0.2-1.8,0.1-3.5-0.1-5.3c-0.1-0.5-0.1-1-0.2-1.4c0-0.9-0.2-1.7-0.5-2.6l-0.2-0.5c-0.4-0.9-0.6-1.2-1.6-3.2
				c-0.3-0.5-0.6-1.1-1-1.6c-0.3-0.5-0.6-0.9-0.8-1.5l-0.1-0.2c-0.1-0.4-0.2-0.7-0.4-1c-0.4-0.7-0.9-1.3-1.5-1.7
				c-1.6-1.2-3.3-2.3-5-3.3c-0.4-0.3-0.8-0.5-1.3-0.7c-0.7-0.2-1.3-0.5-1.9-0.9c-0.4-0.3-0.9-0.4-1.4-0.4c-0.6,0.2-1.1,0.6-1.3,1.2
				c-0.3,0.7-0.1,1.3,0.3,2.4c0.4,1.1,1,2.2,1.6,3.2c0.4,0.7,0.6,1,0.8,1.3c0.2,0.3,0.4,0.6,0.7,1.2c0.4,0.7,0.7,1.2,0.9,1.6
				c0.6,1.1,0.8,1.5,1.3,1.7l0.4,0.2c0.5,0.2,1,0.5,1.4,0.8c0.5,0.4,0.8,0.9,1,1.5c0,0.1,0.1,0.3,0.1,0.4c0.9,1.9,1.4,3.9,1.4,6
				l0,0.5c0.1,2.5,0.2,4.8-1,7c-1.6,2.7-3.8,4.9-6.5,6.6c-3.5,2.2-7.7,3.2-11.8,2.9c-0.4,0-0.8,0-1.2,0
				C594.3,5638.1,593.8,5638.1,593.1,5638.1L593.1,5638.1z"/>
		</g>
		<g id="Grupo_54468">
			<path id="Trazado_101855" class="st3" d="M584.8,5748.4c0,0-5.3-6.8,0.5-8.9s16.8-1.3,23.4-9.8s-2-27.8-2-27.8l-3.6,7.1l0.6,3.7
				v2.7l1.3,3.3c-0.3,6.2-4.6,11.5-10.7,13c-10.7,3-18.8,4.9-13.7,12.4C581.5,5745.8,583,5747.4,584.8,5748.4z"/>
			<path id="Trazado_101856" class="st4" d="M584.8,5748.7c-0.1,0-0.1,0-0.2,0c-1.8-1.1-3.4-2.6-4.4-4.5c-1.5-2.2-1.9-4-1.3-5.6
				c1.2-3.3,6.9-4.9,14.1-6.9l1.1-0.3c5.9-1.4,10.2-6.6,10.5-12.7l-1.3-3.3c0,0,0-0.1,0-0.1v-2.7l-0.6-3.7c0-0.1,0-0.1,0-0.2
				l3.6-7.1c0-0.1,0.1-0.1,0.2-0.1h0c0.1,0,0.2,0.1,0.2,0.2c0.4,0.8,8.6,19.6,2,28.1c-4.8,6.2-12,7.5-17.8,8.6
				c-1.9,0.3-3.8,0.7-5.7,1.3c-1.1,0.3-2,1.1-2.4,2.2c-0.7,2.6,2,6.2,2.1,6.2c0.1,0.1,0.1,0.3,0,0.4
				C584.9,5748.7,584.9,5748.7,584.8,5748.7z M603.8,5715.3l1.3,3.3c0,0,0,0.1,0,0.1c-0.3,6.3-4.7,11.7-10.9,13.2l-1.1,0.3
				c-7,1.9-12.6,3.5-13.7,6.6c-0.5,1.4-0.1,3.1,1.3,5.1c0.7,1.3,1.7,2.5,3,3.4c-0.8-1.4-1.8-3.5-1.3-5.4c0.4-1.3,1.5-2.3,2.7-2.6
				c1.9-0.6,3.8-1,5.8-1.3c5.7-1,12.7-2.3,17.4-8.4c5.8-7.5-0.5-23.9-1.8-27l-3.3,6.5l0.6,3.6L603.8,5715.3z"/>
		</g>
		<path id="Trazado_101857" d="M594.9,5753.5h-0.7c-0.9,0-1.6-0.7-1.6-1.6l-4.6-273.3h13.4l-5,273.4
			C596.4,5752.8,595.7,5753.5,594.9,5753.5z"/>
		<g id="Grupo_54470">
			<g>
				<defs>
					<circle id="SVGID_1_" cx="593.7" cy="5689.9" r="68.4"/>
				</defs>
				<clipPath id="SVGID_2_">
					<use xlink:href="#SVGID_1_"  style="overflow:visible;"/>
				</clipPath>
				<g id="Grupo_54469" class="st5">
					<rect id="Rect치ngulo_5262" x="517.2" y="5659.6" class="st6" width="151.7" height="59.5"/>
				</g>
			</g>
		</g>
		<g id="Grupo_54471">
			<path id="Trazado_101858" d="M533.5,5696.2l6.3-0.7c0.2,2,1,3.9,2.3,5.4c1.3,1.2,3,1.8,4.7,1.7c1.7,0.1,3.4-0.4,4.7-1.5
				c1-0.9,1.6-2.2,1.6-3.6c0-0.8-0.2-1.6-0.7-2.2c-0.6-0.7-1.4-1.3-2.3-1.6c-0.8-0.3-2.5-0.8-5.2-1.6c-3.5-1-5.9-2.2-7.3-3.7
				c-2-2-3-4.7-3-7.5c0-1.9,0.5-3.7,1.4-5.3c0.9-1.6,2.3-3,4-3.8c2-0.9,4.2-1.4,6.3-1.3c4,0,7.1,1,9.1,3.1c2.1,2.2,3.3,5.1,3.2,8.2
				l-6.5,0.3c-0.1-1.5-0.7-3-1.8-4.1c-1.2-0.9-2.6-1.4-4.1-1.3c-1.6-0.1-3.2,0.4-4.4,1.3c-0.7,0.6-1.1,1.4-1,2.3
				c0,0.9,0.3,1.7,1,2.3c0.8,0.8,2.8,1.6,6,2.5c2.4,0.6,4.8,1.5,7,2.7c1.5,0.9,2.7,2.2,3.6,3.8c0.9,1.8,1.4,3.9,1.3,5.9
				c0,2.1-0.5,4.1-1.5,6c-1,1.8-2.5,3.3-4.4,4.1c-2.2,1-4.6,1.4-7,1.4c-4.1,0-7.2-1.1-9.4-3.3
				C535.2,5703.5,533.9,5700.4,533.5,5696.2z"/>
			<path id="Trazado_101859" d="M565.2,5708.3v-37.1h23.9v6.3h-17.4v8.2h16.2v6.3h-16.2v10.1h18v6.3L565.2,5708.3z"/>
			<path id="Trazado_101860" d="M595.3,5708.3v-37.1h6.3l13.2,24.8v-24.8h6v37.1h-6.5l-13-24.2v24.2H595.3z"/>
			<path id="Trazado_101861" d="M656.8,5708.3h-7.1l-2.8-8.4H634l-2.7,8.4h-6.9l12.6-37.1h6.9L656.8,5708.3z M644.8,5693.6
				l-4.4-13.8l-4.4,13.8H644.8z"/>
		</g>
		<g id="Grupo_54472">
			<path id="Trazado_101862" class="st0" d="M622.3,5804.5l-19.9,2.7l-0.1-17.4l15.5-2.1L622.3,5804.5z"/>
			<path id="Trazado_101863" class="st0" d="M659.1,5789.4l-18,8.8l-5.6-16.4l14-6.9L659.1,5789.4z"/>
			<path id="Trazado_101864" class="st0" d="M688.3,5765.2l-14.4,13.9l-10.4-13.9l11.3-10.9L688.3,5765.2z"/>
			<path id="Trazado_101865" class="st0" d="M709.1,5733.4l-10.4,17.1l-13.6-10.8l8.1-13.4L709.1,5733.4z"/>
			<path id="Trazado_101866" class="st0" d="M717.1,5696.2l-3.3,19.8l-16.6-5l2.6-15.4L717.1,5696.2z"/>
			<path id="Trazado_101867" class="st0" d="M713.5,5659.1l3.8,19.7l-17.3,1.1l-2.9-15.4L713.5,5659.1z"/>
			<path id="Trazado_101868" class="st0" d="M697.8,5626.1l10,17.4l-16,6.7l-7.8-13.6L697.8,5626.1z"/>
			<path id="Trazado_101869" class="st0" d="M673.3,5599.1l14.1,14.2l-13.8,10.6l-11-11.1L673.3,5599.1z"/>
			<path id="Trazado_101870" class="st0" d="M641.2,5579.3l17.8,9.2l-9.8,14.3l-13.9-7.2L641.2,5579.3z"/>
			<path id="Trazado_101871" class="st0" d="M604.2,5570.2l19.8,3.3l-5,16.6l-15.4-2.6L604.2,5570.2z"/>
		</g>
		<g id="Grupo_54473">
			<path id="Trazado_101872" class="st0" d="M565.5,5803.6l19.9,2.7l0.1-17.4l-15.5-2.1L565.5,5803.6z"/>
			<path id="Trazado_101873" class="st0" d="M528.8,5788.6l18,8.8l5.6-16.4l-14-6.9L528.8,5788.6z"/>
			<path id="Trazado_101874" class="st0" d="M499.5,5764.4l14.4,13.9l10.4-13.9l-11.3-10.9L499.5,5764.4z"/>
			<path id="Trazado_101875" class="st0" d="M478.7,5732.6l10.4,17.1l13.6-10.8l-8.1-13.4L478.7,5732.6z"/>
			<path id="Trazado_101876" class="st0" d="M470.8,5695.3l3.3,19.8l16.6-5l-2.6-15.4L470.8,5695.3z"/>
			<path id="Trazado_101877" class="st0" d="M474.4,5658.2l-3.8,19.7l17.3,1.1l2.9-15.4L474.4,5658.2z"/>
			<path id="Trazado_101878" class="st0" d="M490,5625.2l-10,17.4l16,6.7l7.8-13.6L490,5625.2z"/>
			<path id="Trazado_101879" class="st0" d="M514.6,5598.3l-14.1,14.2l13.8,10.6l11-11.1L514.6,5598.3z"/>
			<path id="Trazado_101880" class="st0" d="M546.7,5578.4l-17.8,9.2l9.8,14.3l13.9-7.2L546.7,5578.4z"/>
			<path id="Trazado_101881" class="st0" d="M583.7,5569.4l-19.8,3.3l5,16.6l15.4-2.6L583.7,5569.4z"/>
		</g>
		<path id="Trazado_101882" class="st1" d="M611.6,5605.7c0-0.6-0.3-1.3-0.8-1.6c-0.7-0.6-1.6-0.5-1.8-0.4c-0.2,0.2,0.1,1.1,0.8,1.6
			C610.4,5605.7,611,5605.9,611.6,5605.7z"/>
		<path id="Trazado_101883" class="st1" d="M578.9,5605.7c0-0.6,0.3-1.3,0.8-1.6c0.7-0.6,1.6-0.5,1.8-0.4c0.2,0.2-0.1,1.1-0.8,1.6
			C580.2,5605.7,579.6,5605.9,578.9,5605.7z"/>
		<path id="Trazado_101884" class="st7" d="M607.2,5783.1c-0.5-1.2-1.3-2.3-2.4-3.1c-1-0.8-2.2-1.5-3.4-2.1
			c-2.4-1.1-4.9-1.9-7.5-2.5c-5.2-1.1-10.6-1.7-15.9-1.9c-5.5-0.4-10.9-1.4-16.1-3c-5.2-1.6-10.3-3.6-15.2-6
			c-9.9-4.8-18.7-11.4-26.2-19.5c-3.7-4.1-6.8-8.8-9-13.8c-1.1-2.6-1.9-5.2-2.5-8c-0.5-2.8-0.7-5.6-0.5-8.3l2.2,0.1
			c-0.1,2.6,0.1,5.2,0.6,7.8c0.6,2.5,1.4,5,2.4,7.4c2.3,4.8,5.2,9.2,8.7,13.1c7.2,7.9,15.8,14.4,25.3,19.1c4.7,2.4,9.7,4.4,14.8,6
			c5.1,1.6,10.3,2.6,15.6,3c5.4,0.3,10.8,1.2,16.1,2.5c2.6,0.7,5.2,1.8,7.6,3.1c1.2,0.7,2.3,1.6,3.3,2.5
			C606.2,5780.6,607,5781.8,607.2,5783.1L607.2,5783.1z"/>
		<path id="Trazado_101885" class="st7" d="M582.6,5783.1c0.4-1.4,1.1-2.6,2.1-3.5c1-1,2.1-1.8,3.3-2.5c2.4-1.3,5-2.4,7.6-3.1
			c5.3-1.3,10.7-2.2,16.2-2.5c10.7-0.7,21.1-3.5,30.7-8.2c9.6-4.6,18.1-11.2,24.8-19.5c6.6-8.3,11.1-18.3,12-28.8l2.2,0.2
			c-0.9,11.1-5.1,21.6-12.2,30.2c-7,8.5-15.8,15.3-25.8,20c-9.9,4.8-20.6,7.5-31.6,8.2c-5.3,0.2-10.7,0.8-15.9,1.8
			c-2.6,0.5-5.1,1.3-7.5,2.4c-1.2,0.5-2.3,1.2-3.4,2.1C584,5780.8,583.2,5781.9,582.6,5783.1L582.6,5783.1z"/>
		<path id="Trazado_101886" class="st8" d="M668.2,5715.2c0,0,1.9,10.5,11.9,6c0,0,4.6,1.1,5.4-2.8c3-1,6.4-0.5,9,1.3
			c0,0-3.7-8.6-11.4-5.6c0,0-4.3-1.3-5.2,3.2C677.8,5717.2,673.8,5719.5,668.2,5715.2z"/>
		<path id="Trazado_101887" class="st8" d="M654.8,5741c0,0-4.3,9.8,6.4,11.7c0,0,3.2,3.5,6,0.7c3.1,0.9,5.5,3.2,6.7,6.1
			c0,0,1.8-9.2-6.3-11.1c0,0-2.8-3.5-6.1-0.3C661.6,5748.2,657,5747.8,654.8,5741z"/>
		<path id="Trazado_101888" class="st8" d="M632.5,5754.3c0,0-6.7,8.3,3.1,12.9c0,0,2.1,4.2,5.6,2.3c2.7,1.7,4.5,4.5,4.9,7.7
			c0,0,4.2-8.4-3.1-12.3c0,0-1.8-4.1-5.8-1.9C637.2,5763,632.8,5761.4,632.5,5754.3z"/>
		<path id="Trazado_101889" class="st8" d="M522.8,5712.4c0,0-1.9,10.5-11.9,6c0,0-4.6,1.1-5.4-2.8c-3-1-6.4-0.5-9,1.3
			c0,0,3.7-8.6,11.4-5.6c0,0,4.3-1.3,5.2,3.2C513.1,5714.5,517.1,5716.7,522.8,5712.4z"/>
		<path id="Trazado_101890" class="st8" d="M534.5,5739.8c0,0,4.3,9.8-6.4,11.7c0,0-3.2,3.5-6,0.7c-3.1,0.9-5.5,3.2-6.7,6.1
			c0,0-1.8-9.2,6.3-11.1c0,0,2.8-3.5,6.1-0.3C527.7,5746.9,532.3,5746.6,534.5,5739.8z"/>
		<path id="Trazado_101891" class="st8" d="M559.7,5754.3c0,0,6.7,8.3-3.1,12.9c0,0-2.1,4.2-5.6,2.3c-2.7,1.7-4.5,4.5-4.9,7.7
			c0,0-4.2-8.4,3.1-12.3c0,0,1.8-4.1,5.8-1.9C555.1,5763,559.4,5761.4,559.7,5754.3z"/>
	</g>
	<path id="Trazado_101892" class="st9" d="M851.7,4076.1l-2.4-1.7l70.6-99h371.1v3H921.4L851.7,4076.1z"/>
	<path id="Trazado_101893" class="st9" d="M721.7,3903.9l-101-60.7H285v-3h336.5l0.4,0.2l101.4,60.9L721.7,3903.9z"/>
	<path id="Elipse_4109" class="st9" d="M845.7,4071.5c3.6,0,6.6,2.9,6.6,6.6s-2.9,6.6-6.6,6.6c-3.6,0-6.6-2.9-6.6-6.6c0,0,0,0,0,0
		C839.1,4074.4,842,4071.5,845.7,4071.5z M845.7,4082.6c2.5,0,4.6-2,4.6-4.6s-2-4.6-4.6-4.6c-2.5,0-4.6,2-4.6,4.6
		C841.1,4080.6,843.2,4082.6,845.7,4082.6z"/>
	<path id="Trazado_101894" class="st9" d="M1290.9,4316.2H921.3l-0.4-0.3l-140.7-98.6l1.7-2.5l140.3,98.3h368.6V4316.2z"/>
	<path id="Elipse_4110" class="st9" d="M776.7,4206.9c3.6,0,6.6,2.9,6.6,6.6c0,3.6-2.9,6.6-6.6,6.6c-3.6,0-6.6-2.9-6.6-6.6
		c0,0,0,0,0,0C770.1,4209.9,773,4206.9,776.7,4206.9z M776.7,4218.1c2.5,0,4.6-2,4.6-4.6c0-2.5-2-4.6-4.6-4.6c-2.5,0-4.6,2-4.6,4.6
		C772.1,4216,774.1,4218.1,776.7,4218.1z"/>
	<path id="Elipse_4111" class="st9" d="M727.4,3898.8c3.6,0,6.6,2.9,6.6,6.6s-2.9,6.6-6.6,6.6c-3.6,0-6.6-2.9-6.6-6.6c0,0,0,0,0,0
		C720.8,3901.7,723.7,3898.8,727.4,3898.8z M727.4,3909.9c2.5,0,4.6-2,4.6-4.6s-2-4.6-4.6-4.6c-2.5,0-4.6,2-4.6,4.6
		C722.8,3907.9,724.8,3909.9,727.4,3909.9z"/>
	<g id="Grupo_54476" transform="translate(143.156 -1558.811)">
		<circle id="Elipse_4112" class="st10" cx="788.6" cy="5501.6" r="16.8"/>
		<g id="Grupo_54475">
			<path id="Trazado_101895" class="st1" d="M791.1,5510.3h-4v-13.1h-3.8v-2.8l7.8-1.2V5510.3z"/>
		</g>
	</g>
	<g id="Grupo_54477" transform="translate(143.742 -1558.811)">
		<circle id="Elipse_4113" class="st10" cx="788.6" cy="5839.6" r="16.8"/>
		<g class="st11">
			<path class="st1" d="M786.3,5836.2h1.8c0.9,0,1.5-0.2,1.9-0.6s0.6-1,0.6-1.7c0-0.7-0.2-1.2-0.6-1.6s-1-0.6-1.7-0.6
				c-0.6,0-1.2,0.2-1.6,0.5s-0.7,0.8-0.7,1.4h-3.4c0-0.9,0.2-1.7,0.7-2.4s1.2-1.3,2-1.7s1.8-0.6,2.9-0.6c1.8,0,3.2,0.4,4.2,1.3
				s1.5,2.1,1.5,3.6c0,0.8-0.2,1.5-0.7,2.2s-1.1,1.2-1.9,1.5c1,0.3,1.7,0.9,2.2,1.5s0.7,1.5,0.7,2.4c0,1.5-0.6,2.7-1.7,3.6
				s-2.6,1.4-4.4,1.4c-1.7,0-3.1-0.4-4.2-1.3s-1.6-2.1-1.6-3.6h3.4c0,0.6,0.2,1.2,0.7,1.6s1.1,0.6,1.8,0.6c0.8,0,1.4-0.2,1.9-0.6
				s0.7-1,0.7-1.7c0-1.7-0.9-2.6-2.8-2.6h-1.8V5836.2z"/>
		</g>
	</g>
	<g id="Grupo_54478" transform="translate(146.742 -1558.811)">
		<circle id="Elipse_4114" class="st10" cx="453.8" cy="5366.7" r="16.8"/>
		<g class="st11">
			<path class="st1" d="M459.7,5373.4H448v-2.3l5.5-5.9c0.8-0.8,1.3-1.6,1.7-2.2s0.5-1.2,0.5-1.8c0-0.8-0.2-1.4-0.6-1.8
				s-0.9-0.7-1.6-0.7c-0.8,0-1.4,0.3-1.8,0.8s-0.7,1.2-0.7,2.1h-3.4c0-1,0.2-2,0.7-2.8s1.2-1.5,2.1-2s1.9-0.7,3.1-0.7
				c1.8,0,3.1,0.4,4.1,1.3s1.5,2,1.5,3.6c0,0.8-0.2,1.7-0.7,2.6s-1.2,1.9-2.2,3.1l-3.9,4.1h7.3V5373.4z"/>
		</g>
	</g>
	<path id="Rect치ngulo_5263" class="st12" d="M963.9,3912.2H1285c3.2,0,5.9,2.6,5.9,5.9v58.8l0,0H958l0,0v-58.8
		C958,3914.8,960.6,3912.2,963.9,3912.2C963.9,3912.2,963.9,3912.2,963.9,3912.2z"/>
	<path id="Rect치ngulo_5264" class="st12" d="M963.9,4248.3H1285c3.2,0,5.9,2.6,5.9,5.9v58.8l0,0H958l0,0v-58.8
		C958,4251,960.6,4248.3,963.9,4248.3C963.9,4248.3,963.9,4248.3,963.9,4248.3z"/>
	<path id="Rect치ngulo_5265" class="st12" d="M290.9,3776h278.4c3.2,0,5.9,2.6,5.9,5.9v58.8l0,0H285l0,0v-58.8
		C285,3778.6,287.6,3776,290.9,3776C290.9,3776,290.9,3776,290.9,3776z"/>
	<g class="st11">
		<path class="st13" d="M998.9,3932.8h-4.5v3.1h5.3v1.9H992v-11.4h7.6v1.9h-5.3v2.7h4.5V3932.8z"/>
		<path class="st13" d="M1003.2,3937.7h-2.3v-12h2.3V3937.7z"/>
		<path class="st13" d="M1016.7,3933.6c0,1.3-0.3,2.3-0.9,3.1c-0.6,0.8-1.4,1.2-2.4,1.2c-0.9,0-1.5-0.3-2.1-0.9v4h-2.3v-11.7h2.1
			l0.1,0.8c0.5-0.7,1.3-1,2.1-1c1,0,1.9,0.4,2.4,1.2s0.9,1.8,0.9,3.2V3933.6z M1014.4,3933.4c0-0.8-0.1-1.4-0.4-1.8
			c-0.3-0.4-0.7-0.6-1.2-0.6c-0.7,0-1.2,0.3-1.5,0.8v3.5c0.3,0.6,0.8,0.8,1.5,0.8C1013.9,3936,1014.4,3935.2,1014.4,3933.4z"/>
		<path class="st13" d="M1018.1,3927.1c0-0.3,0.1-0.6,0.3-0.8s0.5-0.3,0.9-0.3c0.4,0,0.7,0.1,0.9,0.3c0.2,0.2,0.3,0.5,0.3,0.8
			c0,0.3-0.1,0.6-0.3,0.8c-0.2,0.2-0.5,0.3-0.9,0.3c-0.4,0-0.7-0.1-0.9-0.3C1018.2,3927.7,1018.1,3927.4,1018.1,3927.1z
			 M1020.5,3937.7h-2.3v-8.5h2.3V3937.7z"/>
		<path class="st13" d="M1024.4,3929.2l0.1,1c0.6-0.8,1.4-1.1,2.4-1.1c0.9,0,1.6,0.3,2,0.8s0.7,1.3,0.7,2.4v5.5h-2.3v-5.4
			c0-0.5-0.1-0.8-0.3-1c-0.2-0.2-0.6-0.3-1-0.3c-0.6,0-1.1,0.3-1.4,0.8v6h-2.3v-8.5H1024.4z M1028.9,3925.8c0,0.6-0.2,1.1-0.5,1.5
			s-0.8,0.6-1.3,0.6c-0.2,0-0.4,0-0.5-0.1c-0.2,0-0.4-0.1-0.6-0.3c-0.3-0.1-0.5-0.2-0.6-0.3c-0.1,0-0.2-0.1-0.4-0.1
			c-0.2,0-0.3,0.1-0.5,0.2c-0.1,0.1-0.2,0.3-0.2,0.6l-1.3-0.1c0-0.6,0.2-1.1,0.5-1.5c0.3-0.4,0.8-0.6,1.3-0.6c0.2,0,0.3,0,0.4,0.1
			c0.1,0,0.4,0.1,0.7,0.3s0.5,0.2,0.6,0.3c0.1,0,0.2,0,0.4,0c0.2,0,0.3-0.1,0.5-0.2s0.2-0.3,0.2-0.6L1028.9,3925.8z"/>
		<path class="st13" d="M1031,3933.4c0-0.8,0.2-1.6,0.5-2.2c0.3-0.7,0.8-1.2,1.4-1.5c0.6-0.4,1.3-0.5,2.1-0.5c1.1,0,2.1,0.3,2.8,1
			c0.7,0.7,1.1,1.6,1.2,2.8l0,0.6c0,1.3-0.4,2.3-1.1,3.1c-0.7,0.8-1.7,1.2-2.9,1.2s-2.2-0.4-2.9-1.2s-1.1-1.8-1.1-3.2V3933.4z
			 M1033.2,3933.6c0,0.8,0.2,1.4,0.5,1.8c0.3,0.4,0.7,0.6,1.3,0.6c0.5,0,1-0.2,1.3-0.6c0.3-0.4,0.5-1.1,0.5-2c0-0.8-0.2-1.4-0.5-1.8
			c-0.3-0.4-0.7-0.6-1.3-0.6c-0.6,0-1,0.2-1.3,0.6C1033.4,3932,1033.2,3932.7,1033.2,3933.6z M1035.4,3925.7h2.5l-2.2,2.4h-1.8
			L1035.4,3925.7z"/>
		<path class="st13" d="M1042.4,3929.2l0.1,1c0.6-0.8,1.4-1.1,2.4-1.1c0.9,0,1.6,0.3,2,0.8s0.7,1.3,0.7,2.4v5.5h-2.3v-5.4
			c0-0.5-0.1-0.8-0.3-1c-0.2-0.2-0.6-0.3-1-0.3c-0.6,0-1.1,0.3-1.4,0.8v6h-2.3v-8.5H1042.4z"/>
		<path class="st13" d="M1049.9,3940.6l-1.2-0.6l0.3-0.5c0.3-0.6,0.5-1.3,0.5-1.9v-1.8h1.9l0,1.6c0,0.6-0.2,1.2-0.4,1.8
			C1050.7,3939.7,1050.3,3940.2,1049.9,3940.6z"/>
	</g>
	<g class="st11">
		<path class="st13" d="M1061.5,3930.5c-0.2,0-0.5-0.1-0.7-0.1c-0.9,0-1.6,0.4-1.9,1.2v6h-1.4v-8.5h1.4l0,1c0.5-0.8,1.1-1.1,2-1.1
			c0.3,0,0.5,0,0.6,0.1V3930.5z"/>
		<path class="st13" d="M1066.2,3937.9c-1.1,0-2.1-0.4-2.8-1.1s-1.1-1.8-1.1-3v-0.3c0-0.8,0.2-1.6,0.5-2.2s0.8-1.2,1.3-1.5
			c0.6-0.4,1.2-0.6,1.9-0.6c1.1,0,2,0.4,2.6,1.1s0.9,1.8,0.9,3.1v0.6h-5.7c0,0.8,0.3,1.5,0.7,2c0.5,0.5,1.1,0.8,1.8,0.8
			c0.5,0,0.9-0.1,1.3-0.3c0.4-0.2,0.7-0.5,0.9-0.8l0.9,0.7C1068.7,3937.3,1067.6,3937.9,1066.2,3937.9z M1066,3930.3
			c-0.6,0-1.1,0.2-1.5,0.6c-0.4,0.4-0.6,1-0.7,1.8h4.2v-0.1c0-0.7-0.2-1.3-0.6-1.7C1067.1,3930.5,1066.6,3930.3,1066,3930.3z"/>
		<path class="st13" d="M1078.3,3933.6c0,1.3-0.3,2.3-0.9,3.1c-0.6,0.8-1.4,1.2-2.4,1.2c-1,0-1.8-0.3-2.4-1v4.1h-1.4v-11.7h1.3
			l0.1,0.9c0.6-0.7,1.4-1.1,2.5-1.1c1,0,1.8,0.4,2.4,1.1c0.6,0.8,0.9,1.8,0.9,3.2V3933.6z M1076.8,3933.4c0-1-0.2-1.7-0.6-2.3
			s-1-0.8-1.7-0.8c-0.9,0-1.5,0.4-2,1.2v4c0.4,0.8,1.1,1.2,2,1.2c0.7,0,1.2-0.3,1.7-0.8C1076.6,3935.3,1076.8,3934.5,1076.8,3933.4z
			"/>
		<path class="st13" d="M1084.2,3930.5c-0.2,0-0.5-0.1-0.7-0.1c-0.9,0-1.6,0.4-1.9,1.2v6h-1.4v-8.5h1.4l0,1c0.5-0.8,1.1-1.1,2-1.1
			c0.3,0,0.5,0,0.6,0.1V3930.5z"/>
		<path class="st13" d="M1088.9,3937.9c-1.1,0-2.1-0.4-2.8-1.1s-1.1-1.8-1.1-3v-0.3c0-0.8,0.2-1.6,0.5-2.2s0.8-1.2,1.3-1.5
			c0.6-0.4,1.2-0.6,1.9-0.6c1.1,0,2,0.4,2.6,1.1s0.9,1.8,0.9,3.1v0.6h-5.7c0,0.8,0.3,1.5,0.7,2c0.5,0.5,1.1,0.8,1.8,0.8
			c0.5,0,0.9-0.1,1.3-0.3c0.4-0.2,0.7-0.5,0.9-0.8l0.9,0.7C1091.4,3937.3,1090.3,3937.9,1088.9,3937.9z M1088.7,3930.3
			c-0.6,0-1.1,0.2-1.5,0.6c-0.4,0.4-0.6,1-0.7,1.8h4.2v-0.1c0-0.7-0.2-1.3-0.6-1.7C1089.8,3930.5,1089.3,3930.3,1088.7,3930.3z"/>
		<path class="st13" d="M1098.8,3935.5c0-0.4-0.1-0.7-0.4-0.9c-0.3-0.2-0.8-0.4-1.5-0.6c-0.7-0.2-1.3-0.3-1.7-0.6s-0.7-0.5-1-0.8
			c-0.2-0.3-0.3-0.7-0.3-1.1c0-0.7,0.3-1.3,0.9-1.8s1.3-0.7,2.2-0.7c1,0,1.7,0.2,2.3,0.7c0.6,0.5,0.9,1.1,0.9,1.9h-1.5
			c0-0.4-0.2-0.7-0.5-1s-0.8-0.4-1.3-0.4c-0.5,0-0.9,0.1-1.2,0.3s-0.4,0.5-0.4,0.9c0,0.3,0.1,0.6,0.4,0.8c0.3,0.2,0.8,0.3,1.5,0.5
			c0.7,0.2,1.3,0.4,1.8,0.6c0.4,0.2,0.8,0.5,1,0.8c0.2,0.3,0.3,0.7,0.3,1.2c0,0.8-0.3,1.4-0.9,1.8c-0.6,0.5-1.4,0.7-2.4,0.7
			c-0.7,0-1.3-0.1-1.8-0.4c-0.5-0.2-0.9-0.6-1.2-1c-0.3-0.4-0.4-0.9-0.4-1.4h1.4c0,0.5,0.2,0.9,0.6,1.2c0.4,0.3,0.8,0.4,1.4,0.4
			c0.5,0,1-0.1,1.3-0.3C1098.6,3936.1,1098.8,3935.8,1098.8,3935.5z"/>
		<path class="st13" d="M1105.6,3937.9c-1.1,0-2.1-0.4-2.8-1.1s-1.1-1.8-1.1-3v-0.3c0-0.8,0.2-1.6,0.5-2.2s0.8-1.2,1.3-1.5
			c0.6-0.4,1.2-0.6,1.9-0.6c1.1,0,2,0.4,2.6,1.1s0.9,1.8,0.9,3.1v0.6h-5.7c0,0.8,0.3,1.5,0.7,2c0.5,0.5,1.1,0.8,1.8,0.8
			c0.5,0,0.9-0.1,1.3-0.3c0.4-0.2,0.7-0.5,0.9-0.8l0.9,0.7C1108.1,3937.3,1107,3937.9,1105.6,3937.9z M1105.4,3930.3
			c-0.6,0-1.1,0.2-1.5,0.6c-0.4,0.4-0.6,1-0.7,1.8h4.2v-0.1c0-0.7-0.2-1.3-0.6-1.7C1106.5,3930.5,1106,3930.3,1105.4,3930.3z"/>
		<path class="st13" d="M1112,3929.2l0,1.1c0.6-0.8,1.5-1.2,2.5-1.2c1.8,0,2.7,1,2.7,3v5.6h-1.4v-5.6c0-0.6-0.1-1.1-0.4-1.4
			s-0.7-0.4-1.3-0.4c-0.5,0-0.9,0.1-1.2,0.4c-0.4,0.2-0.6,0.6-0.8,1v6h-1.4v-8.5H1112z"/>
		<path class="st13" d="M1121.4,3927.2v2h1.6v1.1h-1.6v5.2c0,0.3,0.1,0.6,0.2,0.8c0.1,0.2,0.4,0.3,0.7,0.3c0.2,0,0.4,0,0.7-0.1v1.2
			c-0.4,0.1-0.8,0.2-1.1,0.2c-0.6,0-1.1-0.2-1.5-0.6s-0.5-0.9-0.5-1.7v-5.2h-1.5v-1.1h1.5v-2H1121.4z"/>
		<path class="st13" d="M1129.9,3937.7c-0.1-0.2-0.2-0.5-0.2-0.9c-0.7,0.7-1.5,1-2.4,1c-0.8,0-1.5-0.2-2.1-0.7
			c-0.5-0.5-0.8-1.1-0.8-1.8c0-0.9,0.3-1.6,1-2.1c0.7-0.5,1.6-0.7,2.8-0.7h1.4v-0.7c0-0.5-0.2-0.9-0.5-1.2c-0.3-0.3-0.7-0.4-1.3-0.4
			c-0.5,0-0.9,0.1-1.3,0.4c-0.3,0.3-0.5,0.6-0.5,0.9h-1.5c0-0.4,0.1-0.8,0.4-1.2c0.3-0.4,0.7-0.7,1.2-0.9c0.5-0.2,1.1-0.3,1.7-0.3
			c1,0,1.7,0.2,2.3,0.7c0.6,0.5,0.8,1.2,0.9,2v3.9c0,0.8,0.1,1.4,0.3,1.9v0.1H1129.9z M1127.5,3936.6c0.5,0,0.9-0.1,1.3-0.4
			s0.7-0.5,0.9-0.9v-1.7h-1.1c-1.8,0-2.7,0.5-2.7,1.6c0,0.5,0.2,0.8,0.5,1.1C1126.6,3936.5,1127,3936.6,1127.5,3936.6z"/>
		<path class="st13" d="M1135.3,3927.2v2h1.6v1.1h-1.6v5.2c0,0.3,0.1,0.6,0.2,0.8c0.1,0.2,0.4,0.3,0.7,0.3c0.2,0,0.4,0,0.7-0.1v1.2
			c-0.4,0.1-0.8,0.2-1.1,0.2c-0.6,0-1.1-0.2-1.5-0.6s-0.5-0.9-0.5-1.7v-5.2h-1.5v-1.1h1.5v-2H1135.3z"/>
		<path class="st13" d="M1138.6,3927c0-0.2,0.1-0.4,0.2-0.6c0.1-0.2,0.4-0.2,0.6-0.2s0.5,0.1,0.6,0.2c0.1,0.2,0.2,0.4,0.2,0.6
			s-0.1,0.4-0.2,0.6c-0.1,0.2-0.4,0.2-0.6,0.2s-0.5-0.1-0.6-0.2C1138.7,3927.4,1138.6,3927.2,1138.6,3927z M1140.1,3937.7h-1.4v-8.5
			h1.4V3937.7z"/>
		<path class="st13" d="M1145.2,3935.7l2.1-6.5h1.5l-3,8.5h-1.1l-3.1-8.5h1.5L1145.2,3935.7z"/>
		<path class="st13" d="M1149.7,3933.4c0-0.8,0.2-1.6,0.5-2.2c0.3-0.7,0.8-1.2,1.4-1.5c0.6-0.4,1.2-0.5,2-0.5c1.2,0,2.1,0.4,2.8,1.2
			s1.1,1.9,1.1,3.2v0.1c0,0.8-0.2,1.6-0.5,2.2c-0.3,0.7-0.8,1.2-1.4,1.5s-1.3,0.5-2,0.5c-1.1,0-2.1-0.4-2.8-1.2s-1.1-1.9-1.1-3.2
			V3933.4z M1151.2,3933.6c0,0.9,0.2,1.7,0.7,2.3c0.4,0.6,1,0.9,1.7,0.9c0.7,0,1.3-0.3,1.8-0.9c0.4-0.6,0.6-1.4,0.6-2.4
			c0-0.9-0.2-1.7-0.7-2.3c-0.4-0.6-1-0.9-1.8-0.9c-0.7,0-1.3,0.3-1.7,0.9S1151.2,3932.5,1151.2,3933.6z"/>
		<path class="st13" d="M1162.8,3933.4c0-1.3,0.3-2.3,0.9-3.1c0.6-0.8,1.4-1.2,2.4-1.2c1,0,1.8,0.3,2.4,1v-4.4h1.4v12h-1.3l-0.1-0.9
			c-0.6,0.7-1.4,1.1-2.4,1.1c-1,0-1.8-0.4-2.4-1.2s-0.9-1.8-0.9-3.1V3933.4z M1164.3,3933.6c0,1,0.2,1.7,0.6,2.2
			c0.4,0.5,0.9,0.8,1.6,0.8c0.9,0,1.6-0.4,2-1.2v-3.9c-0.4-0.8-1.1-1.2-2-1.2c-0.7,0-1.3,0.3-1.7,0.8
			C1164.5,3931.7,1164.3,3932.5,1164.3,3933.6z"/>
		<path class="st13" d="M1175.7,3937.9c-1.1,0-2.1-0.4-2.8-1.1s-1.1-1.8-1.1-3v-0.3c0-0.8,0.2-1.6,0.5-2.2s0.8-1.2,1.3-1.5
			c0.6-0.4,1.2-0.6,1.9-0.6c1.1,0,2,0.4,2.6,1.1s0.9,1.8,0.9,3.1v0.6h-5.7c0,0.8,0.3,1.5,0.7,2c0.5,0.5,1.1,0.8,1.8,0.8
			c0.5,0,0.9-0.1,1.3-0.3c0.4-0.2,0.7-0.5,0.9-0.8l0.9,0.7C1178.2,3937.3,1177.1,3937.9,1175.7,3937.9z M1175.5,3930.3
			c-0.6,0-1.1,0.2-1.5,0.6c-0.4,0.4-0.6,1-0.7,1.8h4.2v-0.1c0-0.7-0.2-1.3-0.6-1.7C1176.6,3930.5,1176.1,3930.3,1175.5,3930.3z"/>
		<path class="st13" d="M1182.2,3937.7h-1.4v-12h1.4V3937.7z"/>
		<path class="st13" d="M1193.4,3935.5c0-0.4-0.1-0.7-0.4-0.9c-0.3-0.2-0.8-0.4-1.5-0.6c-0.7-0.2-1.3-0.3-1.7-0.6s-0.7-0.5-1-0.8
			c-0.2-0.3-0.3-0.7-0.3-1.1c0-0.7,0.3-1.3,0.9-1.8s1.3-0.7,2.2-0.7c1,0,1.7,0.2,2.3,0.7c0.6,0.5,0.9,1.1,0.9,1.9h-1.5
			c0-0.4-0.2-0.7-0.5-1s-0.8-0.4-1.3-0.4c-0.5,0-0.9,0.1-1.2,0.3s-0.4,0.5-0.4,0.9c0,0.3,0.1,0.6,0.4,0.8c0.3,0.2,0.8,0.3,1.5,0.5
			c0.7,0.2,1.3,0.4,1.8,0.6c0.4,0.2,0.8,0.5,1,0.8c0.2,0.3,0.3,0.7,0.3,1.2c0,0.8-0.3,1.4-0.9,1.8c-0.6,0.5-1.4,0.7-2.4,0.7
			c-0.7,0-1.3-0.1-1.8-0.4c-0.5-0.2-0.9-0.6-1.2-1c-0.3-0.4-0.4-0.9-0.4-1.4h1.4c0,0.5,0.2,0.9,0.6,1.2c0.4,0.3,0.8,0.4,1.4,0.4
			c0.5,0,1-0.1,1.3-0.3C1193.3,3936.1,1193.4,3935.8,1193.4,3935.5z"/>
		<path class="st13" d="M1200.3,3937.9c-1.1,0-2.1-0.4-2.8-1.1s-1.1-1.8-1.1-3v-0.3c0-0.8,0.2-1.6,0.5-2.2s0.8-1.2,1.3-1.5
			c0.6-0.4,1.2-0.6,1.9-0.6c1.1,0,2,0.4,2.6,1.1s0.9,1.8,0.9,3.1v0.6h-5.7c0,0.8,0.3,1.5,0.7,2c0.5,0.5,1.1,0.8,1.8,0.8
			c0.5,0,0.9-0.1,1.3-0.3c0.4-0.2,0.7-0.5,0.9-0.8l0.9,0.7C1202.8,3937.3,1201.7,3937.9,1200.3,3937.9z M1200.1,3930.3
			c-0.6,0-1.1,0.2-1.5,0.6c-0.4,0.4-0.6,1-0.7,1.8h4.2v-0.1c0-0.7-0.2-1.3-0.6-1.7C1201.2,3930.5,1200.7,3930.3,1200.1,3930.3z"/>
		<path class="st13" d="M1208.6,3936.7c0.5,0,1-0.2,1.4-0.5c0.4-0.3,0.6-0.7,0.6-1.2h1.4c0,0.5-0.2,0.9-0.5,1.4
			c-0.3,0.4-0.7,0.8-1.2,1c-0.5,0.3-1.1,0.4-1.6,0.4c-1.2,0-2.1-0.4-2.7-1.2s-1-1.8-1-3.2v-0.2c0-0.8,0.2-1.6,0.5-2.2
			c0.3-0.6,0.7-1.1,1.3-1.5c0.6-0.4,1.2-0.5,2-0.5c0.9,0,1.7,0.3,2.4,0.9c0.6,0.6,1,1.3,1,2.2h-1.4c0-0.5-0.2-1-0.6-1.3
			c-0.4-0.4-0.8-0.5-1.4-0.5c-0.7,0-1.3,0.3-1.7,0.8c-0.4,0.5-0.6,1.3-0.6,2.3v0.3c0,1,0.2,1.7,0.6,2.2
			C1207.3,3936.4,1207.9,3936.7,1208.6,3936.7z"/>
		<path class="st13" d="M1215.6,3927.2v2h1.6v1.1h-1.6v5.2c0,0.3,0.1,0.6,0.2,0.8c0.1,0.2,0.4,0.3,0.7,0.3c0.2,0,0.4,0,0.7-0.1v1.2
			c-0.4,0.1-0.8,0.2-1.1,0.2c-0.6,0-1.1-0.2-1.5-0.6s-0.5-0.9-0.5-1.7v-5.2h-1.5v-1.1h1.5v-2H1215.6z"/>
		<path class="st13" d="M1218.3,3933.4c0-0.8,0.2-1.6,0.5-2.2c0.3-0.7,0.8-1.2,1.4-1.5c0.6-0.4,1.2-0.5,2-0.5c1.2,0,2.1,0.4,2.8,1.2
			s1.1,1.9,1.1,3.2v0.1c0,0.8-0.2,1.6-0.5,2.2c-0.3,0.7-0.8,1.2-1.4,1.5s-1.3,0.5-2,0.5c-1.1,0-2.1-0.4-2.8-1.2s-1.1-1.9-1.1-3.2
			V3933.4z M1219.8,3933.6c0,0.9,0.2,1.7,0.7,2.3c0.4,0.6,1,0.9,1.7,0.9c0.7,0,1.3-0.3,1.8-0.9c0.4-0.6,0.6-1.4,0.6-2.4
			c0-0.9-0.2-1.7-0.7-2.3c-0.4-0.6-1-0.9-1.8-0.9c-0.7,0-1.3,0.3-1.7,0.9S1219.8,3932.5,1219.8,3933.6z"/>
		<path class="st13" d="M1231.9,3930.5c-0.2,0-0.5-0.1-0.7-0.1c-0.9,0-1.6,0.4-1.9,1.2v6h-1.4v-8.5h1.4l0,1c0.5-0.8,1.1-1.1,2-1.1
			c0.3,0,0.5,0,0.6,0.1V3930.5z"/>
	</g>
	<g class="st11">
		<path class="st13" d="M992.1,3951c0-0.2,0.1-0.4,0.2-0.6c0.1-0.2,0.4-0.2,0.6-0.2s0.5,0.1,0.6,0.2c0.1,0.2,0.2,0.4,0.2,0.6
			s-0.1,0.4-0.2,0.6c-0.1,0.2-0.4,0.2-0.6,0.2s-0.5-0.1-0.6-0.2C992.2,3951.4,992.1,3951.2,992.1,3951z M993.7,3961.7h-1.4v-8.5h1.4
			V3961.7z"/>
		<path class="st13" d="M997.3,3953.2l0,1.1c0.6-0.8,1.5-1.2,2.5-1.2c1.8,0,2.7,1,2.7,3v5.6h-1.4v-5.6c0-0.6-0.1-1.1-0.4-1.4
			s-0.7-0.4-1.3-0.4c-0.5,0-0.9,0.1-1.2,0.4c-0.4,0.2-0.6,0.6-0.8,1v6H996v-8.5H997.3z"/>
		<path class="st13" d="M1004.5,3957.4c0-1.3,0.3-2.3,0.9-3.1c0.6-0.8,1.4-1.2,2.4-1.2c1,0,1.8,0.3,2.4,1v-4.4h1.4v12h-1.3l-0.1-0.9
			c-0.6,0.7-1.4,1.1-2.4,1.1c-1,0-1.8-0.4-2.4-1.2s-0.9-1.8-0.9-3.1V3957.4z M1005.9,3957.6c0,1,0.2,1.7,0.6,2.2
			c0.4,0.5,0.9,0.8,1.6,0.8c0.9,0,1.6-0.4,2-1.2v-3.9c-0.4-0.8-1.1-1.2-2-1.2c-0.7,0-1.3,0.3-1.7,0.8
			C1006.1,3955.7,1005.9,3956.5,1005.9,3957.6z"/>
		<path class="st13" d="M1019,3960.9c-0.6,0.7-1.4,1-2.5,1c-0.9,0-1.6-0.3-2.1-0.8c-0.5-0.5-0.7-1.3-0.7-2.3v-5.5h1.4v5.5
			c0,1.3,0.5,1.9,1.6,1.9c1.1,0,1.8-0.4,2.2-1.2v-6.1h1.4v8.5h-1.4L1019,3960.9z"/>
		<path class="st13" d="M1027.6,3959.5c0-0.4-0.1-0.7-0.4-0.9c-0.3-0.2-0.8-0.4-1.5-0.6c-0.7-0.2-1.3-0.3-1.7-0.6s-0.7-0.5-1-0.8
			c-0.2-0.3-0.3-0.7-0.3-1.1c0-0.7,0.3-1.3,0.9-1.8s1.3-0.7,2.2-0.7c1,0,1.7,0.2,2.3,0.7c0.6,0.5,0.9,1.1,0.9,1.9h-1.5
			c0-0.4-0.2-0.7-0.5-1s-0.8-0.4-1.3-0.4c-0.5,0-0.9,0.1-1.2,0.3s-0.4,0.5-0.4,0.9c0,0.3,0.1,0.6,0.4,0.8c0.3,0.2,0.8,0.3,1.5,0.5
			c0.7,0.2,1.3,0.4,1.8,0.6c0.4,0.2,0.8,0.5,1,0.8c0.2,0.3,0.3,0.7,0.3,1.2c0,0.8-0.3,1.4-0.9,1.8c-0.6,0.5-1.4,0.7-2.4,0.7
			c-0.7,0-1.3-0.1-1.8-0.4c-0.5-0.2-0.9-0.6-1.2-1c-0.3-0.4-0.4-0.9-0.4-1.4h1.4c0,0.5,0.2,0.9,0.6,1.2c0.4,0.3,0.8,0.4,1.4,0.4
			c0.5,0,1-0.1,1.3-0.3C1027.4,3960.1,1027.6,3959.8,1027.6,3959.5z"/>
		<path class="st13" d="M1032.9,3951.2v2h1.6v1.1h-1.6v5.2c0,0.3,0.1,0.6,0.2,0.8c0.1,0.2,0.4,0.3,0.7,0.3c0.2,0,0.4,0,0.7-0.1v1.2
			c-0.4,0.1-0.8,0.2-1.1,0.2c-0.6,0-1.1-0.2-1.5-0.6s-0.5-0.9-0.5-1.7v-5.2h-1.5v-1.1h1.5v-2H1032.9z"/>
		<path class="st13" d="M1040.2,3954.5c-0.2,0-0.5-0.1-0.7-0.1c-0.9,0-1.6,0.4-1.9,1.2v6h-1.4v-8.5h1.4l0,1c0.5-0.8,1.1-1.1,2-1.1
			c0.3,0,0.5,0,0.6,0.1V3954.5z"/>
		<path class="st13" d="M1041.5,3951c0-0.2,0.1-0.4,0.2-0.6c0.1-0.2,0.4-0.2,0.6-0.2s0.5,0.1,0.6,0.2c0.1,0.2,0.2,0.4,0.2,0.6
			s-0.1,0.4-0.2,0.6c-0.1,0.2-0.4,0.2-0.6,0.2s-0.5-0.1-0.6-0.2C1041.6,3951.4,1041.5,3951.2,1041.5,3951z M1043.1,3961.7h-1.4v-8.5
			h1.4V3961.7z"/>
		<path class="st13" d="M1050.6,3961.7c-0.1-0.2-0.2-0.5-0.2-0.9c-0.7,0.7-1.5,1-2.4,1c-0.8,0-1.5-0.2-2.1-0.7
			c-0.5-0.5-0.8-1.1-0.8-1.8c0-0.9,0.3-1.6,1-2.1c0.7-0.5,1.6-0.7,2.8-0.7h1.4v-0.7c0-0.5-0.2-0.9-0.5-1.2c-0.3-0.3-0.7-0.4-1.3-0.4
			c-0.5,0-0.9,0.1-1.3,0.4c-0.3,0.3-0.5,0.6-0.5,0.9h-1.5c0-0.4,0.1-0.8,0.4-1.2c0.3-0.4,0.7-0.7,1.2-0.9c0.5-0.2,1.1-0.3,1.7-0.3
			c1,0,1.7,0.2,2.3,0.7c0.6,0.5,0.8,1.2,0.9,2v3.9c0,0.8,0.1,1.4,0.3,1.9v0.1H1050.6z M1048.2,3960.6c0.5,0,0.9-0.1,1.3-0.4
			s0.7-0.5,0.9-0.9v-1.7h-1.1c-1.8,0-2.7,0.5-2.7,1.6c0,0.5,0.2,0.8,0.5,1.1C1047.4,3960.5,1047.8,3960.6,1048.2,3960.6z"/>
		<path class="st13" d="M1055.7,3961.7h-1.4v-12h1.4V3961.7z"/>
		<path class="st13" d="M1058,3960.9c0-0.2,0.1-0.5,0.2-0.6s0.4-0.2,0.7-0.2s0.5,0.1,0.7,0.2c0.2,0.2,0.2,0.4,0.2,0.6
			c0,0.2-0.1,0.4-0.2,0.6c-0.2,0.2-0.4,0.2-0.7,0.2s-0.5-0.1-0.7-0.2S1058,3961.2,1058,3960.9z"/>
	</g>
	<g class="st11">
		<path class="st13" d="M315.9,3796.1h-4.5v3.1h5.3v1.9H309v-11.4h7.6v1.9h-5.3v2.7h4.5V3796.1z"/>
		<path class="st13" d="M320.2,3801H318v-12h2.3V3801z"/>
		<path class="st13" d="M329.6,3799.3c0.4,0,0.8-0.1,1-0.3c0.3-0.2,0.4-0.5,0.4-0.9h2.1c0,0.6-0.2,1.1-0.5,1.6
			c-0.3,0.5-0.7,0.8-1.3,1.1c-0.5,0.3-1.1,0.4-1.8,0.4c-1.2,0-2.2-0.4-2.9-1.2c-0.7-0.8-1-1.8-1-3.2v-0.1c0-1.3,0.3-2.3,1-3.1
			c0.7-0.8,1.6-1.2,2.9-1.2c1.1,0,1.9,0.3,2.5,0.9c0.6,0.6,1,1.4,1,2.4H331c0-0.4-0.1-0.8-0.4-1.1c-0.3-0.3-0.6-0.4-1-0.4
			c-0.5,0-0.9,0.2-1.2,0.6c-0.3,0.4-0.4,1-0.4,1.9v0.2c0,0.9,0.1,1.5,0.4,1.9S329.1,3799.3,329.6,3799.3z"/>
		<path class="st13" d="M339.3,3801c-0.1-0.2-0.2-0.5-0.2-0.8c-0.5,0.6-1.3,0.9-2.1,0.9c-0.8,0-1.5-0.2-2.1-0.7
			c-0.5-0.5-0.8-1.1-0.8-1.8c0-0.9,0.3-1.6,1-2.1s1.6-0.7,2.9-0.7h1v-0.5c0-0.4-0.1-0.7-0.3-0.9c-0.2-0.2-0.5-0.4-0.9-0.4
			c-0.4,0-0.7,0.1-0.9,0.3c-0.2,0.2-0.3,0.4-0.3,0.8h-2.3c0-0.5,0.2-0.9,0.5-1.4c0.3-0.4,0.7-0.7,1.3-1c0.6-0.2,1.2-0.4,1.9-0.4
			c1,0,1.9,0.3,2.5,0.8c0.6,0.5,0.9,1.3,0.9,2.2v3.7c0,0.8,0.1,1.4,0.3,1.8v0.1H339.3z M337.5,3799.4c0.3,0,0.6-0.1,0.9-0.2
			s0.5-0.3,0.6-0.6v-1.5h-0.8c-1.1,0-1.7,0.4-1.8,1.2l0,0.1c0,0.3,0.1,0.5,0.3,0.7C336.9,3799.3,337.1,3799.4,337.5,3799.4z"/>
		<path class="st13" d="M342.7,3796.7c0-1.3,0.3-2.4,0.9-3.1c0.6-0.8,1.4-1.2,2.4-1.2c0.8,0,1.5,0.3,2,0.9v-4.3h2.3v12h-2l-0.1-0.9
			c-0.6,0.7-1.3,1.1-2.2,1.1c-1,0-1.8-0.4-2.4-1.2S342.7,3798.1,342.7,3796.7z M344.9,3796.9c0,0.8,0.1,1.4,0.4,1.8
			c0.3,0.4,0.7,0.6,1.2,0.6c0.7,0,1.2-0.3,1.5-0.9v-3.4c-0.3-0.6-0.8-0.9-1.5-0.9C345.5,3794.2,344.9,3795.1,344.9,3796.9z"/>
		<path class="st13" d="M357.1,3800.1c-0.6,0.7-1.3,1-2.3,1c-0.9,0-1.6-0.3-2.1-0.8s-0.7-1.3-0.7-2.3v-5.5h2.3v5.5
			c0,0.9,0.4,1.3,1.2,1.3c0.8,0,1.3-0.3,1.6-0.8v-6h2.3v8.5h-2.1L357.1,3800.1z"/>
		<path class="st13" d="M364.5,3799.3c0.4,0,0.8-0.1,1-0.3c0.3-0.2,0.4-0.5,0.4-0.9h2.1c0,0.6-0.2,1.1-0.5,1.6
			c-0.3,0.5-0.7,0.8-1.3,1.1c-0.5,0.3-1.1,0.4-1.8,0.4c-1.2,0-2.2-0.4-2.9-1.2c-0.7-0.8-1-1.8-1-3.2v-0.1c0-1.3,0.3-2.3,1-3.1
			c0.7-0.8,1.6-1.2,2.9-1.2c1.1,0,1.9,0.3,2.5,0.9c0.6,0.6,1,1.4,1,2.4h-2.1c0-0.4-0.1-0.8-0.4-1.1c-0.3-0.3-0.6-0.4-1-0.4
			c-0.5,0-0.9,0.2-1.2,0.6c-0.3,0.4-0.4,1-0.4,1.9v0.2c0,0.9,0.1,1.5,0.4,1.9S364,3799.3,364.5,3799.3z"/>
		<path class="st13" d="M373.2,3801.2c-1.2,0-2.2-0.4-3-1.1c-0.8-0.8-1.2-1.8-1.2-3v-0.2c0-0.8,0.2-1.6,0.5-2.3s0.8-1.2,1.4-1.5
			s1.3-0.5,2.1-0.5c1.2,0,2.1,0.4,2.7,1.1s1,1.8,1,3.1v0.9h-5.4c0.1,0.6,0.3,1,0.7,1.3s0.8,0.5,1.4,0.5c0.9,0,1.5-0.3,2-0.9l1.1,1.2
			c-0.3,0.5-0.8,0.9-1.4,1.1S373.9,3801.2,373.2,3801.2z M373,3794.2c-0.4,0-0.8,0.2-1.1,0.5c-0.3,0.3-0.5,0.7-0.5,1.3h3.1v-0.2
			c0-0.5-0.1-0.9-0.4-1.2C373.8,3794.3,373.4,3794.2,373,3794.2z"/>
		<path class="st13" d="M377.6,3796.7c0-0.8,0.2-1.6,0.5-2.2c0.3-0.7,0.8-1.2,1.4-1.5c0.6-0.4,1.3-0.5,2.1-0.5c1.1,0,2.1,0.3,2.8,1
			c0.7,0.7,1.1,1.6,1.2,2.8l0,0.6c0,1.3-0.4,2.3-1.1,3.1c-0.7,0.8-1.7,1.2-2.9,1.2s-2.2-0.4-2.9-1.2s-1.1-1.8-1.1-3.2V3796.7z
			 M379.9,3796.9c0,0.8,0.2,1.4,0.5,1.8c0.3,0.4,0.7,0.6,1.3,0.6c0.5,0,1-0.2,1.3-0.6c0.3-0.4,0.5-1.1,0.5-2c0-0.8-0.2-1.4-0.5-1.8
			c-0.3-0.4-0.7-0.6-1.3-0.6c-0.6,0-1,0.2-1.3,0.6C380,3795.3,379.9,3796,379.9,3796.9z"/>
	</g>
	<g class="st11">
		<path class="st13" d="M387.2,3803.3l-0.8-0.6c0.5-0.7,0.7-1.4,0.8-2.1v-1.3h1.4v1.1c0,0.5-0.1,1.1-0.4,1.6
			S387.6,3802.9,387.2,3803.3z"/>
		<path class="st13" d="M399.6,3801c-0.1-0.2-0.2-0.5-0.2-0.9c-0.7,0.7-1.5,1-2.4,1c-0.8,0-1.5-0.2-2.1-0.7
			c-0.5-0.5-0.8-1.1-0.8-1.8c0-0.9,0.3-1.6,1-2.1c0.7-0.5,1.6-0.7,2.8-0.7h1.4v-0.7c0-0.5-0.2-0.9-0.5-1.2c-0.3-0.3-0.7-0.4-1.3-0.4
			c-0.5,0-0.9,0.1-1.3,0.4c-0.3,0.3-0.5,0.6-0.5,0.9h-1.5c0-0.4,0.1-0.8,0.4-1.2c0.3-0.4,0.7-0.7,1.2-0.9c0.5-0.2,1.1-0.3,1.7-0.3
			c1,0,1.7,0.2,2.3,0.7c0.6,0.5,0.8,1.2,0.9,2v3.9c0,0.8,0.1,1.4,0.3,1.9v0.1H399.6z M397.2,3799.9c0.5,0,0.9-0.1,1.3-0.4
			s0.7-0.5,0.9-0.9v-1.7h-1.1c-1.8,0-2.7,0.5-2.7,1.6c0,0.5,0.2,0.8,0.5,1.1C396.3,3799.8,396.7,3799.9,397.2,3799.9z"/>
		<path class="st13" d="M408,3798.8c0-0.4-0.1-0.7-0.4-0.9c-0.3-0.2-0.8-0.4-1.5-0.6c-0.7-0.2-1.3-0.3-1.7-0.6s-0.7-0.5-1-0.8
			c-0.2-0.3-0.3-0.7-0.3-1.1c0-0.7,0.3-1.3,0.9-1.8s1.3-0.7,2.2-0.7c1,0,1.7,0.2,2.3,0.7c0.6,0.5,0.9,1.1,0.9,1.9h-1.5
			c0-0.4-0.2-0.7-0.5-1s-0.8-0.4-1.3-0.4c-0.5,0-0.9,0.1-1.2,0.3s-0.4,0.5-0.4,0.9c0,0.3,0.1,0.6,0.4,0.8c0.3,0.2,0.8,0.3,1.5,0.5
			c0.7,0.2,1.3,0.4,1.8,0.6c0.4,0.2,0.8,0.5,1,0.8c0.2,0.3,0.3,0.7,0.3,1.2c0,0.8-0.3,1.4-0.9,1.8c-0.6,0.5-1.4,0.7-2.4,0.7
			c-0.7,0-1.3-0.1-1.8-0.4c-0.5-0.2-0.9-0.6-1.2-1c-0.3-0.4-0.4-0.9-0.4-1.4h1.4c0,0.5,0.2,0.9,0.6,1.2c0.4,0.3,0.8,0.4,1.4,0.4
			c0.5,0,1-0.1,1.3-0.3C407.8,3799.4,408,3799.1,408,3798.8z"/>
		<path class="st13" d="M410.9,3796.7c0-0.8,0.2-1.6,0.5-2.2c0.3-0.7,0.8-1.2,1.4-1.5c0.6-0.4,1.2-0.5,2-0.5c1.2,0,2.1,0.4,2.8,1.2
			s1.1,1.9,1.1,3.2v0.1c0,0.8-0.2,1.6-0.5,2.2c-0.3,0.7-0.8,1.2-1.4,1.5s-1.3,0.5-2,0.5c-1.1,0-2.1-0.4-2.8-1.2s-1.1-1.9-1.1-3.2
			V3796.7z M412.4,3796.9c0,0.9,0.2,1.7,0.7,2.3c0.4,0.6,1,0.9,1.7,0.9c0.7,0,1.3-0.3,1.8-0.9c0.4-0.6,0.6-1.4,0.6-2.4
			c0-0.9-0.2-1.7-0.7-2.3c-0.4-0.6-1-0.9-1.8-0.9c-0.7,0-1.3,0.3-1.7,0.9S412.4,3795.8,412.4,3796.9z"/>
		<path class="st13" d="M423.8,3800c0.5,0,1-0.2,1.4-0.5c0.4-0.3,0.6-0.7,0.6-1.2h1.4c0,0.5-0.2,0.9-0.5,1.4c-0.3,0.4-0.7,0.8-1.2,1
			c-0.5,0.3-1.1,0.4-1.6,0.4c-1.2,0-2.1-0.4-2.7-1.2s-1-1.8-1-3.2v-0.2c0-0.8,0.2-1.6,0.5-2.2c0.3-0.6,0.7-1.1,1.3-1.5
			c0.6-0.4,1.2-0.5,2-0.5c0.9,0,1.7,0.3,2.4,0.9c0.6,0.6,1,1.3,1,2.2h-1.4c0-0.5-0.2-1-0.6-1.3c-0.4-0.4-0.8-0.5-1.4-0.5
			c-0.7,0-1.3,0.3-1.7,0.8c-0.4,0.5-0.6,1.3-0.6,2.3v0.3c0,1,0.2,1.7,0.6,2.2C422.5,3799.7,423.1,3800,423.8,3800z"/>
		<path class="st13" d="M428.8,3790.3c0-0.2,0.1-0.4,0.2-0.6c0.1-0.2,0.4-0.2,0.6-0.2s0.5,0.1,0.6,0.2c0.1,0.2,0.2,0.4,0.2,0.6
			s-0.1,0.4-0.2,0.6c-0.1,0.2-0.4,0.2-0.6,0.2s-0.5-0.1-0.6-0.2C428.9,3790.7,428.8,3790.5,428.8,3790.3z M430.4,3801h-1.4v-8.5h1.4
			V3801z"/>
		<path class="st13" d="M437.9,3801c-0.1-0.2-0.2-0.5-0.2-0.9c-0.7,0.7-1.5,1-2.4,1c-0.8,0-1.5-0.2-2.1-0.7
			c-0.5-0.5-0.8-1.1-0.8-1.8c0-0.9,0.3-1.6,1-2.1c0.7-0.5,1.6-0.7,2.8-0.7h1.4v-0.7c0-0.5-0.2-0.9-0.5-1.2c-0.3-0.3-0.7-0.4-1.3-0.4
			c-0.5,0-0.9,0.1-1.3,0.4c-0.3,0.3-0.5,0.6-0.5,0.9h-1.5c0-0.4,0.1-0.8,0.4-1.2c0.3-0.4,0.7-0.7,1.2-0.9c0.5-0.2,1.1-0.3,1.7-0.3
			c1,0,1.7,0.2,2.3,0.7c0.6,0.5,0.8,1.2,0.9,2v3.9c0,0.8,0.1,1.4,0.3,1.9v0.1H437.9z M435.5,3799.9c0.5,0,0.9-0.1,1.3-0.4
			s0.7-0.5,0.9-0.9v-1.7h-1.1c-1.8,0-2.7,0.5-2.7,1.6c0,0.5,0.2,0.8,0.5,1.1C434.6,3799.8,435,3799.9,435.5,3799.9z"/>
		<path class="st13" d="M441,3796.7c0-1.3,0.3-2.3,0.9-3.1c0.6-0.8,1.4-1.2,2.4-1.2c1,0,1.8,0.3,2.4,1v-4.4h1.4v12h-1.3l-0.1-0.9
			c-0.6,0.7-1.4,1.1-2.4,1.1c-1,0-1.8-0.4-2.4-1.2s-0.9-1.8-0.9-3.1V3796.7z M442.5,3796.9c0,1,0.2,1.7,0.6,2.2
			c0.4,0.5,0.9,0.8,1.6,0.8c0.9,0,1.6-0.4,2-1.2v-3.9c-0.4-0.8-1.1-1.2-2-1.2c-0.7,0-1.3,0.3-1.7,0.8
			C442.7,3795,442.5,3795.8,442.5,3796.9z"/>
		<path class="st13" d="M450,3796.7c0-0.8,0.2-1.6,0.5-2.2c0.3-0.7,0.8-1.2,1.4-1.5c0.6-0.4,1.2-0.5,2-0.5c1.2,0,2.1,0.4,2.8,1.2
			s1.1,1.9,1.1,3.2v0.1c0,0.8-0.2,1.6-0.5,2.2c-0.3,0.7-0.8,1.2-1.4,1.5s-1.3,0.5-2,0.5c-1.1,0-2.1-0.4-2.8-1.2s-1.1-1.9-1.1-3.2
			V3796.7z M451.5,3796.9c0,0.9,0.2,1.7,0.7,2.3c0.4,0.6,1,0.9,1.7,0.9c0.7,0,1.3-0.3,1.8-0.9c0.4-0.6,0.6-1.4,0.6-2.4
			c0-0.9-0.2-1.7-0.7-2.3c-0.4-0.6-1-0.9-1.8-0.9c-0.7,0-1.3,0.3-1.7,0.9S451.5,3795.8,451.5,3796.9z"/>
		<path class="st13" d="M468.7,3801c-0.1-0.2-0.2-0.5-0.2-0.9c-0.7,0.7-1.5,1-2.4,1c-0.8,0-1.5-0.2-2.1-0.7
			c-0.5-0.5-0.8-1.1-0.8-1.8c0-0.9,0.3-1.6,1-2.1c0.7-0.5,1.6-0.7,2.8-0.7h1.4v-0.7c0-0.5-0.2-0.9-0.5-1.2c-0.3-0.3-0.7-0.4-1.3-0.4
			c-0.5,0-0.9,0.1-1.3,0.4c-0.3,0.3-0.5,0.6-0.5,0.9h-1.5c0-0.4,0.1-0.8,0.4-1.2c0.3-0.4,0.7-0.7,1.2-0.9c0.5-0.2,1.1-0.3,1.7-0.3
			c1,0,1.7,0.2,2.3,0.7c0.6,0.5,0.8,1.2,0.9,2v3.9c0,0.8,0.1,1.4,0.3,1.9v0.1H468.7z M466.3,3799.9c0.5,0,0.9-0.1,1.3-0.4
			s0.7-0.5,0.9-0.9v-1.7h-1.1c-1.8,0-2.7,0.5-2.7,1.6c0,0.5,0.2,0.8,0.5,1.1C465.5,3799.8,465.8,3799.9,466.3,3799.9z"/>
		<path class="st13" d="M473.8,3801h-1.4v-12h1.4V3801z"/>
		<path class="st13" d="M479.7,3796.7c0-1.3,0.3-2.3,0.9-3.1c0.6-0.8,1.4-1.2,2.4-1.2c1,0,1.8,0.3,2.4,1v-4.4h1.4v12h-1.3l-0.1-0.9
			c-0.6,0.7-1.4,1.1-2.4,1.1c-1,0-1.8-0.4-2.4-1.2s-0.9-1.8-0.9-3.1V3796.7z M481.1,3796.9c0,1,0.2,1.7,0.6,2.2
			c0.4,0.5,0.9,0.8,1.6,0.8c0.9,0,1.6-0.4,2-1.2v-3.9c-0.4-0.8-1.1-1.2-2-1.2c-0.7,0-1.3,0.3-1.7,0.8
			C481.3,3795,481.1,3795.8,481.1,3796.9z"/>
		<path class="st13" d="M492.6,3801.2c-1.1,0-2.1-0.4-2.8-1.1s-1.1-1.8-1.1-3v-0.3c0-0.8,0.2-1.6,0.5-2.2s0.8-1.2,1.3-1.5
			c0.6-0.4,1.2-0.6,1.9-0.6c1.1,0,2,0.4,2.6,1.1s0.9,1.8,0.9,3.1v0.6h-5.7c0,0.8,0.3,1.5,0.7,2c0.5,0.5,1.1,0.8,1.8,0.8
			c0.5,0,0.9-0.1,1.3-0.3c0.4-0.2,0.7-0.5,0.9-0.8l0.9,0.7C495.1,3800.6,494,3801.2,492.6,3801.2z M492.4,3793.6
			c-0.6,0-1.1,0.2-1.5,0.6c-0.4,0.4-0.6,1-0.7,1.8h4.2v-0.1c0-0.7-0.2-1.3-0.6-1.7C493.5,3793.8,493,3793.6,492.4,3793.6z"/>
	</g>
	<g class="st11">
		<path class="st13" d="M312.5,3824c0.5,0,1-0.2,1.4-0.5c0.4-0.3,0.6-0.7,0.6-1.2h1.4c0,0.5-0.2,0.9-0.5,1.4c-0.3,0.4-0.7,0.8-1.2,1
			c-0.5,0.3-1.1,0.4-1.6,0.4c-1.2,0-2.1-0.4-2.7-1.2s-1-1.8-1-3.2v-0.2c0-0.8,0.2-1.6,0.5-2.2c0.3-0.6,0.7-1.1,1.3-1.5
			c0.6-0.4,1.2-0.5,2-0.5c0.9,0,1.7,0.3,2.4,0.9c0.6,0.6,1,1.3,1,2.2h-1.4c0-0.5-0.2-1-0.6-1.3c-0.4-0.4-0.8-0.5-1.4-0.5
			c-0.7,0-1.3,0.3-1.7,0.8c-0.4,0.5-0.6,1.3-0.6,2.3v0.3c0,1,0.2,1.7,0.6,2.2C311.2,3823.7,311.7,3824,312.5,3824z"/>
		<path class="st13" d="M317.1,3820.7c0-0.8,0.2-1.6,0.5-2.2c0.3-0.7,0.8-1.2,1.4-1.5c0.6-0.4,1.2-0.5,2-0.5c1.2,0,2.1,0.4,2.8,1.2
			s1.1,1.9,1.1,3.2v0.1c0,0.8-0.2,1.6-0.5,2.2c-0.3,0.7-0.8,1.2-1.4,1.5s-1.3,0.5-2,0.5c-1.1,0-2.1-0.4-2.8-1.2s-1.1-1.9-1.1-3.2
			V3820.7z M318.5,3820.9c0,0.9,0.2,1.7,0.7,2.3c0.4,0.6,1,0.9,1.7,0.9c0.7,0,1.3-0.3,1.8-0.9c0.4-0.6,0.6-1.4,0.6-2.4
			c0-0.9-0.2-1.7-0.7-2.3c-0.4-0.6-1-0.9-1.8-0.9c-0.7,0-1.3,0.3-1.7,0.9S318.5,3819.8,318.5,3820.9z"/>
		<path class="st13" d="M328,3816.5l0,0.9c0.6-0.7,1.5-1.1,2.5-1.1c1.2,0,2,0.5,2.4,1.4c0.3-0.4,0.6-0.7,1.1-1
			c0.5-0.2,1-0.4,1.6-0.4c1.9,0,2.8,1,2.8,2.9v5.7H337v-5.6c0-0.6-0.1-1.1-0.4-1.4c-0.3-0.3-0.7-0.4-1.4-0.4c-0.5,0-1,0.2-1.3,0.5
			c-0.4,0.3-0.6,0.8-0.6,1.3v5.6h-1.5v-5.5c0-1.2-0.6-1.8-1.8-1.8c-0.9,0-1.6,0.4-1.9,1.2v6.2h-1.4v-8.5H328z"/>
		<path class="st13" d="M344.1,3825.2c-1.1,0-2.1-0.4-2.8-1.1s-1.1-1.8-1.1-3v-0.3c0-0.8,0.2-1.6,0.5-2.2s0.8-1.2,1.3-1.5
			c0.6-0.4,1.2-0.6,1.9-0.6c1.1,0,2,0.4,2.6,1.1s0.9,1.8,0.9,3.1v0.6h-5.7c0,0.8,0.3,1.5,0.7,2c0.5,0.5,1.1,0.8,1.8,0.8
			c0.5,0,0.9-0.1,1.3-0.3c0.4-0.2,0.7-0.5,0.9-0.8l0.9,0.7C346.6,3824.6,345.5,3825.2,344.1,3825.2z M343.9,3817.6
			c-0.6,0-1.1,0.2-1.5,0.6c-0.4,0.4-0.6,1-0.7,1.8h4.2v-0.1c0-0.7-0.2-1.3-0.6-1.7C345,3817.8,344.5,3817.6,343.9,3817.6z"/>
		<path class="st13" d="M353.2,3817.8c-0.2,0-0.5-0.1-0.7-0.1c-0.9,0-1.6,0.4-1.9,1.2v6h-1.4v-8.5h1.4l0,1c0.5-0.8,1.1-1.1,2-1.1
			c0.3,0,0.5,0,0.6,0.1V3817.8z"/>
		<path class="st13" d="M357.8,3824c0.5,0,1-0.2,1.4-0.5c0.4-0.3,0.6-0.7,0.6-1.2h1.4c0,0.5-0.2,0.9-0.5,1.4c-0.3,0.4-0.7,0.8-1.2,1
			c-0.5,0.3-1.1,0.4-1.6,0.4c-1.2,0-2.1-0.4-2.7-1.2s-1-1.8-1-3.2v-0.2c0-0.8,0.2-1.6,0.5-2.2c0.3-0.6,0.7-1.1,1.3-1.5
			c0.6-0.4,1.2-0.5,2-0.5c0.9,0,1.7,0.3,2.4,0.9c0.6,0.6,1,1.3,1,2.2h-1.4c0-0.5-0.2-1-0.6-1.3c-0.4-0.4-0.8-0.5-1.4-0.5
			c-0.7,0-1.3,0.3-1.7,0.8c-0.4,0.5-0.6,1.3-0.6,2.3v0.3c0,1,0.2,1.7,0.6,2.2C356.4,3823.7,357,3824,357.8,3824z"/>
		<path class="st13" d="M362.7,3814.3c0-0.2,0.1-0.4,0.2-0.6c0.1-0.2,0.4-0.2,0.6-0.2s0.5,0.1,0.6,0.2c0.1,0.2,0.2,0.4,0.2,0.6
			s-0.1,0.4-0.2,0.6c-0.1,0.2-0.4,0.2-0.6,0.2s-0.5-0.1-0.6-0.2C362.8,3814.7,362.7,3814.5,362.7,3814.3z M364.3,3825h-1.4v-8.5h1.4
			V3825z"/>
		<path class="st13" d="M366.2,3820.7c0-0.8,0.2-1.6,0.5-2.2c0.3-0.7,0.8-1.2,1.4-1.5c0.6-0.4,1.2-0.5,2-0.5c1.2,0,2.1,0.4,2.8,1.2
			s1.1,1.9,1.1,3.2v0.1c0,0.8-0.2,1.6-0.5,2.2c-0.3,0.7-0.8,1.2-1.4,1.5s-1.3,0.5-2,0.5c-1.1,0-2.1-0.4-2.8-1.2s-1.1-1.9-1.1-3.2
			V3820.7z M367.7,3820.9c0,0.9,0.2,1.7,0.7,2.3c0.4,0.6,1,0.9,1.7,0.9c0.7,0,1.3-0.3,1.8-0.9c0.4-0.6,0.6-1.4,0.6-2.4
			c0-0.9-0.2-1.7-0.7-2.3c-0.4-0.6-1-0.9-1.8-0.9c-0.7,0-1.3,0.3-1.7,0.9S367.7,3819.8,367.7,3820.9z"/>
		<path class="st13" d="M382.5,3822.9l2-6.3h1.5l-3.4,9.8c-0.5,1.4-1.4,2.1-2.5,2.1l-0.3,0l-0.5-0.1v-1.2l0.4,0
			c0.5,0,0.9-0.1,1.1-0.3s0.5-0.6,0.7-1.1l0.3-0.9l-3-8.4h1.6L382.5,3822.9z"/>
		<path class="st13" d="M396.2,3822.8c0-0.4-0.1-0.7-0.4-0.9c-0.3-0.2-0.8-0.4-1.5-0.6c-0.7-0.2-1.3-0.3-1.7-0.6s-0.7-0.5-1-0.8
			c-0.2-0.3-0.3-0.7-0.3-1.1c0-0.7,0.3-1.3,0.9-1.8s1.3-0.7,2.2-0.7c1,0,1.7,0.2,2.3,0.7c0.6,0.5,0.9,1.1,0.9,1.9h-1.5
			c0-0.4-0.2-0.7-0.5-1s-0.8-0.4-1.3-0.4c-0.5,0-0.9,0.1-1.2,0.3s-0.4,0.5-0.4,0.9c0,0.3,0.1,0.6,0.4,0.8c0.3,0.2,0.8,0.3,1.5,0.5
			c0.7,0.2,1.3,0.4,1.8,0.6c0.4,0.2,0.8,0.5,1,0.8c0.2,0.3,0.3,0.7,0.3,1.2c0,0.8-0.3,1.4-0.9,1.8c-0.6,0.5-1.4,0.7-2.4,0.7
			c-0.7,0-1.3-0.1-1.8-0.4c-0.5-0.2-0.9-0.6-1.2-1c-0.3-0.4-0.4-0.9-0.4-1.4h1.4c0,0.5,0.2,0.9,0.6,1.2c0.4,0.3,0.8,0.4,1.4,0.4
			c0.5,0,1-0.1,1.3-0.3C396,3823.4,396.2,3823.1,396.2,3822.8z"/>
		<path class="st13" d="M403,3825.2c-1.1,0-2.1-0.4-2.8-1.1s-1.1-1.8-1.1-3v-0.3c0-0.8,0.2-1.6,0.5-2.2s0.8-1.2,1.3-1.5
			c0.6-0.4,1.2-0.6,1.9-0.6c1.1,0,2,0.4,2.6,1.1s0.9,1.8,0.9,3.1v0.6h-5.7c0,0.8,0.3,1.5,0.7,2c0.5,0.5,1.1,0.8,1.8,0.8
			c0.5,0,0.9-0.1,1.3-0.3c0.4-0.2,0.7-0.5,0.9-0.8l0.9,0.7C405.5,3824.6,404.4,3825.2,403,3825.2z M402.8,3817.6
			c-0.6,0-1.1,0.2-1.5,0.6c-0.4,0.4-0.6,1-0.7,1.8h4.2v-0.1c0-0.7-0.2-1.3-0.6-1.7C403.9,3817.8,403.4,3817.6,402.8,3817.6z"/>
		<path class="st13" d="M412,3817.8c-0.2,0-0.5-0.1-0.7-0.1c-0.9,0-1.6,0.4-1.9,1.2v6H408v-8.5h1.4l0,1c0.5-0.8,1.1-1.1,2-1.1
			c0.3,0,0.5,0,0.6,0.1V3817.8z"/>
		<path class="st13" d="M416.3,3823l2.1-6.5h1.5l-3,8.5h-1.1l-3.1-8.5h1.5L416.3,3823z"/>
		<path class="st13" d="M421.3,3814.3c0-0.2,0.1-0.4,0.2-0.6c0.1-0.2,0.4-0.2,0.6-0.2s0.5,0.1,0.6,0.2c0.1,0.2,0.2,0.4,0.2,0.6
			s-0.1,0.4-0.2,0.6c-0.1,0.2-0.4,0.2-0.6,0.2s-0.5-0.1-0.6-0.2C421.3,3814.7,421.3,3814.5,421.3,3814.3z M422.8,3825h-1.4v-8.5h1.4
			V3825z"/>
		<path class="st13" d="M428.5,3824c0.5,0,1-0.2,1.4-0.5c0.4-0.3,0.6-0.7,0.6-1.2h1.4c0,0.5-0.2,0.9-0.5,1.4c-0.3,0.4-0.7,0.8-1.2,1
			c-0.5,0.3-1.1,0.4-1.6,0.4c-1.2,0-2.1-0.4-2.7-1.2s-1-1.8-1-3.2v-0.2c0-0.8,0.2-1.6,0.5-2.2c0.3-0.6,0.7-1.1,1.3-1.5
			c0.6-0.4,1.2-0.5,2-0.5c0.9,0,1.7,0.3,2.4,0.9c0.6,0.6,1,1.3,1,2.2h-1.4c0-0.5-0.2-1-0.6-1.3c-0.4-0.4-0.8-0.5-1.4-0.5
			c-0.7,0-1.3,0.3-1.7,0.8c-0.4,0.5-0.6,1.3-0.6,2.3v0.3c0,1,0.2,1.7,0.6,2.2C427.2,3823.7,427.8,3824,428.5,3824z"/>
		<path class="st13" d="M433.5,3814.3c0-0.2,0.1-0.4,0.2-0.6c0.1-0.2,0.4-0.2,0.6-0.2s0.5,0.1,0.6,0.2c0.1,0.2,0.2,0.4,0.2,0.6
			s-0.1,0.4-0.2,0.6c-0.1,0.2-0.4,0.2-0.6,0.2s-0.5-0.1-0.6-0.2C433.6,3814.7,433.5,3814.5,433.5,3814.3z M435.1,3825h-1.4v-8.5h1.4
			V3825z"/>
		<path class="st13" d="M437,3820.7c0-0.8,0.2-1.6,0.5-2.2c0.3-0.7,0.8-1.2,1.4-1.5c0.6-0.4,1.2-0.5,2-0.5c1.2,0,2.1,0.4,2.8,1.2
			s1.1,1.9,1.1,3.2v0.1c0,0.8-0.2,1.6-0.5,2.2c-0.3,0.7-0.8,1.2-1.4,1.5s-1.3,0.5-2,0.5c-1.1,0-2.1-0.4-2.8-1.2s-1.1-1.9-1.1-3.2
			V3820.7z M438.5,3820.9c0,0.9,0.2,1.7,0.7,2.3c0.4,0.6,1,0.9,1.7,0.9c0.7,0,1.3-0.3,1.8-0.9c0.4-0.6,0.6-1.4,0.6-2.4
			c0-0.9-0.2-1.7-0.7-2.3c-0.4-0.6-1-0.9-1.8-0.9c-0.7,0-1.3,0.3-1.7,0.9S438.5,3819.8,438.5,3820.9z"/>
		<path class="st13" d="M451.5,3822.8c0-0.4-0.1-0.7-0.4-0.9c-0.3-0.2-0.8-0.4-1.5-0.6c-0.7-0.2-1.3-0.3-1.7-0.6s-0.7-0.5-1-0.8
			c-0.2-0.3-0.3-0.7-0.3-1.1c0-0.7,0.3-1.3,0.9-1.8s1.3-0.7,2.2-0.7c1,0,1.7,0.2,2.3,0.7c0.6,0.5,0.9,1.1,0.9,1.9h-1.5
			c0-0.4-0.2-0.7-0.5-1s-0.8-0.4-1.3-0.4c-0.5,0-0.9,0.1-1.2,0.3s-0.4,0.5-0.4,0.9c0,0.3,0.1,0.6,0.4,0.8c0.3,0.2,0.8,0.3,1.5,0.5
			c0.7,0.2,1.3,0.4,1.8,0.6c0.4,0.2,0.8,0.5,1,0.8c0.2,0.3,0.3,0.7,0.3,1.2c0,0.8-0.3,1.4-0.9,1.8c-0.6,0.5-1.4,0.7-2.4,0.7
			c-0.7,0-1.3-0.1-1.8-0.4c-0.5-0.2-0.9-0.6-1.2-1c-0.3-0.4-0.4-0.9-0.4-1.4h1.4c0,0.5,0.2,0.9,0.6,1.2c0.4,0.3,0.8,0.4,1.4,0.4
			c0.5,0,1-0.1,1.3-0.3C451.3,3823.4,451.5,3823.1,451.5,3822.8z"/>
		<path class="st13" d="M454.8,3824.2c0-0.2,0.1-0.5,0.2-0.6s0.4-0.2,0.7-0.2s0.5,0.1,0.7,0.2c0.2,0.2,0.2,0.4,0.2,0.6
			c0,0.2-0.1,0.4-0.2,0.6c-0.2,0.2-0.4,0.2-0.7,0.2s-0.5-0.1-0.7-0.2S454.8,3824.5,454.8,3824.2z"/>
	</g>
	<g class="st11">
		<path class="st13" d="M986.9,4269.4h-4.5v3.1h5.3v1.9H980v-11.4h7.6v1.9h-5.3v2.7h4.5V4269.4z"/>
		<path class="st13" d="M991.2,4274.3H989v-12h2.3V4274.3z"/>
		<path class="st13" d="M1000.6,4272.7c0.4,0,0.8-0.1,1-0.3c0.3-0.2,0.4-0.5,0.4-0.9h2.1c0,0.6-0.2,1.1-0.5,1.6
			c-0.3,0.5-0.7,0.8-1.3,1.1c-0.5,0.3-1.1,0.4-1.8,0.4c-1.2,0-2.2-0.4-2.9-1.2c-0.7-0.8-1-1.8-1-3.2v-0.1c0-1.3,0.3-2.3,1-3.1
			c0.7-0.8,1.6-1.2,2.9-1.2c1.1,0,1.9,0.3,2.5,0.9c0.6,0.6,1,1.4,1,2.4h-2.1c0-0.4-0.1-0.8-0.4-1.1c-0.3-0.3-0.6-0.4-1-0.4
			c-0.5,0-0.9,0.2-1.2,0.6c-0.3,0.4-0.4,1-0.4,1.9v0.2c0,0.9,0.1,1.5,0.4,1.9S1000.1,4272.7,1000.6,4272.7z"/>
		<path class="st13" d="M1010.3,4274.3c-0.1-0.2-0.2-0.5-0.2-0.8c-0.5,0.6-1.3,0.9-2.1,0.9c-0.8,0-1.5-0.2-2.1-0.7
			c-0.5-0.5-0.8-1.1-0.8-1.8c0-0.9,0.3-1.6,1-2.1s1.6-0.7,2.9-0.7h1v-0.5c0-0.4-0.1-0.7-0.3-0.9c-0.2-0.2-0.5-0.4-0.9-0.4
			c-0.4,0-0.7,0.1-0.9,0.3c-0.2,0.2-0.3,0.4-0.3,0.8h-2.3c0-0.5,0.2-0.9,0.5-1.4c0.3-0.4,0.7-0.7,1.3-1c0.6-0.2,1.2-0.4,1.9-0.4
			c1,0,1.9,0.3,2.5,0.8c0.6,0.5,0.9,1.3,0.9,2.2v3.7c0,0.8,0.1,1.4,0.3,1.8v0.1H1010.3z M1008.5,4272.8c0.3,0,0.6-0.1,0.9-0.2
			s0.5-0.3,0.6-0.6v-1.5h-0.8c-1.1,0-1.7,0.4-1.8,1.2l0,0.1c0,0.3,0.1,0.5,0.3,0.7C1007.9,4272.7,1008.1,4272.8,1008.5,4272.8z"/>
		<path class="st13" d="M1014.6,4274.3v-6.8h-1.3v-1.7h1.3v-0.7c0-0.9,0.3-1.7,0.8-2.2c0.5-0.5,1.3-0.8,2.3-0.8
			c0.3,0,0.7,0.1,1.1,0.2l0,1.7c-0.2,0-0.4-0.1-0.7-0.1c-0.8,0-1.3,0.4-1.3,1.2v0.7h1.7v1.7h-1.7v6.8H1014.6z"/>
		<path class="st13" d="M1023.5,4274.5c-1.2,0-2.2-0.4-3-1.1c-0.8-0.8-1.2-1.8-1.2-3v-0.2c0-0.8,0.2-1.6,0.5-2.3s0.8-1.2,1.4-1.5
			s1.3-0.5,2.1-0.5c1.2,0,2.1,0.4,2.7,1.1s1,1.8,1,3.1v0.9h-5.4c0.1,0.6,0.3,1,0.7,1.3s0.8,0.5,1.4,0.5c0.9,0,1.5-0.3,2-0.9l1.1,1.2
			c-0.3,0.5-0.8,0.9-1.4,1.1S1024.2,4274.5,1023.5,4274.5z M1023.2,4267.5c-0.4,0-0.8,0.2-1.1,0.5c-0.3,0.3-0.5,0.7-0.5,1.3h3.1
			v-0.2c0-0.5-0.1-0.9-0.4-1.2C1024,4267.7,1023.7,4267.5,1023.2,4267.5z M1023.4,4262.3h2.5l-2.2,2.4h-1.8L1023.4,4262.3z"/>
		<path class="st13" d="M1028.8,4277.2l-1.2-0.6l0.3-0.5c0.3-0.6,0.5-1.3,0.5-1.9v-1.8h1.9l0,1.6c0,0.6-0.2,1.2-0.4,1.8
			C1029.6,4276.3,1029.2,4276.8,1028.8,4277.2z"/>
	</g>
	<g class="st11">
		<path class="st13" d="M1037.9,4274.3h-1.4v-12h1.4V4274.3z"/>
		<path class="st13" d="M1040.2,4263.6c0-0.2,0.1-0.4,0.2-0.6c0.1-0.2,0.4-0.2,0.6-0.2s0.5,0.1,0.6,0.2c0.1,0.2,0.2,0.4,0.2,0.6
			s-0.1,0.4-0.2,0.6c-0.1,0.2-0.4,0.2-0.6,0.2s-0.5-0.1-0.6-0.2C1040.3,4264.1,1040.2,4263.9,1040.2,4263.6z M1041.8,4274.3h-1.4
			v-8.5h1.4V4274.3z"/>
		<path class="st13" d="M1043.7,4270c0-1.3,0.3-2.4,0.9-3.1s1.4-1.2,2.4-1.2c1,0,1.8,0.4,2.4,1.1l0.1-0.9h1.3v8.2c0,1.1-0.3,2-1,2.6
			s-1.5,0.9-2.6,0.9c-0.6,0-1.2-0.1-1.8-0.4c-0.6-0.3-1-0.6-1.3-1.1l0.8-0.9c0.6,0.8,1.4,1.1,2.3,1.1c0.7,0,1.3-0.2,1.6-0.6
			c0.4-0.4,0.6-1,0.6-1.7v-0.7c-0.6,0.7-1.4,1-2.4,1c-1,0-1.8-0.4-2.4-1.2C1044,4272.5,1043.7,4271.4,1043.7,4270z M1045.2,4270.2
			c0,1,0.2,1.7,0.6,2.2s0.9,0.8,1.6,0.8c0.9,0,1.6-0.4,2-1.2v-3.9c-0.4-0.8-1.1-1.2-2-1.2c-0.7,0-1.3,0.3-1.6,0.8
			C1045.4,4268.3,1045.2,4269.1,1045.2,4270.2z"/>
		<path class="st13" d="M1058.3,4274.3c-0.1-0.2-0.2-0.5-0.2-0.9c-0.7,0.7-1.5,1-2.4,1c-0.8,0-1.5-0.2-2.1-0.7
			c-0.5-0.5-0.8-1.1-0.8-1.8c0-0.9,0.3-1.6,1-2.1c0.7-0.5,1.6-0.7,2.8-0.7h1.4v-0.7c0-0.5-0.2-0.9-0.5-1.2c-0.3-0.3-0.7-0.4-1.3-0.4
			c-0.5,0-0.9,0.1-1.3,0.4c-0.3,0.3-0.5,0.6-0.5,0.9h-1.5c0-0.4,0.1-0.8,0.4-1.2c0.3-0.4,0.7-0.7,1.2-0.9c0.5-0.2,1.1-0.3,1.7-0.3
			c1,0,1.7,0.2,2.3,0.7c0.6,0.5,0.8,1.2,0.9,2v3.9c0,0.8,0.1,1.4,0.3,1.9v0.1H1058.3z M1055.9,4273.2c0.5,0,0.9-0.1,1.3-0.4
			s0.7-0.5,0.9-0.9v-1.7h-1.1c-1.8,0-2.7,0.5-2.7,1.6c0,0.5,0.2,0.8,0.5,1.1C1055,4273.1,1055.4,4273.2,1055.9,4273.2z"/>
		<path class="st13" d="M1061.4,4270c0-1.3,0.3-2.3,0.9-3.1c0.6-0.8,1.4-1.2,2.4-1.2c1,0,1.8,0.3,2.4,1v-4.4h1.4v12h-1.3l-0.1-0.9
			c-0.6,0.7-1.4,1.1-2.4,1.1c-1,0-1.8-0.4-2.4-1.2s-0.9-1.8-0.9-3.1V4270z M1062.8,4270.2c0,1,0.2,1.7,0.6,2.2
			c0.4,0.5,0.9,0.8,1.6,0.8c0.9,0,1.6-0.4,2-1.2v-3.9c-0.4-0.8-1.1-1.2-2-1.2c-0.7,0-1.3,0.3-1.7,0.8
			C1063,4268.3,1062.8,4269.1,1062.8,4270.2z"/>
		<path class="st13" d="M1070.4,4270c0-0.8,0.2-1.6,0.5-2.2c0.3-0.7,0.8-1.2,1.4-1.5c0.6-0.4,1.2-0.5,2-0.5c1.2,0,2.1,0.4,2.8,1.2
			s1.1,1.9,1.1,3.2v0.1c0,0.8-0.2,1.6-0.5,2.2c-0.3,0.7-0.8,1.2-1.4,1.5s-1.3,0.5-2,0.5c-1.1,0-2.1-0.4-2.8-1.2s-1.1-1.9-1.1-3.2
			V4270z M1071.8,4270.2c0,0.9,0.2,1.7,0.7,2.3c0.4,0.6,1,0.9,1.7,0.9c0.7,0,1.3-0.3,1.8-0.9c0.4-0.6,0.6-1.4,0.6-2.4
			c0-0.9-0.2-1.7-0.7-2.3c-0.4-0.6-1-0.9-1.8-0.9c-0.7,0-1.3,0.3-1.7,0.9S1071.8,4269.1,1071.8,4270.2z"/>
		<path class="st13" d="M1089.1,4274.3c-0.1-0.2-0.2-0.5-0.2-0.9c-0.7,0.7-1.5,1-2.4,1c-0.8,0-1.5-0.2-2.1-0.7
			c-0.5-0.5-0.8-1.1-0.8-1.8c0-0.9,0.3-1.6,1-2.1c0.7-0.5,1.6-0.7,2.8-0.7h1.4v-0.7c0-0.5-0.2-0.9-0.5-1.2c-0.3-0.3-0.7-0.4-1.3-0.4
			c-0.5,0-0.9,0.1-1.3,0.4c-0.3,0.3-0.5,0.6-0.5,0.9h-1.5c0-0.4,0.1-0.8,0.4-1.2c0.3-0.4,0.7-0.7,1.2-0.9c0.5-0.2,1.1-0.3,1.7-0.3
			c1,0,1.7,0.2,2.3,0.7c0.6,0.5,0.8,1.2,0.9,2v3.9c0,0.8,0.1,1.4,0.3,1.9v0.1H1089.1z M1086.7,4273.2c0.5,0,0.9-0.1,1.3-0.4
			s0.7-0.5,0.9-0.9v-1.7h-1.1c-1.8,0-2.7,0.5-2.7,1.6c0,0.5,0.2,0.8,0.5,1.1C1085.8,4273.1,1086.2,4273.2,1086.7,4273.2z"/>
		<path class="st13" d="M1094.1,4274.3h-1.4v-12h1.4V4274.3z"/>
		<path class="st13" d="M1105.3,4272.1c0-0.4-0.1-0.7-0.4-0.9c-0.3-0.2-0.8-0.4-1.5-0.6c-0.7-0.2-1.3-0.3-1.7-0.6s-0.7-0.5-1-0.8
			c-0.2-0.3-0.3-0.7-0.3-1.1c0-0.7,0.3-1.3,0.9-1.8s1.3-0.7,2.2-0.7c1,0,1.7,0.2,2.3,0.7c0.6,0.5,0.9,1.1,0.9,1.9h-1.5
			c0-0.4-0.2-0.7-0.5-1s-0.8-0.4-1.3-0.4c-0.5,0-0.9,0.1-1.2,0.3s-0.4,0.5-0.4,0.9c0,0.3,0.1,0.6,0.4,0.8c0.3,0.2,0.8,0.3,1.5,0.5
			c0.7,0.2,1.3,0.4,1.8,0.6c0.4,0.2,0.8,0.5,1,0.8c0.2,0.3,0.3,0.7,0.3,1.2c0,0.8-0.3,1.4-0.9,1.8c-0.6,0.5-1.4,0.7-2.4,0.7
			c-0.7,0-1.3-0.1-1.8-0.4c-0.5-0.2-0.9-0.6-1.2-1c-0.3-0.4-0.4-0.9-0.4-1.4h1.4c0,0.5,0.2,0.9,0.6,1.2c0.4,0.3,0.8,0.4,1.4,0.4
			c0.5,0,1-0.1,1.3-0.3C1105.2,4272.7,1105.3,4272.5,1105.3,4272.1z"/>
		<path class="st13" d="M1112.2,4274.5c-1.1,0-2.1-0.4-2.8-1.1s-1.1-1.8-1.1-3v-0.3c0-0.8,0.2-1.6,0.5-2.2s0.8-1.2,1.3-1.5
			c0.6-0.4,1.2-0.6,1.9-0.6c1.1,0,2,0.4,2.6,1.1s0.9,1.8,0.9,3.1v0.6h-5.7c0,0.8,0.3,1.5,0.7,2c0.5,0.5,1.1,0.8,1.8,0.8
			c0.5,0,0.9-0.1,1.3-0.3c0.4-0.2,0.7-0.5,0.9-0.8l0.9,0.7C1114.6,4273.9,1113.6,4274.5,1112.2,4274.5z M1112,4266.9
			c-0.6,0-1.1,0.2-1.5,0.6c-0.4,0.4-0.6,1-0.7,1.8h4.2v-0.1c0-0.7-0.2-1.3-0.6-1.7C1113.1,4267.1,1112.6,4266.9,1112,4266.9z"/>
		<path class="st13" d="M1120.5,4273.3c0.5,0,1-0.2,1.4-0.5c0.4-0.3,0.6-0.7,0.6-1.2h1.4c0,0.5-0.2,0.9-0.5,1.4
			c-0.3,0.4-0.7,0.8-1.2,1c-0.5,0.3-1.1,0.4-1.6,0.4c-1.2,0-2.1-0.4-2.7-1.2s-1-1.8-1-3.2v-0.2c0-0.8,0.2-1.6,0.5-2.2
			c0.3-0.6,0.7-1.1,1.3-1.5c0.6-0.4,1.2-0.5,2-0.5c0.9,0,1.7,0.3,2.4,0.9c0.6,0.6,1,1.3,1,2.2h-1.4c0-0.5-0.2-1-0.6-1.3
			c-0.4-0.4-0.8-0.5-1.4-0.5c-0.7,0-1.3,0.3-1.7,0.8c-0.4,0.5-0.6,1.3-0.6,2.3v0.3c0,1,0.2,1.7,0.6,2.2
			C1119.2,4273,1119.8,4273.3,1120.5,4273.3z"/>
		<path class="st13" d="M1127.5,4263.8v2h1.6v1.1h-1.6v5.2c0,0.3,0.1,0.6,0.2,0.8c0.1,0.2,0.4,0.3,0.7,0.3c0.2,0,0.4,0,0.7-0.1v1.2
			c-0.4,0.1-0.8,0.2-1.1,0.2c-0.6,0-1.1-0.2-1.5-0.6s-0.5-0.9-0.5-1.7v-5.2h-1.5v-1.1h1.5v-2H1127.5z"/>
		<path class="st13" d="M1130.2,4270c0-0.8,0.2-1.6,0.5-2.2c0.3-0.7,0.8-1.2,1.4-1.5c0.6-0.4,1.2-0.5,2-0.5c1.2,0,2.1,0.4,2.8,1.2
			s1.1,1.9,1.1,3.2v0.1c0,0.8-0.2,1.6-0.5,2.2c-0.3,0.7-0.8,1.2-1.4,1.5s-1.3,0.5-2,0.5c-1.1,0-2.1-0.4-2.8-1.2s-1.1-1.9-1.1-3.2
			V4270z M1131.6,4270.2c0,0.9,0.2,1.7,0.7,2.3c0.4,0.6,1,0.9,1.7,0.9c0.7,0,1.3-0.3,1.8-0.9c0.4-0.6,0.6-1.4,0.6-2.4
			c0-0.9-0.2-1.7-0.7-2.3c-0.4-0.6-1-0.9-1.8-0.9c-0.7,0-1.3,0.3-1.7,0.9S1131.6,4269.1,1131.6,4270.2z"/>
		<path class="st13" d="M1143.8,4267.2c-0.2,0-0.5-0.1-0.7-0.1c-0.9,0-1.6,0.4-1.9,1.2v6h-1.4v-8.5h1.4l0,1c0.5-0.8,1.1-1.1,2-1.1
			c0.3,0,0.5,0,0.6,0.1V4267.2z"/>
		<path class="st13" d="M1156.2,4270.2c0,1.3-0.3,2.3-0.9,3.1c-0.6,0.8-1.4,1.2-2.4,1.2c-1,0-1.8-0.3-2.4-1v4.1h-1.4v-11.7h1.3
			l0.1,0.9c0.6-0.7,1.4-1.1,2.5-1.1c1,0,1.8,0.4,2.4,1.1c0.6,0.8,0.9,1.8,0.9,3.2V4270.2z M1154.8,4270c0-1-0.2-1.7-0.6-2.3
			s-1-0.8-1.7-0.8c-0.9,0-1.5,0.4-2,1.2v4c0.4,0.8,1.1,1.2,2,1.2c0.7,0,1.2-0.3,1.7-0.8C1154.6,4271.9,1154.8,4271.1,1154.8,4270z"
			/>
		<path class="st13" d="M1162.1,4267.2c-0.2,0-0.5-0.1-0.7-0.1c-0.9,0-1.6,0.4-1.9,1.2v6h-1.4v-8.5h1.4l0,1c0.5-0.8,1.1-1.1,2-1.1
			c0.3,0,0.5,0,0.6,0.1V4267.2z"/>
		<path class="st13" d="M1163.5,4263.6c0-0.2,0.1-0.4,0.2-0.6c0.1-0.2,0.4-0.2,0.6-0.2s0.5,0.1,0.6,0.2c0.1,0.2,0.2,0.4,0.2,0.6
			s-0.1,0.4-0.2,0.6c-0.1,0.2-0.4,0.2-0.6,0.2s-0.5-0.1-0.6-0.2C1163.5,4264.1,1163.5,4263.9,1163.5,4263.6z M1165,4274.3h-1.4v-8.5
			h1.4V4274.3z"/>
		<path class="st13" d="M1168.7,4265.9l0,0.9c0.6-0.7,1.5-1.1,2.5-1.1c1.2,0,2,0.5,2.4,1.4c0.3-0.4,0.6-0.7,1.1-1
			c0.5-0.2,1-0.4,1.6-0.4c1.9,0,2.8,1,2.8,2.9v5.7h-1.4v-5.6c0-0.6-0.1-1.1-0.4-1.4c-0.3-0.3-0.7-0.4-1.4-0.4c-0.5,0-1,0.2-1.3,0.5
			c-0.4,0.3-0.6,0.8-0.6,1.3v5.6h-1.5v-5.5c0-1.2-0.6-1.8-1.8-1.8c-0.9,0-1.6,0.4-1.9,1.2v6.2h-1.4v-8.5H1168.7z"/>
		<path class="st13" d="M1186.6,4274.3c-0.1-0.2-0.2-0.5-0.2-0.9c-0.7,0.7-1.5,1-2.4,1c-0.8,0-1.5-0.2-2.1-0.7
			c-0.5-0.5-0.8-1.1-0.8-1.8c0-0.9,0.3-1.6,1-2.1c0.7-0.5,1.6-0.7,2.8-0.7h1.4v-0.7c0-0.5-0.2-0.9-0.5-1.2c-0.3-0.3-0.7-0.4-1.3-0.4
			c-0.5,0-0.9,0.1-1.3,0.4c-0.3,0.3-0.5,0.6-0.5,0.9h-1.5c0-0.4,0.1-0.8,0.4-1.2c0.3-0.4,0.7-0.7,1.2-0.9c0.5-0.2,1.1-0.3,1.7-0.3
			c1,0,1.7,0.2,2.3,0.7c0.6,0.5,0.8,1.2,0.9,2v3.9c0,0.8,0.1,1.4,0.3,1.9v0.1H1186.6z M1184.2,4273.2c0.5,0,0.9-0.1,1.3-0.4
			s0.7-0.5,0.9-0.9v-1.7h-1.1c-1.8,0-2.7,0.5-2.7,1.6c0,0.5,0.2,0.8,0.5,1.1C1183.3,4273.1,1183.7,4273.2,1184.2,4273.2z"/>
		<path class="st13" d="M1194.2,4267.2c-0.2,0-0.5-0.1-0.7-0.1c-0.9,0-1.6,0.4-1.9,1.2v6h-1.4v-8.5h1.4l0,1c0.5-0.8,1.1-1.1,2-1.1
			c0.3,0,0.5,0,0.6,0.1V4267.2z"/>
		<path class="st13" d="M1195.5,4263.6c0-0.2,0.1-0.4,0.2-0.6c0.1-0.2,0.4-0.2,0.6-0.2s0.5,0.1,0.6,0.2c0.1,0.2,0.2,0.4,0.2,0.6
			s-0.1,0.4-0.2,0.6c-0.1,0.2-0.4,0.2-0.6,0.2s-0.5-0.1-0.6-0.2C1195.6,4264.1,1195.5,4263.9,1195.5,4263.6z M1197.1,4274.3h-1.4
			v-8.5h1.4V4274.3z"/>
		<path class="st13" d="M1199,4270c0-0.8,0.2-1.6,0.5-2.2c0.3-0.7,0.8-1.2,1.4-1.5c0.6-0.4,1.2-0.5,2-0.5c1.2,0,2.1,0.4,2.8,1.2
			s1.1,1.9,1.1,3.2v0.1c0,0.8-0.2,1.6-0.5,2.2c-0.3,0.7-0.8,1.2-1.4,1.5s-1.3,0.5-2,0.5c-1.1,0-2.1-0.4-2.8-1.2s-1.1-1.9-1.1-3.2
			V4270z M1200.4,4270.2c0,0.9,0.2,1.7,0.7,2.3c0.4,0.6,1,0.9,1.7,0.9c0.7,0,1.3-0.3,1.8-0.9c0.4-0.6,0.6-1.4,0.6-2.4
			c0-0.9-0.2-1.7-0.7-2.3c-0.4-0.6-1-0.9-1.8-0.9c-0.7,0-1.3,0.3-1.7,0.9S1200.4,4269.1,1200.4,4270.2z"/>
		<path class="st13" d="M1215.2,4272.2l2-6.3h1.5l-3.4,9.8c-0.5,1.4-1.4,2.1-2.5,2.1l-0.3,0l-0.5-0.1v-1.2l0.4,0
			c0.5,0,0.9-0.1,1.1-0.3s0.5-0.6,0.7-1.1l0.3-0.9l-3-8.4h1.6L1215.2,4272.2z"/>
	</g>
	<g class="st11">
		<path class="st13" d="M983.6,4298.5c-1.1,0-2.1-0.4-2.8-1.1s-1.1-1.8-1.1-3v-0.3c0-0.8,0.2-1.6,0.5-2.2s0.8-1.2,1.3-1.5
			c0.6-0.4,1.2-0.6,1.9-0.6c1.1,0,2,0.4,2.6,1.1s0.9,1.8,0.9,3.1v0.6h-5.7c0,0.8,0.3,1.5,0.7,2c0.5,0.5,1.1,0.8,1.8,0.8
			c0.5,0,0.9-0.1,1.3-0.3c0.4-0.2,0.7-0.5,0.9-0.8l0.9,0.7C986.1,4297.9,985,4298.5,983.6,4298.5z M983.4,4290.9
			c-0.6,0-1.1,0.2-1.5,0.6c-0.4,0.4-0.6,1-0.7,1.8h4.2v-0.1c0-0.7-0.2-1.3-0.6-1.7C984.5,4291.1,984,4290.9,983.4,4290.9z"/>
		<path class="st13" d="M991.4,4293l1.9-3.1h1.7l-2.8,4.2l2.9,4.3h-1.7l-2-3.2l-2,3.2h-1.7l2.9-4.3l-2.8-4.2h1.7L991.4,4293z"/>
		<path class="st13" d="M998.5,4287.8v2h1.6v1.1h-1.6v5.2c0,0.3,0.1,0.6,0.2,0.8c0.1,0.2,0.4,0.3,0.7,0.3c0.2,0,0.4,0,0.7-0.1v1.2
			c-0.4,0.1-0.8,0.2-1.1,0.2c-0.6,0-1.1-0.2-1.5-0.6s-0.5-0.9-0.5-1.7v-5.2h-1.5v-1.1h1.5v-2H998.5z"/>
		<path class="st13" d="M1005.8,4291.2c-0.2,0-0.5-0.1-0.7-0.1c-0.9,0-1.6,0.4-1.9,1.2v6h-1.4v-8.5h1.4l0,1c0.5-0.8,1.1-1.1,2-1.1
			c0.3,0,0.5,0,0.6,0.1V4291.2z"/>
		<path class="st13" d="M1012,4298.3c-0.1-0.2-0.2-0.5-0.2-0.9c-0.7,0.7-1.5,1-2.4,1c-0.8,0-1.5-0.2-2.1-0.7
			c-0.5-0.5-0.8-1.1-0.8-1.8c0-0.9,0.3-1.6,1-2.1c0.7-0.5,1.6-0.7,2.8-0.7h1.4v-0.7c0-0.5-0.2-0.9-0.5-1.2c-0.3-0.3-0.7-0.4-1.3-0.4
			c-0.5,0-0.9,0.1-1.3,0.4c-0.3,0.3-0.5,0.6-0.5,0.9h-1.5c0-0.4,0.1-0.8,0.4-1.2c0.3-0.4,0.7-0.7,1.2-0.9c0.5-0.2,1.1-0.3,1.7-0.3
			c1,0,1.7,0.2,2.3,0.7c0.6,0.5,0.8,1.2,0.9,2v3.9c0,0.8,0.1,1.4,0.3,1.9v0.1H1012z M1009.6,4297.2c0.5,0,0.9-0.1,1.3-0.4
			s0.7-0.5,0.9-0.9v-1.7h-1.1c-1.8,0-2.7,0.5-2.7,1.6c0,0.5,0.2,0.8,0.5,1.1C1008.8,4297.1,1009.2,4297.2,1009.6,4297.2z"/>
		<path class="st13" d="M1018.9,4297.3c0.5,0,1-0.2,1.4-0.5c0.4-0.3,0.6-0.7,0.6-1.2h1.4c0,0.5-0.2,0.9-0.5,1.4
			c-0.3,0.4-0.7,0.8-1.2,1c-0.5,0.3-1.1,0.4-1.6,0.4c-1.2,0-2.1-0.4-2.7-1.2s-1-1.8-1-3.2v-0.2c0-0.8,0.2-1.6,0.5-2.2
			c0.3-0.6,0.7-1.1,1.3-1.5c0.6-0.4,1.2-0.5,2-0.5c0.9,0,1.7,0.3,2.4,0.9c0.6,0.6,1,1.3,1,2.2h-1.4c0-0.5-0.2-1-0.6-1.3
			c-0.4-0.4-0.8-0.5-1.4-0.5c-0.7,0-1.3,0.3-1.7,0.8c-0.4,0.5-0.6,1.3-0.6,2.3v0.3c0,1,0.2,1.7,0.6,2.2
			C1017.6,4297,1018.2,4297.3,1018.9,4297.3z"/>
		<path class="st13" d="M1025.9,4287.8v2h1.6v1.1h-1.6v5.2c0,0.3,0.1,0.6,0.2,0.8c0.1,0.2,0.4,0.3,0.7,0.3c0.2,0,0.4,0,0.7-0.1v1.2
			c-0.4,0.1-0.8,0.2-1.1,0.2c-0.6,0-1.1-0.2-1.5-0.6s-0.5-0.9-0.5-1.7v-5.2h-1.5v-1.1h1.5v-2H1025.9z"/>
		<path class="st13" d="M1029.1,4287.6c0-0.2,0.1-0.4,0.2-0.6c0.1-0.2,0.4-0.2,0.6-0.2s0.5,0.1,0.6,0.2c0.1,0.2,0.2,0.4,0.2,0.6
			s-0.1,0.4-0.2,0.6c-0.1,0.2-0.4,0.2-0.6,0.2s-0.5-0.1-0.6-0.2C1029.2,4288.1,1029.1,4287.9,1029.1,4287.6z M1030.7,4298.3h-1.4
			v-8.5h1.4V4298.3z"/>
		<path class="st13" d="M1035.8,4296.4l2.1-6.5h1.5l-3,8.5h-1.1l-3.1-8.5h1.5L1035.8,4296.4z"/>
		<path class="st13" d="M1040.3,4294c0-0.8,0.2-1.6,0.5-2.2c0.3-0.7,0.8-1.2,1.4-1.5c0.6-0.4,1.2-0.5,2-0.5c1.2,0,2.1,0.4,2.8,1.2
			s1.1,1.9,1.1,3.2v0.1c0,0.8-0.2,1.6-0.5,2.2c-0.3,0.7-0.8,1.2-1.4,1.5s-1.3,0.5-2,0.5c-1.1,0-2.1-0.4-2.8-1.2s-1.1-1.9-1.1-3.2
			V4294z M1041.7,4294.2c0,0.9,0.2,1.7,0.7,2.3c0.4,0.6,1,0.9,1.7,0.9c0.7,0,1.3-0.3,1.8-0.9c0.4-0.6,0.6-1.4,0.6-2.4
			c0-0.9-0.2-1.7-0.7-2.3c-0.4-0.6-1-0.9-1.8-0.9c-0.7,0-1.3,0.3-1.7,0.9S1041.7,4293.1,1041.7,4294.2z"/>
		<path class="st13" d="M1053.4,4294c0-1.3,0.3-2.3,0.9-3.1c0.6-0.8,1.4-1.2,2.4-1.2c1,0,1.8,0.3,2.4,1v-4.4h1.4v12h-1.3l-0.1-0.9
			c-0.6,0.7-1.4,1.1-2.4,1.1c-1,0-1.8-0.4-2.4-1.2s-0.9-1.8-0.9-3.1V4294z M1054.8,4294.2c0,1,0.2,1.7,0.6,2.2
			c0.4,0.5,0.9,0.8,1.6,0.8c0.9,0,1.6-0.4,2-1.2v-3.9c-0.4-0.8-1.1-1.2-2-1.2c-0.7,0-1.3,0.3-1.7,0.8
			C1055,4292.3,1054.8,4293.1,1054.8,4294.2z"/>
		<path class="st13" d="M1066.3,4298.5c-1.1,0-2.1-0.4-2.8-1.1s-1.1-1.8-1.1-3v-0.3c0-0.8,0.2-1.6,0.5-2.2s0.8-1.2,1.3-1.5
			c0.6-0.4,1.2-0.6,1.9-0.6c1.1,0,2,0.4,2.6,1.1s0.9,1.8,0.9,3.1v0.6h-5.7c0,0.8,0.3,1.5,0.7,2c0.5,0.5,1.1,0.8,1.8,0.8
			c0.5,0,0.9-0.1,1.3-0.3c0.4-0.2,0.7-0.5,0.9-0.8l0.9,0.7C1068.7,4297.9,1067.7,4298.5,1066.3,4298.5z M1066.1,4290.9
			c-0.6,0-1.1,0.2-1.5,0.6c-0.4,0.4-0.6,1-0.7,1.8h4.2v-0.1c0-0.7-0.2-1.3-0.6-1.7C1067.2,4291.1,1066.7,4290.9,1066.1,4290.9z"/>
		<path class="st13" d="M1072.8,4298.3h-1.4v-12h1.4V4298.3z"/>
		<path class="st13" d="M1086.2,4294.2c0,1.3-0.3,2.3-0.9,3.1c-0.6,0.8-1.4,1.2-2.4,1.2c-1,0-1.8-0.3-2.4-1v4.1h-1.4v-11.7h1.3
			l0.1,0.9c0.6-0.7,1.4-1.1,2.5-1.1c1,0,1.8,0.4,2.4,1.1c0.6,0.8,0.9,1.8,0.9,3.2V4294.2z M1084.8,4294c0-1-0.2-1.7-0.6-2.3
			s-1-0.8-1.7-0.8c-0.9,0-1.5,0.4-2,1.2v4c0.4,0.8,1.1,1.2,2,1.2c0.7,0,1.2-0.3,1.7-0.8C1084.6,4295.9,1084.8,4295.1,1084.8,4294z"
			/>
		<path class="st13" d="M1093.3,4298.3c-0.1-0.2-0.2-0.5-0.2-0.9c-0.7,0.7-1.5,1-2.4,1c-0.8,0-1.5-0.2-2.1-0.7
			c-0.5-0.5-0.8-1.1-0.8-1.8c0-0.9,0.3-1.6,1-2.1c0.7-0.5,1.6-0.7,2.8-0.7h1.4v-0.7c0-0.5-0.2-0.9-0.5-1.2c-0.3-0.3-0.7-0.4-1.3-0.4
			c-0.5,0-0.9,0.1-1.3,0.4c-0.3,0.3-0.5,0.6-0.5,0.9h-1.5c0-0.4,0.1-0.8,0.4-1.2c0.3-0.4,0.7-0.7,1.2-0.9c0.5-0.2,1.1-0.3,1.7-0.3
			c1,0,1.7,0.2,2.3,0.7c0.6,0.5,0.8,1.2,0.9,2v3.9c0,0.8,0.1,1.4,0.3,1.9v0.1H1093.3z M1090.9,4297.2c0.5,0,0.9-0.1,1.3-0.4
			s0.7-0.5,0.9-0.9v-1.7h-1.1c-1.8,0-2.7,0.5-2.7,1.6c0,0.5,0.2,0.8,0.5,1.1C1090,4297.1,1090.4,4297.2,1090.9,4297.2z"/>
		<path class="st13" d="M1098.3,4286.3h1.8l-2.1,2.3l-1.2,0L1098.3,4286.3z M1098.3,4298.3h-1.5v-8.5h1.5V4298.3z"/>
		<path class="st13" d="M1105.6,4296.1c0-0.4-0.1-0.7-0.4-0.9c-0.3-0.2-0.8-0.4-1.5-0.6c-0.7-0.2-1.3-0.3-1.7-0.6s-0.7-0.5-1-0.8
			c-0.2-0.3-0.3-0.7-0.3-1.1c0-0.7,0.3-1.3,0.9-1.8s1.3-0.7,2.2-0.7c1,0,1.7,0.2,2.3,0.7c0.6,0.5,0.9,1.1,0.9,1.9h-1.5
			c0-0.4-0.2-0.7-0.5-1s-0.8-0.4-1.3-0.4c-0.5,0-0.9,0.1-1.2,0.3s-0.4,0.5-0.4,0.9c0,0.3,0.1,0.6,0.4,0.8c0.3,0.2,0.8,0.3,1.5,0.5
			c0.7,0.2,1.3,0.4,1.8,0.6c0.4,0.2,0.8,0.5,1,0.8c0.2,0.3,0.3,0.7,0.3,1.2c0,0.8-0.3,1.4-0.9,1.8c-0.6,0.5-1.4,0.7-2.4,0.7
			c-0.7,0-1.3-0.1-1.8-0.4c-0.5-0.2-0.9-0.6-1.2-1c-0.3-0.4-0.4-0.9-0.4-1.4h1.4c0,0.5,0.2,0.9,0.6,1.2c0.4,0.3,0.8,0.4,1.4,0.4
			c0.5,0,1-0.1,1.3-0.3C1105.5,4296.7,1105.6,4296.5,1105.6,4296.1z"/>
		<path class="st13" d="M1109,4297.6c0-0.2,0.1-0.5,0.2-0.6s0.4-0.2,0.7-0.2s0.5,0.1,0.7,0.2c0.2,0.2,0.2,0.4,0.2,0.6
			c0,0.2-0.1,0.4-0.2,0.6c-0.2,0.2-0.4,0.2-0.7,0.2s-0.5-0.1-0.7-0.2S1109,4297.8,1109,4297.6z"/>
	</g>
</g>
</svg>
