<svg xmlns="http://www.w3.org/2000/svg" width="89.958" height="89.958" viewBox="0 0 89.958 89.958">
  <g id="Grupo_54431" data-name="Grupo 54431" transform="translate(-390.127 -491.146)">
    <circle id="Elipse_4054" data-name="Elipse 4054" cx="44.979" cy="44.979" r="44.979" transform="translate(390.127 491.146)" fill="#ea7424"/>
    <g id="Grupo_54033" data-name="Grupo 54033" transform="translate(407.563 508.58)">
      <g id="Grupo_54032" data-name="Grupo 54032">
        <g id="Grupo_54030" data-name="Grupo 54030" transform="translate(0.888 0.889)">
          <path id="Trazado_100665" data-name="Trazado 100665" d="M237.006,512.226a5.991,5.991,0,0,1,1.057.275v.009a7.016,7.016,0,0,0-2.79,2.053,6.091,6.091,0,0,0-1.208,3.634v3.314h-15.1V518.2a6.046,6.046,0,0,1,5.056-5.971l2.941-.489s0,2.666,3.554,2.666,3.554-2.666,3.554-2.666Z" transform="translate(-218.96 -489.525)" fill="#fcd770"/>
          <path id="Trazado_100666" data-name="Trazado 100666" d="M255.957,514.563a7,7,0,0,0-2.79-2.053V512.5a5.979,5.979,0,0,1,1.058-.275l2.941-.489s0,2.666,3.554,2.666,3.554-2.666,3.554-2.666l2.941.489a6.044,6.044,0,0,1,5.055,5.971v.648a.891.891,0,0,0-.888-.888H257.157a6.028,6.028,0,0,0-1.2-3.394Z" transform="translate(-218.96 -489.525)" fill="#b4dd7f"/>
          <path id="Trazado_100667" data-name="Trazado 100667" d="M255.957,514.563a7,7,0,0,0-2.79-2.053,5.3,5.3,0,0,0-1.057-.284l-.506-.08-3.323,5.811-2.666-2.666-2.665,2.666-3.323-5.811-.507.08a5.317,5.317,0,0,0-1.057.284,7.016,7.016,0,0,0-2.79,2.053,6.091,6.091,0,0,0-1.208,3.634v3.314h22.212v-2.666a.889.889,0,0,1,.88-.888,6.028,6.028,0,0,0-1.2-3.394Z" transform="translate(-218.96 -489.525)" fill="#ff826e"/>
          <path id="Trazado_100668" data-name="Trazado 100668" d="M249.169,511.737l2.435.409-3.323,5.811-2.666-2.666Z" transform="translate(-218.96 -489.525)" fill="#fc6e51"/>
          <path id="Trazado_100669" data-name="Trazado 100669" d="M245.615,515.291l-2.665,2.666-3.323-5.811,2.434-.409Z" transform="translate(-218.96 -489.525)" fill="#fc6e51"/>
          <path id="Trazado_100670" data-name="Trazado 100670" d="M238.507,493.079a2.67,2.67,0,0,0-2.665,2.665,11.579,11.579,0,0,0,.444,2.781c.071.267.142.507.2.711l-.2-.053a18.4,18.4,0,0,1-5.775-2.55,18.39,18.39,0,0,1-5.776,2.55l-.444.115H223.4l-2.666-2.665,1.777-1.777-1.777-2.666,1.564-.932a12.064,12.064,0,0,1,6.237-1.733h1.386a12.127,12.127,0,0,1,8.583,3.554Z" transform="translate(-218.96 -489.525)" fill="#656d78"/>
          <path id="Trazado_100671" data-name="Trazado 100671" d="M270.493,492.19l-1.777,2.666,1.777,1.777-2.665,2.665h-.889l-.444-.115a18.4,18.4,0,0,1-5.775-2.55,18.4,18.4,0,0,1-5.776,2.55l-.248.071.559-2.106a4.178,4.178,0,0,0,.134-1.048,4.293,4.293,0,0,0-2.008-3.634l.008-.009a12.16,12.16,0,0,1,7.917-2.932h1.386a12.058,12.058,0,0,1,6.237,1.733Z" transform="translate(-218.96 -489.525)" fill="#656d78"/>
          <path id="Trazado_100672" data-name="Trazado 100672" d="M238.507,499.3a2.611,2.611,0,0,0-1.768.685l-.009-.009s-.106-.285-.24-.738c-.062-.2-.133-.444-.2-.711a11.579,11.579,0,0,1-.444-2.781,2.67,2.67,0,0,1,2.665-2.665l.693-.924a6.564,6.564,0,0,1,5.26-2.63,6.424,6.424,0,0,1,2.239.4l5.846,2.123a4.082,4.082,0,0,1,.836.418,4.293,4.293,0,0,1,2.008,3.634,4.178,4.178,0,0,1-.134,1.048l-.559,2.106-.2.729a2.633,2.633,0,0,0-1.777-.685h-.888l-.445-.115a18.394,18.394,0,0,1-5.775-2.55,18.4,18.4,0,0,1-5.775,2.55l-.444.115Z" transform="translate(-218.96 -489.525)" fill="#b27946"/>
          <g id="Grupo_54029" data-name="Grupo 54029" transform="translate(1.777 7.108)">
            <path id="Trazado_100673" data-name="Trazado 100673" d="M267.828,499.3a2.665,2.665,0,0,1,0,5.331h-.96a4.952,4.952,0,0,0,.071-.888V499.3Z" transform="translate(-220.737 -496.633)" fill="#f0d0b4"/>
            <path id="Trazado_100674" data-name="Trazado 100674" d="M257.974,509.321a6.218,6.218,0,0,0,5.491,0l.809,2.416s0,2.666-3.554,2.666-3.554-2.666-3.554-2.666Z" transform="translate(-220.737 -496.633)" fill="#f0d0b4"/>
            <path id="Trazado_100675" data-name="Trazado 100675" d="M255.389,501.964a2.61,2.61,0,0,0-.889-1.981l.2-.729.248-.071a18.4,18.4,0,0,0,5.776-2.55,18.4,18.4,0,0,0,5.775,2.55l.444.115v4.443a4.952,4.952,0,0,1-.071.888,6.109,6.109,0,0,1-1.75,3.51,6.223,6.223,0,0,1-10.618-4.194,1.043,1.043,0,0,0,.107-.1,2.66,2.66,0,0,0,.782-1.884Z" transform="translate(-220.737 -496.633)" fill="#f0d0b4"/>
            <path id="Trazado_100676" data-name="Trazado 100676" d="M252.723,499.3a2.678,2.678,0,0,1,2.666,2.666,2.66,2.66,0,0,1-.782,1.884,1.043,1.043,0,0,1-.107.1,2.632,2.632,0,0,1-1.777.684h-.959a4.95,4.95,0,0,0,.071-.888V499.3Z" transform="translate(-220.737 -496.633)" fill="#f0d0b4"/>
            <path id="Trazado_100677" data-name="Trazado 100677" d="M248.361,509.321l.808,2.416-3.554,3.554-3.554-3.554.809-2.416a6.218,6.218,0,0,0,5.491,0Z" transform="translate(-220.737 -496.633)" fill="#f0d0b4"/>
            <path id="Trazado_100678" data-name="Trazado 100678" d="M239.4,503.741V499.3l.444-.115a18.4,18.4,0,0,0,5.775-2.55,18.394,18.394,0,0,0,5.775,2.55l.445.115v4.443a4.95,4.95,0,0,1-.071.888,6.217,6.217,0,0,1-10.547,3.51,6.1,6.1,0,0,1-1.75-3.51,4.86,4.86,0,0,1-.071-.888Z" transform="translate(-220.737 -496.633)" fill="#f0d0b4"/>
            <path id="Trazado_100679" data-name="Trazado 100679" d="M239.4,503.741a4.86,4.86,0,0,0,.071.888h-.96a2.633,2.633,0,0,1-1.777-.684,1.038,1.038,0,0,1-.106-.1,2.66,2.66,0,0,1-.782-1.884,2.691,2.691,0,0,1,2.665-2.666h.889Z" transform="translate(-220.737 -496.633)" fill="#f0d0b4"/>
            <path id="Trazado_100680" data-name="Trazado 100680" d="M233.256,509.321l.809,2.416s0,2.666-3.554,2.666-3.554-2.666-3.554-2.666l.808-2.416a6.218,6.218,0,0,0,5.491,0Z" transform="translate(-220.737 -496.633)" fill="#f0d0b4"/>
            <path id="Trazado_100681" data-name="Trazado 100681" d="M236.49,499.236c.134.453.24.738.24.738l.009.009a2.6,2.6,0,0,0-.9,1.981,2.66,2.66,0,0,0,.782,1.884,1.038,1.038,0,0,0,.106.1,6.222,6.222,0,0,1-10.617,4.194,6.11,6.11,0,0,1-1.751-3.51,4.95,4.95,0,0,1-.071-.888V499.3l.444-.115a18.39,18.39,0,0,0,5.776-2.55,18.4,18.4,0,0,0,5.775,2.55Z" transform="translate(-220.737 -496.633)" fill="#f0d0b4"/>
            <path id="Trazado_100682" data-name="Trazado 100682" d="M224.291,503.741a4.95,4.95,0,0,0,.071.888H223.4a2.665,2.665,0,1,1,0-5.331h.888Z" transform="translate(-220.737 -496.633)" fill="#f0d0b4"/>
          </g>
          <path id="Trazado_100683" data-name="Trazado 100683" d="M250.946,526.842v7.108h-29.32a2.663,2.663,0,0,1-2.666-2.666v-1.777a2.662,2.662,0,0,1,2.666-2.665Z" transform="translate(-218.96 -489.525)" fill="#cf9e76"/>
          <path id="Trazado_100684" data-name="Trazado 100684" d="M270.493,523.288V537.5H258.054V523.288Z" transform="translate(-218.96 -489.525)" fill="#d3a06c"/>
          <path id="Trazado_100685" data-name="Trazado 100685" d="M250.946,526.842h7.108v7.108h-7.108Z" transform="translate(-218.96 -489.525)" fill="#d3a06c"/>
          <path id="Trazado_100686" data-name="Trazado 100686" d="M272.27,538.392v3.554a.891.891,0,0,1-.888.889H257.166a.892.892,0,0,1-.889-.889v-3.554a.891.891,0,0,1,.889-.888h14.216A.891.891,0,0,1,272.27,538.392Z" transform="translate(-218.96 -489.525)" fill="#b27946"/>
          <path id="Trazado_100687" data-name="Trazado 100687" d="M272.27,518.845V522.4a.891.891,0,0,1-.888.889H257.166a.892.892,0,0,1-.889-.889v-3.554a.889.889,0,0,1,.88-.888h14.225A.891.891,0,0,1,272.27,518.845Z" transform="translate(-218.96 -489.525)" fill="#b27946"/>
        </g>
        <g id="Grupo_54031" data-name="Grupo 54031">
          <circle id="Elipse_4055" data-name="Elipse 4055" cx="0.888" cy="0.888" r="0.888" transform="translate(23.989 12.439)" fill="#753a12"/>
          <circle id="Elipse_4056" data-name="Elipse 4056" cx="0.888" cy="0.888" r="0.888" transform="translate(29.32 12.439)" fill="#753a12"/>
          <path id="Trazado_100688" data-name="Trazado 100688" d="M247.392,504.42a1.987,1.987,0,0,1-3.554,0l-.093-.188-1.59.8.094.188a3.764,3.764,0,0,0,6.733,0l.093-.187-1.59-.8Z" transform="translate(-218.072 -488.636)" fill="#753a12"/>
          <circle id="Elipse_4057" data-name="Elipse 4057" cx="0.888" cy="0.888" r="0.888" transform="translate(8.885 12.439)" fill="#753a12"/>
          <circle id="Elipse_4058" data-name="Elipse 4058" cx="0.888" cy="0.888" r="0.888" transform="translate(14.216 12.439)" fill="#753a12"/>
          <path id="Trazado_100689" data-name="Trazado 100689" d="M228.64,504.232l-1.589.8.093.188a3.764,3.764,0,0,0,6.733,0l.094-.187-1.59-.8-.093.189a1.987,1.987,0,0,1-3.554,0Z" transform="translate(-218.072 -488.636)" fill="#753a12"/>
          <circle id="Elipse_4059" data-name="Elipse 4059" cx="0.888" cy="0.888" r="0.888" transform="translate(44.425 12.439)" fill="#753a12"/>
          <circle id="Elipse_4060" data-name="Elipse 4060" cx="0.888" cy="0.888" r="0.888" transform="translate(39.094 12.439)" fill="#753a12"/>
          <path id="Trazado_100690" data-name="Trazado 100690" d="M258.943,504.42l-.094-.188-1.589.8.093.188a3.764,3.764,0,0,0,6.733,0l.093-.187-1.589-.8-.093.189a1.987,1.987,0,0,1-3.554,0Z" transform="translate(-218.072 -488.636)" fill="#753a12"/>
          <path id="Trazado_100691" data-name="Trazado 100691" d="M273.159,522.4v-4.2a6.994,6.994,0,0,0-1.388-4.165,6.9,6.9,0,0,0-4.413-2.682l-2.41-.4-.409-1.223a7.124,7.124,0,0,0,3.054-4.208h.235a3.542,3.542,0,0,0,1.7-6.658l2.226-2.226-1.889-1.89,1.889-2.834-2.359-1.416a13.034,13.034,0,0,0-6.7-1.857H261.3a13.021,13.021,0,0,0-8.013,2.774c-.145-.068-.286-.144-.438-.2l-5.845-2.125a7.413,7.413,0,0,0-2.55-.45,7.5,7.5,0,0,0-5.967,2.984l-.109.146a12.917,12.917,0,0,0-8.454-3.13h-1.386a13.037,13.037,0,0,0-6.7,1.857l-2.359,1.416,1.89,2.834-1.89,1.89,2.226,2.226a3.543,3.543,0,0,0,1.7,6.659h.233a7.124,7.124,0,0,0,3.054,4.208l-.409,1.223-2.41.4a6.9,6.9,0,0,0-4.412,2.682,6.988,6.988,0,0,0-1.387,4.164v4.2h37.317a1.779,1.779,0,0,0,1.777,1.777v1.777h-35.54a3.558,3.558,0,0,0-3.554,3.554v1.777a3.558,3.558,0,0,0,3.554,3.554h35.54v1.777a1.779,1.779,0,0,0-1.777,1.777v3.554a1.779,1.779,0,0,0,1.777,1.777h14.216a1.779,1.779,0,0,0,1.777-1.777v-3.554a1.779,1.779,0,0,0-1.777-1.777V524.176a1.779,1.779,0,0,0,1.777-1.777Zm-1.777-3.555V522.4H257.166v-3.554Zm-1.033-3.745a5.2,5.2,0,0,1,.906,1.969h-13.3a6.809,6.809,0,0,0-2.359-4.167l.869-.145c.408,1.187,1.583,2.535,4.26,2.535s3.851-1.348,4.26-2.535l2.087.348a5.132,5.132,0,0,1,3.282,1.995Zm-33.2-3.748-2.411-.4-.4-1.207a7.056,7.056,0,0,0,3.1-4.4,3.5,3.5,0,0,0,1.068.182h.234a7.124,7.124,0,0,0,3.054,4.208l-.409,1.223-2.411.4a6.754,6.754,0,0,0-.915.224,6.677,6.677,0,0,0-.91-.225Zm1.357-7.61a1.777,1.777,0,1,1,0-3.554Zm9.646,7.756-2.538,2.538-.888-.888-1.649-1.65.334-1a7.025,7.025,0,0,0,4.407,0Zm-6.4,1.192,2.6,2.6-1.215,1.215-2.113-3.7Zm3.859-3.617a5.336,5.336,0,0,1-5.331-5.331V499.99a19.308,19.308,0,0,0,5.331-2.3,19.3,19.3,0,0,0,5.331,2.3v3.751A5.336,5.336,0,0,1,245.615,509.072Zm-6.447,4.059,3.587,6.277,1.972-1.972v3.186h-9.774V518.2a5.2,5.2,0,0,1,1.033-3.1,5.131,5.131,0,0,1,3.182-1.968Zm10.306-.442.725.121-2.112,3.7-1.216-1.215Zm2.78-1.338-2.41-.4-.409-1.223a7.124,7.124,0,0,0,3.054-4.208h.234a3.5,3.5,0,0,0,1.068-.182,7.056,7.056,0,0,0,3.1,4.4l-.4,1.207-2.408.4a6.7,6.7,0,0,0-.915.224,6.962,6.962,0,0,0-.914-.223Zm.469-11.164a1.777,1.777,0,1,1,0,3.554Zm10.653,11.668c-.05.4-.385,1.659-2.656,1.659-2.25,0-2.6-1.216-2.656-1.661l.45-1.353a7.17,7.17,0,0,0,2.206.349,7.079,7.079,0,0,0,2.2-.354Zm2.675-8.114a5.328,5.328,0,0,1-10.632.513,3.5,3.5,0,0,0,.2-4.339,19.272,19.272,0,0,0,5.1-2.226,19.278,19.278,0,0,0,5.331,2.3Zm1.777,0v-3.554a1.777,1.777,0,1,1,0,3.554ZM261.3,490.413h1.386a11.255,11.255,0,0,1,5.787,1.6l.761.457-1.664,2.5,1.664,1.663-1.777,1.777h-.413l-.339-.085a17.6,17.6,0,0,1-5.5-2.431l-.492-.329-.494.329a17.515,17.515,0,0,1-4.265,2.066l.16-.6a5.186,5.186,0,0,0-1.315-4.881A11.247,11.247,0,0,1,261.3,490.413Zm-16.846,0a5.672,5.672,0,0,1,1.943.343l5.844,2.125a3.425,3.425,0,0,1,2.157,4.037l-.461,1.72a3.516,3.516,0,0,0-1.217-.228h-.78l-.339-.085a17.615,17.615,0,0,1-5.5-2.431l-.492-.329-.493.329a17.549,17.549,0,0,1-5.5,2.431l-.339.085h-.779a3.508,3.508,0,0,0-1.263.242,11.592,11.592,0,0,1-.514-2.908,1.779,1.779,0,0,1,1.777-1.777h.444l.961-1.281A5.709,5.709,0,0,1,244.457,490.413Zm-22.831,11.551a1.779,1.779,0,0,1,1.777-1.777v3.554A1.779,1.779,0,0,1,221.626,501.964Zm2.556-3.554h-.411l-1.777-1.777,1.664-1.664-1.664-2.5.76-.457a11.269,11.269,0,0,1,5.787-1.6h1.386A11.15,11.15,0,0,1,236.7,492.7a3.548,3.548,0,0,0-1.748,3.048,10.773,10.773,0,0,0,.279,2.206A17.582,17.582,0,0,1,231,495.894l-.493-.329-.493.329a17.554,17.554,0,0,1-5.5,2.431Zm1,5.331V499.99a19.321,19.321,0,0,0,5.331-2.3,19.294,19.294,0,0,0,5.1,2.226,3.5,3.5,0,0,0,.2,4.339,5.328,5.328,0,0,1-10.631-.513Zm5.331,7.108a7.169,7.169,0,0,0,2.205-.349l.451,1.355c-.049.4-.385,1.659-2.656,1.659-2.238,0-2.6-1.2-2.655-1.663l.451-1.356a7.081,7.081,0,0,0,2.2.354ZM219.849,518.2a5.206,5.206,0,0,1,1.032-3.1,5.137,5.137,0,0,1,3.282-1.994l2.087-.348c.409,1.186,1.584,2.534,4.261,2.534s3.851-1.348,4.26-2.535l.869.144a6.9,6.9,0,0,0-2.464,5.3v2.424H219.849Zm26.655,2.424v-3.186l1.971,1.972,3.587-6.277a5.111,5.111,0,0,1,4.138,4.227,1.774,1.774,0,0,0-.811,1.487v1.777Zm-26.655,10.662v-1.777a1.779,1.779,0,0,1,1.777-1.777h28.432v5.331H221.626A1.779,1.779,0,0,1,219.849,531.284Zm31.986,1.777V527.73h5.331v5.331Zm19.548,8.885H257.166v-3.554h14.216Zm-1.778-5.331H258.943V524.176h10.662Z" transform="translate(-218.072 -488.636)" fill="#753a12"/>
        </g>
      </g>
    </g>
  </g>
</svg>
