<?xml version="1.0" encoding="utf-8"?>
<!-- Generator: Adobe Illustrator 25.3.1, SVG Export Plug-In . SVG Version: 6.00 Build 0)  -->
<svg version="1.1" id="Capa_1" xmlns="http://www.w3.org/2000/svg" xmlns:xlink="http://www.w3.org/1999/xlink" x="0px" y="0px"
	 viewBox="0 0 1030 491.3" style="enable-background:new 0 0 1030 491.3;" xml:space="preserve">
<style type="text/css">
	.st0{fill:url(#SVGID_1_);}
	.st1{fill:url(#Rectángulo_5259_1_);}
	.st2{fill:url(#Trazado_101764_1_);}
	.st3{fill:url(#Trazado_101765_1_);}
	.st4{fill:url(#Elipse_4094_1_);}
	.st5{fill:#DF1024;}
	.st6{fill:#FFFFFF;}
	.st7{fill:#F9B522;}
	.st8{fill:#759289;}
	.st9{fill:#FFCF6E;}
	.st10{clip-path:url(#SVGID_3_);}
	.st11{fill:#F2DB0C;}
	.st12{fill:#747C40;}
	.st13{fill:#7D9292;}
	.st14{fill:#FFAF0D;}
	.st15{opacity:0.31;fill:#FFAF0D;enable-background:new    ;}
	.st16{enable-background:new    ;}
	.st17{fill:#12263F;}
	.st18{fill:#FBB180;}
</style>
<radialGradient id="SVGID_1_" cx="251.75" cy="283.29" r="204.2578" gradientTransform="matrix(1 0 0 -1 0 491.89)" gradientUnits="userSpaceOnUse">
	<stop  offset="0" style="stop-color:#E6E6E6"/>
	<stop  offset="0.266" style="stop-color:#FFFFFF"/>
	<stop  offset="0.7694" style="stop-color:#FBFBFB"/>
	<stop  offset="1" style="stop-color:#E6E6E6"/>
</radialGradient>
<path class="st0" d="M14.5,45.7c0,0,35.3,161.4-1.3,291.6c0,0,71.7,36,258.3,21.6c142.9-11,218.7,12.6,218.7,12.6s1.8-77-10.2-142.9
	S490.3,85,490.3,85S368.5,52.3,269.4,51.7C170.4,51.1,39.2,64.3,14.5,45.7z"/>
<linearGradient id="Rectángulo_5259_1_" gradientUnits="userSpaceOnUse" x1="14.981" y1="238.99" x2="1.411" y2="238.99" gradientTransform="matrix(1 0 0 -1 0 491.89)">
	<stop  offset="0" style="stop-color:#E6E6E6"/>
	<stop  offset="0.2534" style="stop-color:#D1D1D1"/>
	<stop  offset="0.3219" style="stop-color:#D7D7D7"/>
	<stop  offset="0.4197" style="stop-color:#E6E6E6"/>
	<stop  offset="0.5099" style="stop-color:#DBDBDB"/>
	<stop  offset="0.964" style="stop-color:#999999"/>
</linearGradient>
<path id="Rectángulo_5259" class="st1" d="M13.7,482.1H2.6c-0.7,0-1.2-0.5-1.2-1.2l0,0v-456c0-0.7,0.6-1.2,1.2-1.2l0,0h11.1
	c0.7,0,1.2,0.6,1.2,1.2l0,0v456C15,481.5,14.4,482.1,13.7,482.1L13.7,482.1z"/>
<linearGradient id="Trazado_101764_1_" gradientUnits="userSpaceOnUse" x1="1.4" y1="469.64" x2="14.966" y2="469.64" gradientTransform="matrix(1 0 0 -1 0 491.89)">
	<stop  offset="0" style="stop-color:#BDBDBD"/>
	<stop  offset="0.2534" style="stop-color:#A8A8A8"/>
	<stop  offset="0.3219" style="stop-color:#AEAEAE"/>
	<stop  offset="0.4197" style="stop-color:#BDBDBD"/>
	<stop  offset="0.5099" style="stop-color:#B2B2B2"/>
	<stop  offset="0.964" style="stop-color:#707070"/>
</linearGradient>
<path id="Trazado_101764" class="st2" d="M15,20.9c0,1.5-1.2,2.7-2.7,2.7H4.1c-1.5,0-2.7-1.2-2.7-2.7H15z"/>
<linearGradient id="Trazado_101765_1_" gradientUnits="userSpaceOnUse" x1="2.7236" y1="474.8471" x2="14.865" y2="470.6808" gradientTransform="matrix(1 0 0 -1 0 491.89)">
	<stop  offset="0" style="stop-color:#E6E6E6"/>
	<stop  offset="0.2534" style="stop-color:#D1D1D1"/>
	<stop  offset="0.3219" style="stop-color:#D7D7D7"/>
	<stop  offset="0.4197" style="stop-color:#E6E6E6"/>
	<stop  offset="0.5099" style="stop-color:#DBDBDB"/>
	<stop  offset="0.964" style="stop-color:#999999"/>
</linearGradient>
<path id="Trazado_101765" class="st3" d="M15,20.9H1.4l4.4-5.5h4.7L15,20.9z"/>
<radialGradient id="Elipse_4094_1_" cx="7.796" cy="484.093" r="9.129" gradientTransform="matrix(1 0 0 -1 0 491.89)" gradientUnits="userSpaceOnUse">
	<stop  offset="0" style="stop-color:#E6E6E6"/>
	<stop  offset="0.4197" style="stop-color:#E6E6E6"/>
	<stop  offset="1" style="stop-color:#999999"/>
</radialGradient>
<circle id="Elipse_4094" class="st4" cx="8.2" cy="8.2" r="8.2"/>
<g id="Grupo_54463" transform="translate(290.772 6137.106)">
	<ellipse id="Elipse_4096" class="st5" cx="-28" cy="-5894.9" rx="70.9" ry="68.8"/>
	<circle id="Elipse_4097" class="st6" cx="-28.3" cy="-5894" r="45.5"/>
	<path id="Trazado_101791" class="st7" d="M-77.6-5988.3h97.5l-5.9,4.4h-85.1L-77.6-5988.3z"/>
	<g id="Grupo_54454" transform="translate(77.863 165.876)">
		<path id="Trazado_101792" class="st8" d="M-99.5-6021c0,0,3.5-4.5-0.3-5.9s-11.2-0.9-15.5-6.5s1.3-18.5,1.3-18.5l2.4,4.7l-0.4,2.5
			v1.8l-0.9,2.2c0.2,4.1,3.1,7.7,7.1,8.6c7.1,2,12.5,3.2,9.1,8.2C-97.3-6022.7-98.3-6021.7-99.5-6021z"/>
		<path id="Trazado_101793" class="st9" d="M-99.5-6020.8c-0.1,0-0.1,0-0.1-0.1c-0.1-0.1-0.1-0.2,0-0.2c0,0,1.9-2.4,1.4-4.1
			c-0.3-0.7-0.9-1.3-1.6-1.5c-1.2-0.4-2.5-0.7-3.8-0.9c-3.8-0.7-8.6-1.6-11.8-5.7c-4.4-5.7,1.1-18.2,1.3-18.7c0-0.1,0.1-0.1,0.2-0.1
			l0,0c0.1,0,0.1,0,0.2,0.1l2.4,4.7v0.1l-0.4,2.5v1.7c0,0,0,0,0,0.1l-0.9,2.2c0.2,4,3,7.4,7,8.4l0.7,0.2c4.8,1.3,8.6,2.4,9.4,4.6
			c0.4,1,0.1,2.3-0.9,3.7c-0.7,1.2-1.7,2.3-2.9,3C-99.4-6020.8-99.5-6020.8-99.5-6020.8z M-114-6051.5c-0.9,2.1-5.1,13-1.2,18
			c3.1,4,7.8,4.9,11.6,5.6c1.3,0.2,2.6,0.5,3.9,0.9c0.9,0.2,1.5,0.9,1.8,1.7c0.2,1.3-0.1,2.5-0.8,3.6c0.8-0.6,1.5-1.4,2-2.2
			c0.9-1.4,1.2-2.5,0.9-3.4c-0.8-2-4.5-3.1-9.1-4.4l-0.7-0.2c-4.1-1-7-4.6-7.2-8.8c0,0,0,0,0-0.1l0.9-2.2v-1.7l0.4-2.4L-114-6051.5z
			"/>
	</g>
	<path id="Trazado_101794" class="st7" d="M-96.4-5999.8H38.9l-5.6,4.4H-91.3L-96.4-5999.8z"/>
	<path id="Trazado_101795" class="st7" d="M-13.1-6012.7h63l-3.7,4.4h-62.1L-13.1-6012.7z"/>
	<path id="Trazado_101796" class="st7" d="M-7.9-6025.7h66.1l-2.5,4.4H-7.6L-7.9-6025.7z"/>
	<path id="Trazado_101797" class="st7" d="M-42.8-6012.7h-66.1l3.7,4.4H-40L-42.8-6012.7z"/>
	<path id="Trazado_101798" class="st7" d="M-47.4-6025.7h-69.7l2.5,4.4h66.8L-47.4-6025.7z"/>
	<path id="Trazado_101799" class="st7" d="M-51.6-6023.5c0,0,8.3,22.1,23.3,22.2S-4-6023.1-4-6023.1l0.8-2.6h-5.3
		c0,0-7.6,20.3-19.7,19.9c0,0-12.1,1.7-19.3-19.9L-51.6-6023.5z"/>
	<circle id="Elipse_4098" cx="-27.8" cy="-6041.6" r="10.5"/>
	<circle id="Elipse_4099" cx="-30.9" cy="-6032.3" r="3"/>
	<circle id="Elipse_4100" cx="-24.4" cy="-6032.3" r="3"/>
	<g id="Grupo_54455" transform="translate(70.871 97.841)">
		<path id="Trazado_101800" class="st8" d="M-99.2-6026.4c-2.7,0.2-5.4-0.4-7.7-1.9c-1.7-1.1-3.2-2.6-4.2-4.3
			c-0.8-1.5-0.7-3.1-0.6-4.9c0-1.4,0.3-2.7,0.9-3.9c0.1-0.5,0.4-0.9,0.7-1.2c0.4-0.3,0.8-0.5,1.2-0.6c0.5-0.2,0.6-0.6,1.6-2.3
			c0.5-0.8,0.5-0.7,1-1.6c0.4-0.7,0.8-1.4,1.1-2.2c0.3-0.5,0.3-1.1,0.2-1.7c-0.2-0.4-0.6-0.8-1-0.9c-0.4,0-0.7,0.1-1,0.3
			c-0.7,0.3-1.5,0.6-2.2,1c-1.2,0.7-2.3,1.4-3.4,2.2c-0.4,0.3-0.8,0.7-1.1,1.2c-0.1,0.3-0.2,0.5-0.3,0.8c-0.3,0.7-0.7,1.4-1.1,2
			c-0.4,0.8-0.8,1.6-1.2,2.4c-0.3,0.9-0.4,1.8-0.5,2.7c-0.2,1.2-0.2,2.4-0.1,3.6c0.1,1.4,0.4,2.8,0.9,4c0.9,2.2,2.3,4.2,4.1,5.8
			c2.1,1.9,4.7,3.2,7.5,3.7c1.8,0.4,3.7,0.6,5.5,0.6c0.8,0,1.9,0,3,0.2c1.4,0.3,2.8,1,3.9,2c0.8,0.6,1.6,1.2,2.3,2
			c0.8,0.8,1.4,1.7,1.9,2.7c0.2,0.5,1.4,3.2,0.3,5.8c-0.6,1.5-1.7,2.1-1.5,2.5c0.2,0.3,0.9,0.2,2.4,0c0.5,0,1.1-0.1,1.6-0.3
			c0.9-0.5,1.7-1.3,2-2.3c0.3-0.6,0.4-1.3,0.5-2c0.2-1.5,0-3.1-0.4-4.6c-0.6-1.7-1.6-3.2-2.9-4.5c-1-1.3-2.2-2.5-3.5-3.5
			c-1.6-1.4-3.5-2.4-5.6-2.7C-96.4-6026.4-97.8-6026.5-99.2-6026.4z"/>
		<path id="Trazado_101801" class="st9" d="M-88.5-6006c-0.4,0-0.6-0.1-0.8-0.3c-0.2-0.3,0.1-0.7,0.4-1.1c0.4-0.5,0.7-1,1-1.6
			c0.6-1.8,0.5-3.9-0.3-5.6c-0.5-1-1.1-1.9-1.9-2.7c-0.7-0.7-1.4-1.4-2.2-1.9c-1.1-1-2.4-1.6-3.8-2c-1-0.1-2.1-0.1-2.9-0.2
			c-1.9,0-3.8-0.3-5.6-0.6c-2.8-0.5-5.4-1.8-7.5-3.7h-0.1c-1.8-1.6-3.2-3.6-4.1-5.9c-0.5-1.3-0.8-2.6-0.9-4v-0.1
			c-0.1-1.2-0.1-2.4,0.1-3.6c0.1-0.3,0.1-0.6,0.1-0.9c0-0.6,0.1-1.2,0.4-1.8l0.1-0.3c0.3-0.6,0.4-0.8,1.1-2.1
			c0.2-0.4,0.4-0.7,0.7-1.1c0.2-0.3,0.4-0.6,0.5-0.9v-0.1c0.1-0.3,0.2-0.5,0.3-0.7c0.3-0.5,0.7-0.9,1.1-1.3c1.1-0.8,2.2-1.6,3.4-2.2
			c0.3-0.2,0.6-0.4,1-0.5s0.8-0.3,1.2-0.5c0.3-0.2,0.7-0.3,1.1-0.3c0.5,0.1,1,0.5,1.2,1c0.2,0.6,0.1,1.3-0.2,1.8
			c-0.3,0.8-0.7,1.5-1.1,2.2c-0.3,0.5-0.4,0.7-0.5,0.9c-0.1,0.2-0.2,0.4-0.5,0.8s-0.5,0.8-0.6,1.1c-0.4,0.8-0.6,1.1-1,1.3l-0.3,0.1
			c-0.3,0.1-0.6,0.3-0.8,0.5c-0.3,0.2-0.5,0.5-0.5,0.8c0,0.1-0.1,0.2-0.1,0.3c-0.6,1.2-0.9,2.5-0.9,3.8v0.3c-0.2,1.5,0,3.1,0.6,4.5
			c1.1,1.7,2.5,3.2,4.2,4.3c2.3,1.4,4.9,2.1,7.6,1.9c0,0,0,0,0.1,0c0.2,0,0.5,0,0.7,0c1.2-0.1,2.3,0,3.5,0.1c2,0.3,3.9,1.2,5.4,2.5
			c0.1,0.1,0.2,0.2,0.3,0.2c1.3,1,2.5,2.2,3.5,3.5c1.3,1.3,2.2,2.9,2.9,4.6c0.5,1.5,0.6,3.1,0.5,4.6c-0.1,0.7-0.2,1.4-0.5,2
			c-0.4,1-1.1,1.9-2.1,2.4c-0.5,0.2-1.1,0.3-1.6,0.3C-87.3-6006.1-87.9-6006-88.5-6006z M-99-6021.7L-99-6021.7c0.9,0,1.9,0,3,0.2
			c1.5,0.3,2.8,1,4,2c0.8,0.6,1.6,1.3,2.3,2c0.8,0.8,1.5,1.7,1.9,2.8c0.9,1.9,1,4,0.3,5.9c-0.3,0.6-0.6,1.1-1.1,1.6
			c-0.2,0.3-0.5,0.6-0.4,0.7c0.1,0.2,1,0.1,2.2-0.1c0.5,0,1-0.1,1.5-0.3c0.9-0.5,1.6-1.3,1.9-2.3c0.3-0.6,0.4-1.3,0.5-1.9
			c0.2-1.5,0-3-0.4-4.5c-0.6-1.7-1.6-3.2-2.8-4.4c-1-1.3-2.2-2.5-3.5-3.5c-0.1-0.1-0.2-0.1-0.3-0.2c-1.5-1.3-3.3-2.2-5.2-2.5
			c-1.1-0.2-2.3-0.2-3.4-0.1c-0.3,0-0.5,0-0.8,0c-2.8,0.2-5.5-0.5-7.8-1.9c-1.7-1.1-3.2-2.6-4.3-4.4c-0.6-1.5-0.9-3.1-0.6-4.6v-0.3
			c0-1.4,0.3-2.7,0.9-4c0-0.1,0.1-0.2,0.1-0.2c0.1-0.4,0.3-0.7,0.7-1c0.3-0.2,0.6-0.4,0.9-0.5l0.3-0.1c0.3-0.2,0.5-0.4,0.9-1.1
			c0.2-0.3,0.4-0.6,0.6-1.1c0.2-0.4,0.4-0.6,0.5-0.8s0.3-0.4,0.5-0.9c0.4-0.7,0.8-1.4,1.1-2.1c0.2-0.7,0.4-1.1,0.2-1.6
			c-0.2-0.4-0.5-0.7-0.9-0.8c-0.3,0-0.6,0.1-0.9,0.2c-0.4,0.2-0.9,0.4-1.3,0.6c-0.3,0.1-0.6,0.3-0.9,0.4c-1.2,0.7-2.3,1.4-3.3,2.2
			c-0.4,0.3-0.8,0.7-1,1.1c-0.1,0.2-0.2,0.4-0.3,0.7v0.1c-0.1,0.4-0.3,0.7-0.5,1s-0.4,0.7-0.6,1c-0.7,1.3-0.8,1.6-1.1,2.1l-0.1,0.3
			c-0.2,0.5-0.3,1.1-0.3,1.7c0,0.3,0,0.6-0.1,0.9c-0.2,1.2-0.2,2.3-0.1,3.5v0.1c0.1,1.3,0.4,2.6,0.8,3.8c0.9,2.2,2.2,4.2,4,5.7
			l0.1,0.1c2.1,1.8,4.6,3.1,7.3,3.6C-102.7-6022-100.8-6021.8-99-6021.7L-99-6021.7z"/>
	</g>
	<g id="Grupo_54456" transform="translate(73.534 97.84)">
		<path id="Trazado_101802" class="st8" d="M-100.4-6026.4c2.7,0.2,5.4-0.4,7.7-1.9c1.7-1.1,3.2-2.6,4.2-4.3
			c0.8-1.5,0.7-3.1,0.6-4.9c0-1.4-0.3-2.7-0.9-3.9c-0.1-0.5-0.4-0.9-0.7-1.2c-0.4-0.3-0.8-0.5-1.2-0.6c-0.5-0.2-0.6-0.6-1.6-2.3
			c-0.5-0.8-0.5-0.7-1-1.6c-0.4-0.7-0.8-1.4-1.1-2.2c-0.3-0.5-0.3-1.1-0.2-1.7c0.2-0.4,0.6-0.8,1-0.9c0.4,0,0.7,0.1,1,0.3
			c0.7,0.3,1.5,0.6,2.2,1c1.2,0.7,2.3,1.4,3.4,2.2c0.4,0.3,0.8,0.7,1.1,1.2c0.1,0.3,0.2,0.5,0.3,0.8c0.3,0.7,0.7,1.4,1.1,2
			c0.4,0.8,0.8,1.6,1.2,2.4c0.3,0.9,0.4,1.8,0.5,2.7c0.2,1.2,0.2,2.4,0.1,3.6c-0.1,1.4-0.4,2.8-0.9,4c-0.9,2.2-2.3,4.2-4.1,5.8
			c-2.1,1.9-4.7,3.2-7.5,3.7c-1.8,0.4-3.7,0.6-5.5,0.6c-0.8,0-1.9,0-3,0.2c-1.4,0.3-2.8,1-3.9,2c-0.8,0.6-1.6,1.2-2.3,2
			c-0.8,0.8-1.4,1.7-1.9,2.7c-0.2,0.5-1.4,3.2-0.3,5.8c0.6,1.5,1.7,2.1,1.5,2.5c-0.2,0.3-0.9,0.2-2.4,0c-0.5,0-1.1-0.1-1.6-0.3
			c-0.9-0.5-1.7-1.3-2-2.3c-0.3-0.6-0.4-1.3-0.5-2c-0.2-1.5,0-3.1,0.4-4.6c0.6-1.7,1.6-3.2,2.9-4.5c1-1.3,2.2-2.5,3.5-3.5
			c1.6-1.4,3.5-2.4,5.6-2.7C-103.2-6026.4-101.8-6026.5-100.4-6026.4z"/>
		<path id="Trazado_101803" class="st9" d="M-111-6006c-0.6,0-1.2-0.1-1.8-0.2c-0.6,0-1.1-0.2-1.6-0.3c-1-0.5-1.7-1.4-2.1-2.4
			c-0.3-0.6-0.4-1.3-0.5-2c-0.2-1.6,0-3.1,0.5-4.6c0.6-1.7,1.6-3.2,2.9-4.6c1-1.3,2.2-2.5,3.5-3.5c0.1-0.1,0.2-0.1,0.3-0.2
			c1.5-1.3,3.4-2.2,5.4-2.5c1.1-0.2,2.3-0.2,3.5-0.1c0.2,0,0.5,0,0.7,0c0,0,0,0,0.1,0c2.7,0.2,5.4-0.4,7.6-1.9
			c1.7-1.1,3.1-2.5,4.2-4.3c0.6-1.4,0.8-2.9,0.6-4.5v-0.3c0-1.3-0.3-2.6-0.9-3.8c0-0.1-0.1-0.2-0.1-0.3c-0.1-0.3-0.3-0.6-0.5-0.8
			c-0.3-0.2-0.5-0.4-0.8-0.5l-0.3-0.1c-0.5-0.2-0.6-0.5-1.1-1.3c-0.2-0.3-0.4-0.6-0.6-1.1c-0.2-0.4-0.4-0.6-0.5-0.8
			c-0.1-0.2-0.3-0.4-0.5-0.9c-0.4-0.7-0.8-1.4-1.1-2.2c-0.3-0.6-0.4-1.2-0.2-1.8c0.2-0.5,0.6-0.9,1.1-1c0.4,0,0.8,0,1.1,0.3
			c0.4,0.2,0.8,0.4,1.2,0.5c0.3,0.1,0.7,0.3,1,0.5c1.2,0.7,2.3,1.4,3.4,2.2c0.5,0.3,0.8,0.8,1.1,1.3c0.1,0.2,0.2,0.5,0.3,0.7v0.1
			c0.1,0.3,0.3,0.6,0.5,0.9s0.5,0.7,0.7,1.1c0.7,1.3,0.8,1.6,1.1,2.1l0.1,0.3c0.2,0.6,0.4,1.2,0.4,1.8c0,0.3,0,0.6,0.1,0.9
			c0.2,1.2,0.2,2.4,0.1,3.6v0.1c-0.1,1.4-0.4,2.7-0.9,4c-0.9,2.3-2.3,4.3-4.1,5.9h-0.1c-2.1,1.9-4.7,3.2-7.5,3.7
			c-1.8,0.4-3.7,0.6-5.6,0.6c-0.8,0-1.9,0.1-2.9,0.2c-1.4,0.3-2.7,1-3.8,2c-0.8,0.6-1.6,1.2-2.3,1.9c-0.8,0.8-1.4,1.7-1.9,2.7
			c-0.9,1.8-1,3.8-0.3,5.6c0.3,0.6,0.6,1.1,1,1.6s0.6,0.8,0.4,1.1C-110.4-6006.1-110.6-6006-111-6006z M-102.3-6026.3
			c-0.8,0-1.5,0.1-2.3,0.2c-1.9,0.3-3.7,1.2-5.2,2.5c-0.1,0.1-0.2,0.2-0.3,0.2c-1.3,1-2.5,2.2-3.5,3.5c-1.2,1.3-2.2,2.8-2.8,4.4
			c-0.5,1.4-0.6,3-0.4,4.5c0.1,0.7,0.2,1.3,0.5,1.9c0.3,1,1,1.8,1.9,2.3c0.5,0.2,1,0.3,1.5,0.3c1.2,0.2,2.1,0.3,2.2,0.1
			c0.1-0.1-0.2-0.4-0.4-0.7c-0.4-0.5-0.8-1.1-1.1-1.6c-0.7-1.9-0.6-4.1,0.3-5.9c0.5-1,1.1-2,1.9-2.8c0.7-0.7,1.5-1.4,2.3-2
			c1.1-1,2.5-1.7,4-2c1-0.1,2.1-0.1,2.9-0.2c0,0,0,0,0.1,0c1.8-0.1,3.7-0.3,5.5-0.6c2.7-0.5,5.3-1.7,7.3-3.6l0.1-0.1
			c1.8-1.6,3.2-3.5,4-5.7c0.5-1.2,0.8-2.5,0.8-3.8v-0.1c0.1-1.2,0.1-2.4-0.1-3.5c-0.1-0.3-0.1-0.6-0.1-0.9c0-0.6-0.1-1.2-0.3-1.7
			l-0.1-0.3c-0.3-0.6-0.4-0.8-1.1-2.1c-0.2-0.4-0.4-0.7-0.6-1s-0.4-0.6-0.5-1v-0.1c-0.1-0.2-0.2-0.5-0.3-0.7c-0.3-0.5-0.6-0.8-1-1.1
			c-1.1-0.8-2.2-1.5-3.3-2.2c-0.3-0.2-0.6-0.3-0.9-0.4c-0.5-0.1-0.9-0.3-1.3-0.6c-0.3-0.2-0.6-0.3-0.9-0.2c-0.4,0.1-0.7,0.4-0.9,0.8
			c-0.2,0.4-0.1,0.8,0.2,1.6c0.3,0.7,0.6,1.5,1.1,2.1c0.3,0.5,0.4,0.7,0.5,0.9c0.1,0.2,0.2,0.4,0.5,0.8s0.5,0.8,0.6,1.1
			c0.4,0.7,0.5,1,0.9,1.1l0.3,0.1c0.3,0.1,0.6,0.3,0.9,0.5c0.3,0.3,0.5,0.6,0.7,1c0,0.1,0.1,0.2,0.1,0.2c0.6,1.2,0.9,2.6,0.9,4v0.3
			c0.2,1.6,0,3.2-0.7,4.6c-1.1,1.8-2.6,3.3-4.3,4.4c-2.3,1.5-5.1,2.2-7.8,1.9c-0.3,0-0.5,0-0.8,0
			C-101.4-6026.3-101.8-6026.3-102.3-6026.3z"/>
	</g>
	<g id="Grupo_54457" transform="translate(78.887 165.876)">
		<path id="Trazado_101804" class="st8" d="M-113.1-6021c0,0-3.6-4.5,0.3-5.9s11.2-0.9,15.5-6.5s-1.3-18.5-1.3-18.5l-2.4,4.7
			l0.4,2.5v1.8l0.9,2.2c-0.2,4.1-3.1,7.7-7.1,8.6c-7.1,2-12.5,3.2-9.1,8.2C-115.3-6022.7-114.3-6021.7-113.1-6021z"/>
		<path id="Trazado_101805" class="st9" d="M-113.1-6020.8L-113.1-6020.8c-1.3-0.7-2.3-1.8-3-3c-1-1.4-1.3-2.7-0.9-3.7
			c0.8-2.2,4.6-3.3,9.4-4.6l0.7-0.2c3.9-1,6.8-4.4,7-8.4l-0.9-2.2c0,0,0,0,0-0.1v-1.8l-0.4-2.4v-0.1l2.4-4.7c0-0.1,0.1-0.1,0.2-0.1
			l0,0c0.1,0,0.1,0,0.2,0.1c0.2,0.5,5.7,13,1.3,18.7c-3.2,4.1-8,5-11.8,5.7c-1.3,0.2-2.6,0.5-3.8,0.9c-0.7,0.2-1.3,0.8-1.6,1.5
			c-0.5,1.7,1.3,4.1,1.4,4.1c0.1,0.1,0.1,0.2,0,0.2C-113-6020.8-113.1-6020.8-113.1-6020.8z M-100.4-6043l0.9,2.2c0,0,0,0,0,0.1
			c-0.2,4.2-3.1,7.8-7.2,8.8l-0.7,0.2c-4.7,1.3-8.4,2.3-9.1,4.4c-0.3,0.9-0.1,2,0.9,3.4c0.5,0.9,1.2,1.7,2,2.3c-0.7-1-1-2.3-0.8-3.6
			c0.3-0.8,1-1.5,1.8-1.7c1.3-0.4,2.5-0.7,3.9-0.9c3.8-0.7,8.5-1.5,11.6-5.6c3.9-5-0.3-15.9-1.2-18l-2.2,4.3l0.4,2.4L-100.4-6043z"
			/>
	</g>
	<path id="Trazado_101806" d="M-27.5-5851.7H-28c-0.6,0-1.1-0.5-1.1-1l-3.1-181.7h8.9l-3.3,181.7
		C-26.5-5852.2-27-5851.7-27.5-5851.7z"/>
	<g id="Grupo_54459" transform="translate(43.392 112.596)">
		<g>
			<g>
				<defs>
					<circle id="SVGID_2_" cx="-71.7" cy="-6006.6" r="45.5"/>
				</defs>
				<clipPath id="SVGID_3_">
					<use xlink:href="#SVGID_2_"  style="overflow:visible;"/>
				</clipPath>
				<g id="Grupo_54458" class="st10">
					<rect id="Rectángulo_5260" x="-122.6" y="-6026.7" class="st11" width="100.9" height="39.6"/>
				</g>
			</g>
		</g>
	</g>
	<g id="Grupo_54460" transform="translate(48.847 145.231)">
		<path id="Trazado_101807" d="M-117.2-6035l4.2-0.5c0.1,1.3,0.7,2.6,1.5,3.6c0.8,0.8,2,1.2,3.1,1.1c1.1,0.1,2.3-0.3,3.1-1
			c0.7-0.6,1.1-1.5,1.1-2.4c0-0.5-0.1-1.1-0.4-1.5c-0.4-0.5-1-0.9-1.6-1.1c-0.5-0.2-1.7-0.6-3.5-1.1c-1.8-0.4-3.5-1.2-4.9-2.4
			c-1.3-1.3-2-3.1-2-5c0-1.2,0.3-2.5,0.9-3.5c0.6-1.1,1.5-2,2.7-2.5c1.3-0.6,2.8-0.9,4.2-0.9c2.7,0,4.7,0.7,6.1,2
			c1.4,1.5,2.2,3.4,2.1,5.4l-4.3,0.2c-0.1-1-0.5-2-1.2-2.7c-0.8-0.6-1.8-0.9-2.7-0.8c-1.1-0.1-2.1,0.3-3,0.9
			c-0.5,0.4-0.7,0.9-0.7,1.5s0.2,1.1,0.6,1.5c1.2,0.8,2.6,1.4,4,1.6c1.6,0.4,3.2,1,4.7,1.8c1,0.6,1.8,1.5,2.4,2.5
			c0.6,1.2,0.9,2.6,0.9,3.9c0,1.4-0.3,2.8-1,4c-0.6,1.2-1.7,2.2-2.9,2.8c-1.5,0.6-3.1,1-4.7,0.9c-2.3,0.2-4.5-0.6-6.2-2.2
			C-116.2-6030.5-117.1-6032.7-117.2-6035z"/>
		<path id="Trazado_101808" d="M-96.1-6027v-24.7h15.9v4.2h-11.6v5.5H-81v4.2h-10.8v6.7h12v4.2L-96.1-6027z"/>
		<path id="Trazado_101809" d="M-76.1-6027v-24.7h4.2l8.8,16.5v-16.5h4v24.7h-4.3l-8.6-16.1v16.1H-76.1z"/>
		<path id="Trazado_101810" d="M-35.2-6027h-4.7l-1.9-5.6h-8.6l-1.8,5.6h-4.6l8.3-24.7h4.6L-35.2-6027z M-43.2-6036.8l-3-9.2
			l-2.9,9.2H-43.2z"/>
	</g>
	<g id="Grupo_54461" transform="translate(94.642 78.57)">
		<path id="Trazado_101811" class="st5" d="M-103.9-5896.4l-13.2,1.8l-0.1-11.6l10.3-1.4L-103.9-5896.4z"/>
		<path id="Trazado_101812" class="st5" d="M-79.5-5906.4l-12,5.9l-3.7-10.9l9.3-4.6L-79.5-5906.4z"/>
		<path id="Trazado_101813" class="st5" d="M-60-5922.5l-9.6,9.2l-6.9-9.3l7.5-7.2L-60-5922.5z"/>
		<path id="Trazado_101814" class="st5" d="M-46.2-5943.6l-6.9,11.4l-9-7.2l5.4-8.9L-46.2-5943.6z"/>
		<path id="Trazado_101815" class="st5" d="M-40.9-5968.4l-2.2,13.1l-11.1-3.3l1.7-10.3L-40.9-5968.4z"/>
		<path id="Trazado_101816" class="st5" d="M-43.3-5993.1l2.5,13.1l-11.5,0.7l-2-10.2L-43.3-5993.1z"/>
		<path id="Trazado_101817" class="st5" d="M-53.7-6015l6.6,11.5l-10.7,4.4l-5.2-9L-53.7-6015z"/>
		<path id="Trazado_101818" class="st5" d="M-70.1-6032.9l9.4,9.4l-9.1,7.1l-7.3-7.4L-70.1-6032.9z"/>
		<path id="Trazado_101819" class="st5" d="M-91.4-6046.1l11.8,6.1l-6.5,9.5l-9.2-4.8L-91.4-6046.1z"/>
		<path id="Trazado_101820" class="st5" d="M-116-6052.1l13.1,2.2l-3.3,11.1l-10.3-1.7L-116-6052.1z"/>
	</g>
	<g id="Grupo_54462" transform="translate(7.073 77.999)">
		<path id="Trazado_101821" class="st5" d="M-54.1-5896.4l13.2,1.8l0.1-11.6l-10.3-1.4L-54.1-5896.4z"/>
		<path id="Trazado_101822" class="st5" d="M-78.5-5906.4l12,5.9l3.7-10.9l-9.3-4.6L-78.5-5906.4z"/>
		<path id="Trazado_101823" class="st5" d="M-98-5922.5l9.6,9.2l6.9-9.3l-7.5-7.2L-98-5922.5z"/>
		<path id="Trazado_101824" class="st5" d="M-111.8-5943.6l6.9,11.4l9-7.2l-5.4-8.9L-111.8-5943.6z"/>
		<path id="Trazado_101825" class="st5" d="M-117.1-5968.4l2.2,13.1l11.1-3.3l-1.7-10.3L-117.1-5968.4z"/>
		<path id="Trazado_101826" class="st5" d="M-114.7-5993.1l-2.5,13.1l11.5,0.7l2-10.2L-114.7-5993.1z"/>
		<path id="Trazado_101827" class="st5" d="M-104.3-6015l-6.6,11.5l10.7,4.4l5.2-9L-104.3-6015z"/>
		<path id="Trazado_101828" class="st5" d="M-88-6032.9l-9.4,9.4l9.1,7l7.3-7.4L-88-6032.9z"/>
		<path id="Trazado_101829" class="st5" d="M-66.6-6046.1l-11.8,6.1l6.5,9.5l9.2-4.8L-66.6-6046.1z"/>
		<path id="Trazado_101830" class="st5" d="M-42-6052.1l-13.1,2.2l3.3,11.1l10.3-1.7L-42-6052.1z"/>
	</g>
	<path id="Trazado_101831" class="st6" d="M-16.4-5950c0-0.4-0.2-0.8-0.5-1.1c-0.3-0.3-0.8-0.4-1.2-0.2c-0.1,0.2,0.1,0.7,0.5,1.1
		C-17.2-5949.9-16.8-5949.8-16.4-5950z"/>
	<path id="Trazado_101832" class="st6" d="M-38.1-5950c0-0.4,0.2-0.8,0.5-1.1c0.5-0.4,1.1-0.4,1.2-0.2c0.1,0.2-0.1,0.7-0.5,1.1
		C-37.3-5949.9-37.7-5949.8-38.1-5950z"/>
	<path id="Trazado_101833" class="st12" d="M-19.3-5832c-0.3-0.8-0.9-1.5-1.6-2s-1.4-1-2.2-1.4c-1.6-0.7-3.3-1.3-5-1.6
		c-3.5-0.7-7-1.1-10.6-1.2c-3.6-0.3-7.2-0.9-10.7-2c-3.5-1-6.9-2.4-10.1-4c-6.6-3.2-12.5-7.6-17.4-13c-2.5-2.7-4.5-5.8-6-9.2
		c-0.7-1.7-1.3-3.5-1.6-5.3c-0.3-1.8-0.4-3.7-0.3-5.6l1.5,0.1c-0.1,1.7,0.1,3.5,0.4,5.2c0.4,1.7,0.9,3.3,1.6,4.9
		c1.5,3.2,3.4,6.1,5.8,8.7c4.8,5.3,10.5,9.6,16.8,12.7c3.2,1.6,6.4,2.9,9.8,4c3.4,1,6.9,1.7,10.4,2c3.6,0.2,7.2,0.8,10.7,1.7
		c1.8,0.5,3.5,1.2,5.1,2.1c0.8,0.5,1.5,1,2.2,1.7C-20-5833.7-19.5-5832.9-19.3-5832L-19.3-5832z"/>
	<path id="Trazado_101834" class="st12" d="M-35.6-5832c0.2-0.9,0.7-1.7,1.4-2.3c0.7-0.6,1.4-1.2,2.2-1.7c1.6-0.9,3.3-1.6,5.1-2.1
		c3.5-0.9,7.1-1.4,10.7-1.6c7.1-0.5,14-2.3,20.4-5.4s12-7.5,16.5-13s7.2-12.1,8-19.2l1.5,0.1c-0.6,7.4-3.4,14.4-8.1,20.1
		s-10.5,10.2-17.1,13.3c-6.6,3.2-13.7,5-21,5.5c-3.5,0.1-7.1,0.5-10.6,1.2c-1.7,0.3-3.4,0.9-5,1.6c-0.8,0.4-1.6,0.8-2.2,1.4
		C-34.7-5833.6-35.3-5832.9-35.6-5832L-35.6-5832z"/>
	<path id="Trazado_101835" class="st13" d="M21.2-5877.2c0,0,1.3,7,7.9,4c0,0,3.1,0.7,3.6-1.9c2-0.7,4.2-0.3,6,0.8
		c0,0-2.4-5.7-7.6-3.7c-1.4-0.5-2.9,0.3-3.3,1.7c0,0.1-0.1,0.3-0.1,0.4C27.6-5875.8,24.9-5874.3,21.2-5877.2z"/>
	<path id="Trazado_101836" class="st13" d="M12.3-5860c0,0-2.9,6.5,4.3,7.8c0,0,2.1,2.3,4,0.5c2,0.6,3.7,2.1,4.5,4.1
		c0,0,1.2-6.1-4.2-7.4c-0.9-1.2-2.5-1.4-3.7-0.5c-0.1,0.1-0.2,0.2-0.3,0.3C16.8-5855.2,13.8-5855.5,12.3-5860z"/>
	<path id="Trazado_101837" class="st13" d="M-2.5-5851.2c0,0-4.5,5.5,2.1,8.6c0,0,1.4,2.8,3.7,1.5c1.8,1.1,3,3,3.2,5.1
		c0,0,2.8-5.6-2.1-8.2c-0.5-1.4-2.1-2-3.4-1.5c-0.1,0.1-0.3,0.1-0.4,0.2C0.6-5845.4-2.3-5846.5-2.5-5851.2z"/>
	<path id="Trazado_101838" class="st13" d="M-75.4-5879.1c0,0-1.3,7-7.9,4c0,0-3.1,0.7-3.6-1.9c-2-0.7-4.2-0.3-6,0.8
		c0,0,2.4-5.7,7.6-3.7c1.4-0.5,2.9,0.3,3.3,1.7c0,0.1,0.1,0.3,0.1,0.5C-81.8-5877.7-79.2-5876.2-75.4-5879.1z"/>
	<path id="Trazado_101839" class="st13" d="M-67.7-5860.8c0,0,2.9,6.5-4.3,7.8c0,0-2.1,2.3-4,0.5c-2,0.6-3.7,2.1-4.5,4.1
		c0,0-1.2-6.1,4.2-7.4c0.9-1.2,2.5-1.4,3.7-0.5c0.1,0.1,0.2,0.2,0.3,0.3C-72.2-5856.1-69.1-5856.3-67.7-5860.8z"/>
	<path id="Trazado_101840" class="st13" d="M-50.9-5851.2c0,0,4.5,5.5-2.1,8.6c0,0-1.4,2.8-3.7,1.5c-1.8,1.1-3,3-3.2,5.1
		c0,0-2.8-5.6,2.1-8.2c0.5-1.4,2.1-2,3.4-1.5c0.1,0.1,0.3,0.1,0.4,0.2C-54-5845.4-51.1-5846.5-50.9-5851.2z"/>
</g>
<path id="Trazado_101841" class="st14" d="M421,267.6l-2.1-2.2L449,237h0.6l580.3,0.2v3L450.3,240L421,267.6z"/>
<path id="Elipse_4102" class="st14" d="M416.4,263.6c3.6,0,6.6,2.9,6.6,6.6s-2.9,6.6-6.6,6.6c-3.6,0-6.6-2.9-6.6-6.6l0,0
	C409.9,266.6,412.8,263.6,416.4,263.6z M416.4,274.8c2.5,0,4.6-2,4.6-4.6c0-2.5-2-4.6-4.6-4.6c-2.5,0-4.6,2-4.6,4.6
	C411.9,272.7,413.9,274.8,416.4,274.8z"/>
<path id="Rectángulo_5266" class="st15" d="M635.9,110.7h388.3c3.2,0,5.9,2.6,5.9,5.9v120.9l0,0H630l0,0V116.6
	C630,113.4,632.6,110.7,635.9,110.7L635.9,110.7z"/>
<g id="Grupo_54480" transform="translate(3 1)">
	<g class="st16">
		<path class="st17" d="M652.7,164.5c-1.3-0.4-2.2-0.8-2.8-1.4s-0.9-1.2-0.9-2c0-0.9,0.4-1.6,1.1-2.2c0.7-0.6,1.6-0.9,2.8-0.9
			c0.8,0,1.5,0.2,2.1,0.5s1.1,0.7,1.4,1.2s0.5,1.1,0.5,1.7h-1.5c0-0.7-0.2-1.2-0.7-1.6s-1.1-0.6-1.9-0.6c-0.7,0-1.3,0.2-1.7,0.5
			s-0.6,0.8-0.6,1.4c0,0.5,0.2,0.9,0.6,1.2c0.4,0.3,1.1,0.6,2,0.9c0.9,0.3,1.7,0.6,2.2,0.9c0.5,0.3,0.9,0.7,1.2,1.1s0.4,0.9,0.4,1.5
			c0,0.9-0.4,1.7-1.1,2.2s-1.7,0.8-2.9,0.8c-0.8,0-1.5-0.1-2.2-0.4c-0.7-0.3-1.2-0.7-1.6-1.2s-0.6-1.1-0.6-1.8h1.5
			c0,0.7,0.3,1.2,0.8,1.6s1.2,0.6,2,0.6s1.4-0.2,1.8-0.5s0.6-0.8,0.6-1.3s-0.2-1-0.6-1.3S653.7,164.8,652.7,164.5z"/>
		<path class="st17" d="M663.8,168.7c-0.6,0.7-1.4,1-2.5,1c-0.9,0-1.6-0.3-2.1-0.8s-0.7-1.3-0.7-2.3v-5.5h1.4v5.5
			c0,1.3,0.5,1.9,1.6,1.9s1.8-0.4,2.2-1.2v-6.1h1.4v8.5h-1.4L663.8,168.7z"/>
		<path class="st17" d="M674.8,168.5c0.5,0,1-0.2,1.4-0.5s0.6-0.7,0.6-1.2h1.4c0,0.5-0.2,0.9-0.5,1.4c-0.3,0.4-0.7,0.8-1.2,1
			c-0.5,0.3-1.1,0.4-1.6,0.4c-1.2,0-2.1-0.4-2.7-1.2s-1-1.8-1-3.2V165c0-0.8,0.2-1.6,0.5-2.2c0.3-0.6,0.7-1.1,1.3-1.5s1.2-0.5,2-0.5
			c0.9,0,1.7,0.3,2.4,0.9c0.6,0.6,1,1.3,1,2.2H677c0-0.5-0.2-1-0.6-1.3c-0.4-0.4-0.8-0.5-1.4-0.5c-0.7,0-1.3,0.3-1.7,0.8
			s-0.6,1.3-0.6,2.3v0.3c0,1,0.2,1.7,0.6,2.2C673.4,168.2,674,168.5,674.8,168.5z"/>
		<path class="st17" d="M679.4,165.2c0-0.8,0.2-1.6,0.5-2.2c0.3-0.7,0.8-1.2,1.4-1.5c0.6-0.4,1.2-0.5,2-0.5c1.2,0,2.1,0.4,2.8,1.2
			s1.1,1.9,1.1,3.2v0.1c0,0.8-0.2,1.6-0.5,2.2c-0.3,0.7-0.8,1.2-1.4,1.5s-1.3,0.5-2,0.5c-1.1,0-2.1-0.4-2.8-1.2s-1.1-1.9-1.1-3.2
			V165.2z M680.8,165.4c0,0.9,0.2,1.7,0.7,2.3c0.4,0.6,1,0.9,1.7,0.9s1.3-0.3,1.8-0.9c0.4-0.6,0.6-1.4,0.6-2.4
			c0-0.9-0.2-1.7-0.7-2.3c-0.4-0.6-1-0.9-1.8-0.9c-0.7,0-1.3,0.3-1.7,0.9S680.8,164.3,680.8,165.4z"/>
		<path class="st17" d="M690.4,169.5H689v-12h1.4V169.5z"/>
		<path class="st17" d="M692.4,165.2c0-0.8,0.2-1.6,0.5-2.2c0.3-0.7,0.8-1.2,1.4-1.5c0.6-0.4,1.2-0.5,2-0.5c1.2,0,2.1,0.4,2.8,1.2
			s1.1,1.9,1.1,3.2v0.1c0,0.8-0.2,1.6-0.5,2.2c-0.3,0.7-0.8,1.2-1.4,1.5s-1.3,0.5-2,0.5c-1.1,0-2.1-0.4-2.8-1.2s-1.1-1.9-1.1-3.2
			V165.2z M693.8,165.4c0,0.9,0.2,1.7,0.7,2.3c0.4,0.6,1,0.9,1.7,0.9s1.3-0.3,1.8-0.9c0.4-0.6,0.6-1.4,0.6-2.4
			c0-0.9-0.2-1.7-0.7-2.3c-0.4-0.6-1-0.9-1.8-0.9c-0.7,0-1.3,0.3-1.7,0.9S693.8,164.3,693.8,165.4z"/>
		<path class="st17" d="M706,162.4c-0.2,0-0.5-0.1-0.7-0.1c-0.9,0-1.6,0.4-1.9,1.2v6H702V161h1.4v1c0.5-0.8,1.1-1.1,2-1.1
			c0.3,0,0.5,0,0.6,0.1L706,162.4L706,162.4z"/>
		<path class="st17" d="M710.9,165.2c0-1.3,0.3-2.3,0.9-3.1c0.6-0.8,1.4-1.2,2.4-1.2s1.8,0.3,2.4,1v-4.4h1.4v12h-1.3l-0.1-0.9
			c-0.6,0.7-1.4,1.1-2.4,1.1s-1.8-0.4-2.4-1.2s-0.9-1.8-0.9-3.1L710.9,165.2L710.9,165.2z M712.3,165.4c0,1,0.2,1.7,0.6,2.2
			c0.4,0.5,0.9,0.8,1.6,0.8c0.9,0,1.6-0.4,2-1.2v-3.9c-0.4-0.8-1.1-1.2-2-1.2c-0.7,0-1.3,0.3-1.7,0.8
			C712.5,163.5,712.3,164.3,712.3,165.4z"/>
		<path class="st17" d="M723.8,169.7c-1.1,0-2.1-0.4-2.8-1.1s-1.1-1.8-1.1-3v-0.3c0-0.8,0.2-1.6,0.5-2.2s0.8-1.2,1.3-1.5
			c0.6-0.4,1.2-0.6,1.9-0.6c1.1,0,2,0.4,2.6,1.1s0.9,1.8,0.9,3.1v0.6h-5.7c0,0.8,0.3,1.5,0.7,2c0.5,0.5,1.1,0.8,1.8,0.8
			c0.5,0,0.9-0.1,1.3-0.3c0.4-0.2,0.7-0.5,0.9-0.8l0.9,0.7C726.3,169.1,725.2,169.7,723.8,169.7z M723.6,162.1
			c-0.6,0-1.1,0.2-1.5,0.6c-0.4,0.4-0.6,1-0.7,1.8h4.2v-0.1c0-0.7-0.2-1.3-0.6-1.7C724.7,162.3,724.2,162.1,723.6,162.1z"/>
		<path class="st17" d="M733.4,169.5v-7.3h-1.3v-1.1h1.3v-0.9c0-0.9,0.2-1.6,0.7-2.1s1.2-0.7,2.1-0.7c0.3,0,0.7,0,1,0.1l-0.1,1.2
			c-0.2,0-0.5-0.1-0.8-0.1c-0.5,0-0.8,0.1-1.1,0.4c-0.3,0.3-0.4,0.7-0.4,1.2v0.9h1.8v1.1h-1.8v7.3L733.4,169.5L733.4,169.5z"/>
		<path class="st17" d="M737.9,165.2c0-0.8,0.2-1.6,0.5-2.2c0.3-0.7,0.8-1.2,1.4-1.5c0.6-0.4,1.2-0.5,2-0.5c1.2,0,2.1,0.4,2.8,1.2
			s1.1,1.9,1.1,3.2v0.1c0,0.8-0.2,1.6-0.5,2.2c-0.3,0.7-0.8,1.2-1.4,1.5s-1.3,0.5-2,0.5c-1.1,0-2.1-0.4-2.8-1.2s-1.1-1.9-1.1-3.2
			V165.2z M739.3,165.4c0,0.9,0.2,1.7,0.7,2.3c0.4,0.6,1,0.9,1.7,0.9s1.3-0.3,1.8-0.9c0.4-0.6,0.6-1.4,0.6-2.4
			c0-0.9-0.2-1.7-0.7-2.3c-0.4-0.6-1-0.9-1.8-0.9c-0.7,0-1.3,0.3-1.7,0.9S739.3,164.3,739.3,165.4z"/>
		<path class="st17" d="M748.8,161.1v1.1c0.6-0.8,1.5-1.2,2.5-1.2c1.8,0,2.7,1,2.7,3v5.6h-1.4V164c0-0.6-0.1-1.1-0.4-1.4
			s-0.7-0.4-1.3-0.4c-0.5,0-0.9,0.1-1.2,0.4c-0.4,0.2-0.6,0.6-0.8,1v6h-1.4v-8.5L748.8,161.1L748.8,161.1z"/>
		<path class="st17" d="M755.9,165.2c0-1.3,0.3-2.3,0.9-3.1c0.6-0.8,1.4-1.2,2.4-1.2s1.8,0.3,2.4,1v-4.4h1.4v12h-1.3l-0.1-0.9
			c-0.6,0.7-1.4,1.1-2.4,1.1s-1.8-0.4-2.4-1.2s-0.9-1.8-0.9-3.1L755.9,165.2L755.9,165.2z M757.3,165.4c0,1,0.2,1.7,0.6,2.2
			c0.4,0.5,0.9,0.8,1.6,0.8c0.9,0,1.6-0.4,2-1.2v-3.9c-0.4-0.8-1.1-1.2-2-1.2c-0.7,0-1.3,0.3-1.7,0.8
			C757.5,163.5,757.3,164.3,757.3,165.4z"/>
		<path class="st17" d="M764.9,165.2c0-0.8,0.2-1.6,0.5-2.2c0.3-0.7,0.8-1.2,1.4-1.5c0.6-0.4,1.2-0.5,2-0.5c1.2,0,2.1,0.4,2.8,1.2
			s1.1,1.9,1.1,3.2v0.1c0,0.8-0.2,1.6-0.5,2.2c-0.3,0.7-0.8,1.2-1.4,1.5s-1.3,0.5-2,0.5c-1.1,0-2.1-0.4-2.8-1.2s-1.1-1.9-1.1-3.2
			V165.2z M766.3,165.4c0,0.9,0.2,1.7,0.7,2.3c0.4,0.6,1,0.9,1.7,0.9s1.3-0.3,1.8-0.9c0.4-0.6,0.6-1.4,0.6-2.4
			c0-0.9-0.2-1.7-0.7-2.3c-0.4-0.6-1-0.9-1.8-0.9c-0.7,0-1.3,0.3-1.7,0.9S766.3,164.3,766.3,165.4z"/>
		<path class="st17" d="M781.8,169.7c-1.1,0-2.1-0.4-2.8-1.1s-1.1-1.8-1.1-3v-0.3c0-0.8,0.2-1.6,0.5-2.2s0.8-1.2,1.3-1.5
			c0.6-0.4,1.2-0.6,1.9-0.6c1.1,0,2,0.4,2.6,1.1s0.9,1.8,0.9,3.1v0.6h-5.7c0,0.8,0.3,1.5,0.7,2c0.5,0.5,1.1,0.8,1.8,0.8
			c0.5,0,0.9-0.1,1.3-0.3c0.4-0.2,0.7-0.5,0.9-0.8l0.9,0.7C784.3,169.1,783.3,169.7,781.8,169.7z M781.7,162.1
			c-0.6,0-1.1,0.2-1.5,0.6c-0.4,0.4-0.6,1-0.7,1.8h4.2v-0.1c0-0.7-0.2-1.3-0.6-1.7C782.7,162.3,782.3,162.1,781.7,162.1z"/>
		<path class="st17" d="M791.7,167.3c0-0.4-0.1-0.7-0.4-0.9c-0.3-0.2-0.8-0.4-1.5-0.6c-0.7-0.2-1.3-0.3-1.7-0.6s-0.7-0.5-1-0.8
			c-0.2-0.3-0.3-0.7-0.3-1.1c0-0.7,0.3-1.3,0.9-1.8s1.3-0.7,2.2-0.7c1,0,1.7,0.2,2.3,0.7s0.9,1.1,0.9,1.9h-1.5c0-0.4-0.2-0.7-0.5-1
			s-0.8-0.4-1.3-0.4s-0.9,0.1-1.2,0.3s-0.4,0.5-0.4,0.9c0,0.3,0.1,0.6,0.4,0.8c0.3,0.2,0.8,0.3,1.5,0.5s1.3,0.4,1.8,0.6
			c0.4,0.2,0.8,0.5,1,0.8s0.3,0.7,0.3,1.2c0,0.8-0.3,1.4-0.9,1.8c-0.6,0.5-1.4,0.7-2.4,0.7c-0.7,0-1.3-0.1-1.8-0.4
			c-0.5-0.2-0.9-0.6-1.2-1s-0.4-0.9-0.4-1.4h1.4c0,0.5,0.2,0.9,0.6,1.2c0.4,0.3,0.8,0.4,1.4,0.4c0.5,0,1-0.1,1.3-0.3
			C791.6,168,791.7,167.7,791.7,167.3z"/>
		<path class="st17" d="M801,159v2h1.6v1.1H801v5.2c0,0.3,0.1,0.6,0.2,0.8c0.1,0.2,0.4,0.3,0.7,0.3c0.2,0,0.4,0,0.7-0.1v1.2
			c-0.4,0.1-0.8,0.2-1.1,0.2c-0.6,0-1.1-0.2-1.5-0.6s-0.5-0.9-0.5-1.7v-5.2H798v-1.1h1.5v-2L801,159L801,159z"/>
		<path class="st17" d="M803.7,165.2c0-0.8,0.2-1.6,0.5-2.2c0.3-0.7,0.8-1.2,1.4-1.5c0.6-0.4,1.2-0.5,2-0.5c1.2,0,2.1,0.4,2.8,1.2
			s1.1,1.9,1.1,3.2v0.1c0,0.8-0.2,1.6-0.5,2.2c-0.3,0.7-0.8,1.2-1.4,1.5s-1.3,0.5-2,0.5c-1.1,0-2.1-0.4-2.8-1.2s-1.1-1.9-1.1-3.2
			V165.2z M805.2,165.4c0,0.9,0.2,1.7,0.7,2.3c0.4,0.6,1,0.9,1.7,0.9s1.3-0.3,1.8-0.9c0.4-0.6,0.6-1.4,0.6-2.4
			c0-0.9-0.2-1.7-0.7-2.3c-0.4-0.6-1-0.9-1.8-0.9c-0.7,0-1.3,0.3-1.7,0.9S805.2,164.3,805.2,165.4z"/>
		<path class="st17" d="M815.2,159v2h1.6v1.1h-1.6v5.2c0,0.3,0.1,0.6,0.2,0.8c0.1,0.2,0.4,0.3,0.7,0.3c0.2,0,0.4,0,0.7-0.1v1.2
			c-0.4,0.1-0.8,0.2-1.1,0.2c-0.6,0-1.1-0.2-1.5-0.6s-0.5-0.9-0.5-1.7v-5.2h-1.5v-1.1h1.5v-2L815.2,159L815.2,159z"/>
		<path class="st17" d="M823.7,169.5c-0.1-0.2-0.2-0.5-0.2-0.9c-0.7,0.7-1.5,1-2.4,1c-0.8,0-1.5-0.2-2.1-0.7
			c-0.5-0.5-0.8-1.1-0.8-1.8c0-0.9,0.3-1.6,1-2.1s1.6-0.7,2.8-0.7h1.4v-0.7c0-0.5-0.2-0.9-0.5-1.2s-0.7-0.4-1.3-0.4
			c-0.5,0-0.9,0.1-1.3,0.4c-0.3,0.3-0.5,0.6-0.5,0.9h-1.5c0-0.4,0.1-0.8,0.4-1.2c0.3-0.4,0.7-0.7,1.2-0.9s1.1-0.3,1.7-0.3
			c1,0,1.7,0.2,2.3,0.7s0.8,1.2,0.9,2v3.9c0,0.8,0.1,1.4,0.3,1.9v0.1H823.7z M821.3,168.4c0.5,0,0.9-0.1,1.3-0.4s0.7-0.5,0.9-0.9
			v-1.7h-1.1c-1.8,0-2.7,0.5-2.7,1.6c0,0.5,0.2,0.8,0.5,1.1C820.4,168.3,820.8,168.4,821.3,168.4z"/>
		<path class="st17" d="M828.7,169.5h-1.4v-12h1.4V169.5z"/>
		<path class="st17" d="M832.4,161.1v0.9c0.6-0.7,1.5-1.1,2.5-1.1c1.2,0,2,0.5,2.4,1.4c0.3-0.4,0.6-0.7,1.1-1c0.5-0.2,1-0.4,1.6-0.4
			c1.9,0,2.8,1,2.8,2.9v5.7h-1.4V164c0-0.6-0.1-1.1-0.4-1.4c-0.3-0.3-0.7-0.4-1.4-0.4c-0.5,0-1,0.2-1.3,0.5
			c-0.4,0.3-0.6,0.8-0.6,1.3v5.6h-1.5V164c0-1.2-0.6-1.8-1.8-1.8c-0.9,0-1.6,0.4-1.9,1.2v6.2H831v-8.5L832.4,161.1L832.4,161.1z"/>
		<path class="st17" d="M848.6,169.7c-1.1,0-2.1-0.4-2.8-1.1s-1.1-1.8-1.1-3v-0.3c0-0.8,0.2-1.6,0.5-2.2s0.8-1.2,1.3-1.5
			c0.6-0.4,1.2-0.6,1.9-0.6c1.1,0,2,0.4,2.6,1.1s0.9,1.8,0.9,3.1v0.6h-5.7c0,0.8,0.3,1.5,0.7,2c0.5,0.5,1.1,0.8,1.8,0.8
			c0.5,0,0.9-0.1,1.3-0.3c0.4-0.2,0.7-0.5,0.9-0.8l0.9,0.7C851,169.1,850,169.7,848.6,169.7z M848.4,162.1c-0.6,0-1.1,0.2-1.5,0.6
			c-0.4,0.4-0.6,1-0.7,1.8h4.2v-0.1c0-0.7-0.2-1.3-0.6-1.7C849.5,162.3,849,162.1,848.4,162.1z"/>
		<path class="st17" d="M854.9,161.1v1.1c0.6-0.8,1.5-1.2,2.5-1.2c1.8,0,2.7,1,2.7,3v5.6h-1.4V164c0-0.6-0.1-1.1-0.4-1.4
			s-0.7-0.4-1.3-0.4c-0.5,0-0.9,0.1-1.2,0.4c-0.4,0.2-0.6,0.6-0.8,1v6h-1.4v-8.5L854.9,161.1L854.9,161.1z"/>
		<path class="st17" d="M864.3,159v2h1.6v1.1h-1.6v5.2c0,0.3,0.1,0.6,0.2,0.8c0.1,0.2,0.4,0.3,0.7,0.3c0.2,0,0.4,0,0.7-0.1v1.2
			c-0.4,0.1-0.8,0.2-1.1,0.2c-0.6,0-1.1-0.2-1.5-0.6s-0.5-0.9-0.5-1.7v-5.2h-1.5v-1.1h1.5v-2L864.3,159L864.3,159z"/>
		<path class="st17" d="M871.1,169.7c-1.1,0-2.1-0.4-2.8-1.1s-1.1-1.8-1.1-3v-0.3c0-0.8,0.2-1.6,0.5-2.2s0.8-1.2,1.3-1.5
			c0.6-0.4,1.2-0.6,1.9-0.6c1.1,0,2,0.4,2.6,1.1s0.9,1.8,0.9,3.1v0.6h-5.7c0,0.8,0.3,1.5,0.7,2c0.5,0.5,1.1,0.8,1.8,0.8
			c0.5,0,0.9-0.1,1.3-0.3c0.4-0.2,0.7-0.5,0.9-0.8l0.9,0.7C873.6,169.1,872.5,169.7,871.1,169.7z M870.9,162.1
			c-0.6,0-1.1,0.2-1.5,0.6c-0.4,0.4-0.6,1-0.7,1.8h4.2v-0.1c0-0.7-0.2-1.3-0.6-1.7C872,162.3,871.5,162.1,870.9,162.1z"/>
		<path class="st17" d="M887.2,165.4c0,1.3-0.3,2.3-0.9,3.1s-1.4,1.2-2.4,1.2c-1.1,0-1.9-0.4-2.5-1.1l-0.1,1H880v-12h1.4v4.5
			c0.6-0.7,1.4-1.1,2.4-1.1s1.8,0.4,2.4,1.2S887.1,164,887.2,165.4L887.2,165.4L887.2,165.4z M885.7,165.2c0-1-0.2-1.7-0.6-2.3
			c-0.4-0.5-0.9-0.8-1.6-0.8c-1,0-1.6,0.4-2.1,1.3v3.7c0.4,0.9,1.1,1.3,2.1,1.3c0.7,0,1.2-0.3,1.6-0.8
			C885.5,167.1,885.7,166.3,885.7,165.2z"/>
		<path class="st17" d="M890.6,169.5h-1.4v-12h1.4V169.5z"/>
		<path class="st17" d="M898.1,169.5c-0.1-0.2-0.2-0.5-0.2-0.9c-0.7,0.7-1.5,1-2.4,1c-0.8,0-1.5-0.2-2.1-0.7
			c-0.5-0.5-0.8-1.1-0.8-1.8c0-0.9,0.3-1.6,1-2.1s1.6-0.7,2.8-0.7h1.4v-0.7c0-0.5-0.2-0.9-0.5-1.2s-0.7-0.4-1.3-0.4
			c-0.5,0-0.9,0.1-1.3,0.4c-0.3,0.3-0.5,0.6-0.5,0.9h-1.5c0-0.4,0.1-0.8,0.4-1.2c0.3-0.4,0.7-0.7,1.2-0.9s1.1-0.3,1.7-0.3
			c1,0,1.7,0.2,2.3,0.7s0.8,1.2,0.9,2v3.9c0,0.8,0.1,1.4,0.3,1.9v0.1H898.1z M895.7,168.4c0.5,0,0.9-0.1,1.3-0.4s0.7-0.5,0.9-0.9
			v-1.7h-1.1c-1.8,0-2.7,0.5-2.7,1.6c0,0.5,0.2,0.8,0.5,1.1C894.8,168.3,895.2,168.4,895.7,168.4z"/>
		<path class="st17" d="M902.9,161.1v1.1c0.6-0.8,1.5-1.2,2.5-1.2c1.8,0,2.7,1,2.7,3v5.6h-1.4V164c0-0.6-0.1-1.1-0.4-1.4
			s-0.7-0.4-1.3-0.4c-0.5,0-0.9,0.1-1.2,0.4c-0.4,0.2-0.6,0.6-0.8,1v6h-1.4v-8.5L902.9,161.1L902.9,161.1z"/>
		<path class="st17" d="M913.8,168.5c0.5,0,1-0.2,1.4-0.5s0.6-0.7,0.6-1.2h1.4c0,0.5-0.2,0.9-0.5,1.4c-0.3,0.4-0.7,0.8-1.2,1
			c-0.5,0.3-1.1,0.4-1.6,0.4c-1.2,0-2.1-0.4-2.7-1.2s-1-1.8-1-3.2V165c0-0.8,0.2-1.6,0.5-2.2c0.3-0.6,0.7-1.1,1.3-1.5s1.2-0.5,2-0.5
			c0.9,0,1.7,0.3,2.4,0.9c0.6,0.6,1,1.3,1,2.2H916c0-0.5-0.2-1-0.6-1.3c-0.4-0.4-0.8-0.5-1.4-0.5c-0.7,0-1.3,0.3-1.7,0.8
			s-0.6,1.3-0.6,2.3v0.3c0,1,0.2,1.7,0.6,2.2C912.5,168.2,913.1,168.5,913.8,168.5z"/>
		<path class="st17" d="M918.4,165.2c0-0.8,0.2-1.6,0.5-2.2c0.3-0.7,0.8-1.2,1.4-1.5c0.6-0.4,1.2-0.5,2-0.5c1.2,0,2.1,0.4,2.8,1.2
			s1.1,1.9,1.1,3.2v0.1c0,0.8-0.2,1.6-0.5,2.2c-0.3,0.7-0.8,1.2-1.4,1.5s-1.3,0.5-2,0.5c-1.1,0-2.1-0.4-2.8-1.2s-1.1-1.9-1.1-3.2
			V165.2z M919.9,165.4c0,0.9,0.2,1.7,0.7,2.3c0.4,0.6,1,0.9,1.7,0.9s1.3-0.3,1.8-0.9c0.4-0.6,0.6-1.4,0.6-2.4
			c0-0.9-0.2-1.7-0.7-2.3c-0.4-0.6-1-0.9-1.8-0.9c-0.7,0-1.3,0.3-1.7,0.9S919.9,164.3,919.9,165.4z"/>
		<path class="st17" d="M934.6,167.4l2-6.3h1.5l-3.4,9.8c-0.5,1.4-1.4,2.1-2.5,2.1h-0.3l-0.5-0.1v-1.2h0.4c0.5,0,0.9-0.1,1.1-0.3
			s0.5-0.6,0.7-1.1l0.3-0.9l-3-8.4h1.6L934.6,167.4z"/>
		<path class="st17" d="M946.9,169.7c-1.1,0-2.1-0.4-2.8-1.1s-1.1-1.8-1.1-3v-0.3c0-0.8,0.2-1.6,0.5-2.2s0.8-1.2,1.3-1.5
			c0.6-0.4,1.2-0.6,1.9-0.6c1.1,0,2,0.4,2.6,1.1s0.9,1.8,0.9,3.1v0.6h-5.7c0,0.8,0.3,1.5,0.7,2c0.5,0.5,1.1,0.8,1.8,0.8
			c0.5,0,0.9-0.1,1.3-0.3s0.7-0.5,0.9-0.8l0.9,0.7C949.4,169.1,948.3,169.7,946.9,169.7z M946.7,162.1c-0.6,0-1.1,0.2-1.5,0.6
			c-0.4,0.4-0.6,1-0.7,1.8h4.2v-0.1c0-0.7-0.2-1.3-0.6-1.7S947.3,162.1,946.7,162.1z"/>
		<path class="st17" d="M953.2,161.1v1.1c0.6-0.8,1.5-1.2,2.5-1.2c1.8,0,2.7,1,2.7,3v5.6H957V164c0-0.6-0.1-1.1-0.4-1.4
			s-0.7-0.4-1.3-0.4c-0.5,0-0.9,0.1-1.2,0.4s-0.6,0.6-0.8,1v6h-1.4v-8.5L953.2,161.1L953.2,161.1z"/>
		<path class="st17" d="M968.2,169.7c-1.1,0-2.1-0.4-2.8-1.1s-1.1-1.8-1.1-3v-0.3c0-0.8,0.2-1.6,0.5-2.2s0.8-1.2,1.3-1.5
			s1.2-0.6,1.9-0.6c1.1,0,2,0.4,2.6,1.1s0.9,1.8,0.9,3.1v0.6h-5.7c0,0.8,0.3,1.5,0.7,2s1.1,0.8,1.8,0.8c0.5,0,0.9-0.1,1.3-0.3
			s0.7-0.5,0.9-0.8l0.9,0.7C970.7,169.1,969.6,169.7,968.2,169.7z M968,162.1c-0.6,0-1.1,0.2-1.5,0.6s-0.6,1-0.7,1.8h4.2v-0.1
			c0-0.7-0.2-1.3-0.6-1.7S968.6,162.1,968,162.1z"/>
		<path class="st17" d="M974.7,169.5h-1.4v-12h1.4V169.5z"/>
	</g>
	<g class="st16">
		<path class="st17" d="M652.5,192.5c0.5,0,1-0.2,1.4-0.5s0.6-0.7,0.6-1.2h1.4c0,0.5-0.2,0.9-0.5,1.4c-0.3,0.4-0.7,0.8-1.2,1
			c-0.5,0.3-1.1,0.4-1.6,0.4c-1.2,0-2.1-0.4-2.7-1.2s-1-1.8-1-3.2V189c0-0.8,0.2-1.6,0.5-2.2c0.3-0.6,0.7-1.1,1.3-1.5s1.2-0.5,2-0.5
			c0.9,0,1.7,0.3,2.4,0.9c0.6,0.6,1,1.3,1,2.2h-1.4c0-0.5-0.2-1-0.6-1.3c-0.4-0.4-0.8-0.5-1.4-0.5c-0.7,0-1.3,0.3-1.7,0.8
			s-0.6,1.3-0.6,2.3v0.3c0,1,0.2,1.7,0.6,2.2C651.2,192.2,651.7,192.5,652.5,192.5z"/>
		<path class="st17" d="M661,193.7c-1.1,0-2.1-0.4-2.8-1.1s-1.1-1.8-1.1-3v-0.3c0-0.8,0.2-1.6,0.5-2.2s0.8-1.2,1.3-1.5
			c0.6-0.4,1.2-0.6,1.9-0.6c1.1,0,2,0.4,2.6,1.1s0.9,1.8,0.9,3.1v0.6h-5.7c0,0.8,0.3,1.5,0.7,2c0.5,0.5,1.1,0.8,1.8,0.8
			c0.5,0,0.9-0.1,1.3-0.3c0.4-0.2,0.7-0.5,0.9-0.8l0.9,0.7C663.5,193.1,662.4,193.7,661,193.7z M660.8,186.1c-0.6,0-1.1,0.2-1.5,0.6
			c-0.4,0.4-0.6,1-0.7,1.8h4.2v-0.1c0-0.7-0.2-1.3-0.6-1.7C661.9,186.3,661.4,186.1,660.8,186.1z"/>
		<path class="st17" d="M667.3,185.1v1.1c0.6-0.8,1.5-1.2,2.5-1.2c1.8,0,2.7,1,2.7,3v5.6h-1.4V188c0-0.6-0.1-1.1-0.4-1.4
			s-0.7-0.4-1.3-0.4c-0.5,0-0.9,0.1-1.2,0.4c-0.4,0.2-0.6,0.6-0.8,1v6H666v-8.5L667.3,185.1L667.3,185.1z"/>
		<path class="st17" d="M676.7,183v2h1.6v1.1h-1.6v5.2c0,0.3,0.1,0.6,0.2,0.8c0.1,0.2,0.4,0.3,0.7,0.3c0.2,0,0.4,0,0.7-0.1v1.2
			c-0.4,0.1-0.8,0.2-1.1,0.2c-0.6,0-1.1-0.2-1.5-0.6s-0.5-0.9-0.5-1.7v-5.2h-1.5v-1.1h1.5v-2L676.7,183L676.7,183z"/>
		<path class="st17" d="M684.1,186.4c-0.2,0-0.5-0.1-0.7-0.1c-0.9,0-1.6,0.4-1.9,1.2v6H680V185h1.4v1c0.5-0.8,1.1-1.1,2-1.1
			c0.3,0,0.5,0,0.6,0.1L684.1,186.4L684.1,186.4z"/>
		<path class="st17" d="M684.9,189.2c0-0.8,0.2-1.6,0.5-2.2c0.3-0.7,0.8-1.2,1.4-1.5c0.6-0.4,1.2-0.5,2-0.5c1.2,0,2.1,0.4,2.8,1.2
			s1.1,1.9,1.1,3.2v0.1c0,0.8-0.2,1.6-0.5,2.2c-0.3,0.7-0.8,1.2-1.4,1.5s-1.3,0.5-2,0.5c-1.1,0-2.1-0.4-2.8-1.2s-1.1-1.9-1.1-3.2
			V189.2z M686.3,189.4c0,0.9,0.2,1.7,0.7,2.3c0.4,0.6,1,0.9,1.7,0.9s1.3-0.3,1.8-0.9c0.4-0.6,0.6-1.4,0.6-2.4
			c0-0.9-0.2-1.7-0.7-2.3c-0.4-0.6-1-0.9-1.8-0.9c-0.7,0-1.3,0.3-1.7,0.9S686.3,188.3,686.3,189.4z"/>
		<path class="st17" d="M698,189.2c0-1.3,0.3-2.3,0.9-3.1c0.6-0.8,1.4-1.2,2.4-1.2s1.8,0.3,2.4,1v-4.4h1.4v12h-1.3l-0.1-0.9
			c-0.6,0.7-1.4,1.1-2.4,1.1s-1.8-0.4-2.4-1.2s-0.9-1.8-0.9-3.1L698,189.2L698,189.2z M699.4,189.4c0,1,0.2,1.7,0.6,2.2
			c0.4,0.5,0.9,0.8,1.6,0.8c0.9,0,1.6-0.4,2-1.2v-3.9c-0.4-0.8-1.1-1.2-2-1.2c-0.7,0-1.3,0.3-1.7,0.8
			C699.6,187.5,699.4,188.3,699.4,189.4z"/>
		<path class="st17" d="M710.9,193.7c-1.1,0-2.1-0.4-2.8-1.1s-1.1-1.8-1.1-3v-0.3c0-0.8,0.2-1.6,0.5-2.2s0.8-1.2,1.3-1.5
			c0.6-0.4,1.2-0.6,1.9-0.6c1.1,0,2,0.4,2.6,1.1s0.9,1.8,0.9,3.1v0.6h-5.7c0,0.8,0.3,1.5,0.7,2c0.5,0.5,1.1,0.8,1.8,0.8
			c0.5,0,0.9-0.1,1.3-0.3c0.4-0.2,0.7-0.5,0.9-0.8l0.9,0.7C713.4,193.1,712.3,193.7,710.9,193.7z M710.7,186.1
			c-0.6,0-1.1,0.2-1.5,0.6c-0.4,0.4-0.6,1-0.7,1.8h4.2v-0.1c0-0.7-0.2-1.3-0.6-1.7C711.8,186.3,711.3,186.1,710.7,186.1z"/>
		<path class="st17" d="M723.3,193.7c-1.1,0-2.1-0.4-2.8-1.1s-1.1-1.8-1.1-3v-0.3c0-0.8,0.2-1.6,0.5-2.2s0.8-1.2,1.3-1.5
			c0.6-0.4,1.2-0.6,1.9-0.6c1.1,0,2,0.4,2.6,1.1s0.9,1.8,0.9,3.1v0.6h-5.7c0,0.8,0.3,1.5,0.7,2c0.5,0.5,1.1,0.8,1.8,0.8
			c0.5,0,0.9-0.1,1.3-0.3c0.4-0.2,0.7-0.5,0.9-0.8l0.9,0.7C725.8,193.1,724.7,193.7,723.3,193.7z M723.1,186.1
			c-0.6,0-1.1,0.2-1.5,0.6c-0.4,0.4-0.6,1-0.7,1.8h4.2v-0.1c0-0.7-0.2-1.3-0.6-1.7C724.2,186.3,723.7,186.1,723.1,186.1z"/>
		<path class="st17" d="M729.9,193.5h-1.4v-12h1.4V193.5z"/>
		<path class="st17" d="M733.7,193.5h-1.4v-12h1.4V193.5z"/>
		<path class="st17" d="M741.3,193.5c-0.1-0.2-0.2-0.5-0.2-0.9c-0.7,0.7-1.5,1-2.4,1c-0.8,0-1.5-0.2-2.1-0.7
			c-0.5-0.5-0.8-1.1-0.8-1.8c0-0.9,0.3-1.6,1-2.1s1.6-0.7,2.8-0.7h1.4v-0.7c0-0.5-0.2-0.9-0.5-1.2s-0.7-0.4-1.3-0.4
			c-0.5,0-0.9,0.1-1.3,0.4c-0.3,0.3-0.5,0.6-0.5,0.9H736c0-0.4,0.1-0.8,0.4-1.2c0.3-0.4,0.7-0.7,1.2-0.9s1.1-0.3,1.7-0.3
			c1,0,1.7,0.2,2.3,0.7s0.8,1.2,0.9,2v3.9c0,0.8,0.1,1.4,0.3,1.9v0.1H741.3z M738.9,192.4c0.5,0,0.9-0.1,1.3-0.4s0.7-0.5,0.9-0.9
			v-1.7H740c-1.8,0-2.7,0.5-2.7,1.6c0,0.5,0.2,0.8,0.5,1.1C738,192.3,738.4,192.4,738.9,192.4z"/>
		<path class="st17" d="M752.2,193.7c-1.1,0-2.1-0.4-2.8-1.1s-1.1-1.8-1.1-3v-0.3c0-0.8,0.2-1.6,0.5-2.2s0.8-1.2,1.3-1.5
			c0.6-0.4,1.2-0.6,1.9-0.6c1.1,0,2,0.4,2.6,1.1s0.9,1.8,0.9,3.1v0.6h-5.7c0,0.8,0.3,1.5,0.7,2c0.5,0.5,1.1,0.8,1.8,0.8
			c0.5,0,0.9-0.1,1.3-0.3c0.4-0.2,0.7-0.5,0.9-0.8l0.9,0.7C754.7,193.1,753.6,193.7,752.2,193.7z M752,186.1c-0.6,0-1.1,0.2-1.5,0.6
			c-0.4,0.4-0.6,1-0.7,1.8h4.2v-0.1c0-0.7-0.2-1.3-0.6-1.7C753.1,186.3,752.6,186.1,752,186.1z"/>
		<path class="st17" d="M758.6,185.1v1.1c0.6-0.8,1.5-1.2,2.5-1.2c1.8,0,2.7,1,2.7,3v5.6h-1.4V188c0-0.6-0.1-1.1-0.4-1.4
			s-0.7-0.4-1.3-0.4c-0.5,0-0.9,0.1-1.2,0.4c-0.4,0.2-0.6,0.6-0.8,1v6h-1.4v-8.5L758.6,185.1L758.6,185.1z"/>
		<path class="st17" d="M769.4,192.5c0.5,0,1-0.2,1.4-0.5s0.6-0.7,0.6-1.2h1.4c0,0.5-0.2,0.9-0.5,1.4c-0.3,0.4-0.7,0.8-1.2,1
			c-0.5,0.3-1.1,0.4-1.6,0.4c-1.2,0-2.1-0.4-2.7-1.2s-1-1.8-1-3.2V189c0-0.8,0.2-1.6,0.5-2.2c0.3-0.6,0.7-1.1,1.3-1.5s1.2-0.5,2-0.5
			c0.9,0,1.7,0.3,2.4,0.9c0.6,0.6,1,1.3,1,2.2h-1.4c0-0.5-0.2-1-0.6-1.3c-0.4-0.4-0.8-0.5-1.4-0.5c-0.7,0-1.3,0.3-1.7,0.8
			s-0.6,1.3-0.6,2.3v0.3c0,1,0.2,1.7,0.6,2.2C768.1,192.2,768.7,192.5,769.4,192.5z"/>
		<path class="st17" d="M774,189.2c0-0.8,0.2-1.6,0.5-2.2c0.3-0.7,0.8-1.2,1.4-1.5c0.6-0.4,1.2-0.5,2-0.5c1.2,0,2.1,0.4,2.8,1.2
			s1.1,1.9,1.1,3.2v0.1c0,0.8-0.2,1.6-0.5,2.2c-0.3,0.7-0.8,1.2-1.4,1.5s-1.3,0.5-2,0.5c-1.1,0-2.1-0.4-2.8-1.2s-1.1-1.9-1.1-3.2
			V189.2z M775.5,189.4c0,0.9,0.2,1.7,0.7,2.3c0.4,0.6,1,0.9,1.7,0.9s1.3-0.3,1.8-0.9c0.4-0.6,0.6-1.4,0.6-2.4
			c0-0.9-0.2-1.7-0.7-2.3c-0.4-0.6-1-0.9-1.8-0.9c-0.7,0-1.3,0.3-1.7,0.9S775.5,188.3,775.5,189.4z"/>
		<path class="st17" d="M784.9,185.1v1.1c0.6-0.8,1.5-1.2,2.5-1.2c1.8,0,2.7,1,2.7,3v5.6h-1.4V188c0-0.6-0.1-1.1-0.4-1.4
			s-0.7-0.4-1.3-0.4c-0.5,0-0.9,0.1-1.2,0.4c-0.4,0.2-0.6,0.6-0.8,1v6h-1.4v-8.5L784.9,185.1L784.9,185.1z"/>
		<path class="st17" d="M794.3,183v2h1.6v1.1h-1.6v5.2c0,0.3,0.1,0.6,0.2,0.8c0.1,0.2,0.4,0.3,0.7,0.3c0.2,0,0.4,0,0.7-0.1v1.2
			c-0.4,0.1-0.8,0.2-1.1,0.2c-0.6,0-1.1-0.2-1.5-0.6s-0.5-0.9-0.5-1.7v-5.2h-1.5v-1.1h1.5v-2L794.3,183L794.3,183z"/>
		<path class="st17" d="M801.7,186.4c-0.2,0-0.5-0.1-0.7-0.1c-0.9,0-1.6,0.4-1.9,1.2v6h-1.4V185h1.4v1c0.5-0.8,1.1-1.1,2-1.1
			c0.3,0,0.5,0,0.6,0.1L801.7,186.4L801.7,186.4z"/>
		<path class="st17" d="M807.9,193.5c-0.1-0.2-0.2-0.5-0.2-0.9c-0.7,0.7-1.5,1-2.4,1c-0.8,0-1.5-0.2-2.1-0.7
			c-0.5-0.5-0.8-1.1-0.8-1.8c0-0.9,0.3-1.6,1-2.1s1.6-0.7,2.8-0.7h1.4v-0.7c0-0.5-0.2-0.9-0.5-1.2s-0.7-0.4-1.3-0.4
			c-0.5,0-0.9,0.1-1.3,0.4c-0.3,0.3-0.5,0.6-0.5,0.9h-1.5c0-0.4,0.1-0.8,0.4-1.2c0.3-0.4,0.7-0.7,1.2-0.9s1.1-0.3,1.7-0.3
			c1,0,1.7,0.2,2.3,0.7s0.8,1.2,0.9,2v3.9c0,0.8,0.1,1.4,0.3,1.9v0.1H807.9z M805.5,192.4c0.5,0,0.9-0.1,1.3-0.4s0.7-0.5,0.9-0.9
			v-1.7h-1.1c-1.8,0-2.7,0.5-2.7,1.6c0,0.5,0.2,0.8,0.5,1.1C804.6,192.3,805,192.4,805.5,192.4z"/>
		<path class="st17" d="M812.7,185.1v0.9c0.6-0.7,1.5-1.1,2.5-1.1c1.2,0,2,0.5,2.4,1.4c0.3-0.4,0.6-0.7,1.1-1c0.5-0.2,1-0.4,1.6-0.4
			c1.9,0,2.8,1,2.8,2.9v5.7h-1.4V188c0-0.6-0.1-1.1-0.4-1.4c-0.3-0.3-0.7-0.4-1.4-0.4c-0.5,0-1,0.2-1.3,0.5
			c-0.4,0.3-0.6,0.8-0.6,1.3v5.6h-1.5V188c0-1.2-0.6-1.8-1.8-1.8c-0.9,0-1.6,0.4-1.9,1.2v6.2h-1.4v-8.5L812.7,185.1L812.7,185.1z"/>
		<path class="st17" d="M825,189.2c0-0.8,0.2-1.6,0.5-2.2c0.3-0.7,0.8-1.2,1.4-1.5c0.6-0.4,1.2-0.5,2-0.5c1.2,0,2.1,0.4,2.8,1.2
			s1.1,1.9,1.1,3.2v0.1c0,0.8-0.2,1.6-0.5,2.2c-0.3,0.7-0.8,1.2-1.4,1.5s-1.3,0.5-2,0.5c-1.1,0-2.1-0.4-2.8-1.2s-1.1-1.9-1.1-3.2
			V189.2z M826.5,189.4c0,0.9,0.2,1.7,0.7,2.3c0.4,0.6,1,0.9,1.7,0.9s1.3-0.3,1.8-0.9c0.4-0.6,0.6-1.4,0.6-2.4
			c0-0.9-0.2-1.7-0.7-2.3c-0.4-0.6-1-0.9-1.8-0.9c-0.7,0-1.3,0.3-1.7,0.9S826.5,188.3,826.5,189.4z"/>
		<path class="st17" d="M839.4,191.3c0-0.4-0.1-0.7-0.4-0.9c-0.3-0.2-0.8-0.4-1.5-0.6c-0.7-0.2-1.3-0.3-1.7-0.6s-0.7-0.5-1-0.8
			c-0.2-0.3-0.3-0.7-0.3-1.1c0-0.7,0.3-1.3,0.9-1.8s1.3-0.7,2.2-0.7c1,0,1.7,0.2,2.3,0.7s0.9,1.1,0.9,1.9h-1.5c0-0.4-0.2-0.7-0.5-1
			s-0.8-0.4-1.3-0.4s-0.9,0.1-1.2,0.3s-0.4,0.5-0.4,0.9c0,0.3,0.1,0.6,0.4,0.8c0.3,0.2,0.8,0.3,1.5,0.5s1.3,0.4,1.8,0.6
			c0.4,0.2,0.8,0.5,1,0.8s0.3,0.7,0.3,1.2c0,0.8-0.3,1.4-0.9,1.8c-0.6,0.5-1.4,0.7-2.4,0.7c-0.7,0-1.3-0.1-1.8-0.4
			c-0.5-0.2-0.9-0.6-1.2-1s-0.4-0.9-0.4-1.4h1.4c0,0.5,0.2,0.9,0.6,1.2c0.4,0.3,0.8,0.4,1.4,0.4c0.5,0,1-0.1,1.3-0.3
			C839.3,192,839.4,191.7,839.4,191.3z"/>
		<path class="st17" d="M850.2,193.7c-1.1,0-2.1-0.4-2.8-1.1s-1.1-1.8-1.1-3v-0.3c0-0.8,0.2-1.6,0.5-2.2s0.8-1.2,1.3-1.5
			c0.6-0.4,1.2-0.6,1.9-0.6c1.1,0,2,0.4,2.6,1.1s0.9,1.8,0.9,3.1v0.6h-5.7c0,0.8,0.3,1.5,0.7,2c0.5,0.5,1.1,0.8,1.8,0.8
			c0.5,0,0.9-0.1,1.3-0.3c0.4-0.2,0.7-0.5,0.9-0.8l0.9,0.7C852.7,193.1,851.7,193.7,850.2,193.7z M850.1,186.1
			c-0.6,0-1.1,0.2-1.5,0.6c-0.4,0.4-0.6,1-0.7,1.8h4.2v-0.1c0-0.7-0.2-1.3-0.6-1.7C851.1,186.3,850.7,186.1,850.1,186.1z"/>
		<path class="st17" d="M856.8,193.5h-1.4v-12h1.4V193.5z"/>
		<path class="st17" d="M866.6,193.7c-1.1,0-2.1-0.4-2.8-1.1s-1.1-1.8-1.1-3v-0.3c0-0.8,0.2-1.6,0.5-2.2s0.8-1.2,1.3-1.5
			c0.6-0.4,1.2-0.6,1.9-0.6c1.1,0,2,0.4,2.6,1.1s0.9,1.8,0.9,3.1v0.6h-5.7c0,0.8,0.3,1.5,0.7,2c0.5,0.5,1.1,0.8,1.8,0.8
			c0.5,0,0.9-0.1,1.3-0.3c0.4-0.2,0.7-0.5,0.9-0.8l0.9,0.7C869,193.1,868,193.7,866.6,193.7z M866.4,186.1c-0.6,0-1.1,0.2-1.5,0.6
			c-0.4,0.4-0.6,1-0.7,1.8h4.2v-0.1c0-0.7-0.2-1.3-0.6-1.7C867.5,186.3,867,186.1,866.4,186.1z"/>
		<path class="st17" d="M876.5,191.3c0-0.4-0.1-0.7-0.4-0.9c-0.3-0.2-0.8-0.4-1.5-0.6c-0.7-0.2-1.3-0.3-1.7-0.6s-0.7-0.5-1-0.8
			c-0.2-0.3-0.3-0.7-0.3-1.1c0-0.7,0.3-1.3,0.9-1.8s1.3-0.7,2.2-0.7c1,0,1.7,0.2,2.3,0.7s0.9,1.1,0.9,1.9h-1.5c0-0.4-0.2-0.7-0.5-1
			s-0.8-0.4-1.3-0.4s-0.9,0.1-1.2,0.3s-0.4,0.5-0.4,0.9c0,0.3,0.1,0.6,0.4,0.8c0.3,0.2,0.8,0.3,1.5,0.5s1.3,0.4,1.8,0.6
			c0.4,0.2,0.8,0.5,1,0.8s0.3,0.7,0.3,1.2c0,0.8-0.3,1.4-0.9,1.8c-0.6,0.5-1.4,0.7-2.4,0.7c-0.7,0-1.3-0.1-1.8-0.4
			c-0.5-0.2-0.9-0.6-1.2-1s-0.4-0.9-0.4-1.4h1.4c0,0.5,0.2,0.9,0.6,1.2c0.4,0.3,0.8,0.4,1.4,0.4c0.5,0,1-0.1,1.3-0.3
			C876.3,192,876.5,191.7,876.5,191.3z"/>
		<path class="st17" d="M883.2,192.5c0.5,0,1-0.2,1.4-0.5s0.6-0.7,0.6-1.2h1.4c0,0.5-0.2,0.9-0.5,1.4c-0.3,0.4-0.7,0.8-1.2,1
			c-0.5,0.3-1.1,0.4-1.6,0.4c-1.2,0-2.1-0.4-2.7-1.2s-1-1.8-1-3.2V189c0-0.8,0.2-1.6,0.5-2.2c0.3-0.6,0.7-1.1,1.3-1.5s1.2-0.5,2-0.5
			c0.9,0,1.7,0.3,2.4,0.9c0.6,0.6,1,1.3,1,2.2h-1.4c0-0.5-0.2-1-0.6-1.3c-0.4-0.4-0.8-0.5-1.4-0.5c-0.7,0-1.3,0.3-1.7,0.8
			s-0.6,1.3-0.6,2.3v0.3c0,1,0.2,1.7,0.6,2.2C881.9,192.2,882.4,192.5,883.2,192.5z"/>
		<path class="st17" d="M893.4,192.7c-0.6,0.7-1.4,1-2.5,1c-0.9,0-1.6-0.3-2.1-0.8s-0.7-1.3-0.7-2.3v-5.5h1.4v5.5
			c0,1.3,0.5,1.9,1.6,1.9s1.8-0.4,2.2-1.2v-6.1h1.4v8.5h-1.4L893.4,192.7z"/>
		<path class="st17" d="M896.6,189.2c0-1.3,0.3-2.3,0.9-3.1c0.6-0.8,1.4-1.2,2.4-1.2s1.8,0.3,2.4,1v-4.4h1.4v12h-1.3l-0.1-0.9
			c-0.6,0.7-1.4,1.1-2.4,1.1s-1.8-0.4-2.4-1.2s-0.9-1.8-0.9-3.1L896.6,189.2L896.6,189.2z M898.1,189.4c0,1,0.2,1.7,0.6,2.2
			c0.4,0.5,0.9,0.8,1.6,0.8c0.9,0,1.6-0.4,2-1.2v-3.9c-0.4-0.8-1.1-1.2-2-1.2c-0.7,0-1.3,0.3-1.7,0.8
			C898.3,187.5,898.1,188.3,898.1,189.4z"/>
		<path class="st17" d="M905.6,189.2c0-0.8,0.2-1.6,0.5-2.2c0.3-0.7,0.8-1.2,1.4-1.5c0.6-0.4,1.2-0.5,2-0.5c1.2,0,2.1,0.4,2.8,1.2
			s1.1,1.9,1.1,3.2v0.1c0,0.8-0.2,1.6-0.5,2.2c-0.3,0.7-0.8,1.2-1.4,1.5s-1.3,0.5-2,0.5c-1.1,0-2.1-0.4-2.8-1.2s-1.1-1.9-1.1-3.2
			V189.2z M907.1,189.4c0,0.9,0.2,1.7,0.7,2.3c0.4,0.6,1,0.9,1.7,0.9s1.3-0.3,1.8-0.9c0.4-0.6,0.6-1.4,0.6-2.4
			c0-0.9-0.2-1.7-0.7-2.3c-0.4-0.6-1-0.9-1.8-0.9c-0.7,0-1.3,0.3-1.7,0.9S907.1,188.3,907.1,189.4z"/>
		<path class="st17" d="M918.7,189.2c0-1.3,0.3-2.3,0.9-3.1c0.6-0.8,1.4-1.2,2.4-1.2s1.8,0.3,2.4,1v-4.4h1.4v12h-1.3l-0.1-0.9
			c-0.6,0.7-1.4,1.1-2.4,1.1s-1.8-0.4-2.4-1.2s-0.9-1.8-0.9-3.1L918.7,189.2L918.7,189.2z M920.2,189.4c0,1,0.2,1.7,0.6,2.2
			c0.4,0.5,0.9,0.8,1.6,0.8c0.9,0,1.6-0.4,2-1.2v-3.9c-0.4-0.8-1.1-1.2-2-1.2c-0.7,0-1.3,0.3-1.7,0.8
			C920.4,187.5,920.2,188.3,920.2,189.4z"/>
		<path class="st17" d="M931.6,193.7c-1.1,0-2.1-0.4-2.8-1.1s-1.1-1.8-1.1-3v-0.3c0-0.8,0.2-1.6,0.5-2.2s0.8-1.2,1.3-1.5
			c0.6-0.4,1.2-0.6,1.9-0.6c1.1,0,2,0.4,2.6,1.1s0.9,1.8,0.9,3.1v0.6h-5.7c0,0.8,0.3,1.5,0.7,2c0.5,0.5,1.1,0.8,1.8,0.8
			c0.5,0,0.9-0.1,1.3-0.3c0.4-0.2,0.7-0.5,0.9-0.8l0.9,0.7C934.1,193.1,933,193.7,931.6,193.7z M931.4,186.1c-0.6,0-1.1,0.2-1.5,0.6
			c-0.4,0.4-0.6,1-0.7,1.8h4.2v-0.1c0-0.7-0.2-1.3-0.6-1.7C932.5,186.3,932,186.1,931.4,186.1z"/>
		<path class="st17" d="M942.1,193.5h-1.4v-12h1.4V193.5z"/>
		<path class="st17" d="M949.6,193.5c-0.1-0.2-0.2-0.5-0.2-0.9c-0.7,0.7-1.5,1-2.4,1c-0.8,0-1.5-0.2-2.1-0.7
			c-0.5-0.5-0.8-1.1-0.8-1.8c0-0.9,0.3-1.6,1-2.1s1.6-0.7,2.8-0.7h1.4v-0.7c0-0.5-0.2-0.9-0.5-1.2s-0.7-0.4-1.3-0.4
			c-0.5,0-0.9,0.1-1.3,0.4c-0.3,0.3-0.5,0.6-0.5,0.9h-1.5c0-0.4,0.1-0.8,0.4-1.2c0.3-0.4,0.7-0.7,1.2-0.9s1.1-0.3,1.7-0.3
			c1,0,1.7,0.2,2.3,0.7s0.8,1.2,0.9,2v3.9c0,0.8,0.1,1.4,0.3,1.9v0.1H949.6z M947.2,192.4c0.5,0,0.9-0.1,1.3-0.4s0.7-0.5,0.9-0.9
			v-1.7h-1.1c-1.8,0-2.7,0.5-2.7,1.6c0,0.5,0.2,0.8,0.5,1.1C946.4,192.3,946.8,192.4,947.2,192.4z"/>
	</g>
	<g class="st16">
		<path class="st17" d="M649.1,206.8c0-0.2,0.1-0.4,0.2-0.6c0.1-0.2,0.4-0.2,0.6-0.2s0.5,0.1,0.6,0.2c0.1,0.2,0.2,0.4,0.2,0.6
			s-0.1,0.4-0.2,0.6c-0.1,0.2-0.4,0.2-0.6,0.2s-0.5-0.1-0.6-0.2C649.2,207.3,649.1,207.1,649.1,206.8z M650.7,217.5h-1.4V209h1.4
			V217.5z"/>
		<path class="st17" d="M654.3,209.1v1.1c0.6-0.8,1.5-1.2,2.5-1.2c1.8,0,2.7,1,2.7,3v5.6h-1.4V212c0-0.6-0.1-1.1-0.4-1.4
			s-0.7-0.4-1.3-0.4c-0.5,0-0.9,0.1-1.2,0.4c-0.4,0.2-0.6,0.6-0.8,1v6H653v-8.5L654.3,209.1L654.3,209.1z"/>
		<path class="st17" d="M666.7,215.3c0-0.4-0.1-0.7-0.4-0.9c-0.3-0.2-0.8-0.4-1.5-0.6c-0.7-0.2-1.3-0.3-1.7-0.6s-0.7-0.5-1-0.8
			c-0.2-0.3-0.3-0.7-0.3-1.1c0-0.7,0.3-1.3,0.9-1.8s1.3-0.7,2.2-0.7c1,0,1.7,0.2,2.3,0.7s0.9,1.1,0.9,1.9h-1.5c0-0.4-0.2-0.7-0.5-1
			s-0.8-0.4-1.3-0.4s-0.9,0.1-1.2,0.3s-0.4,0.5-0.4,0.9c0,0.3,0.1,0.6,0.4,0.8c0.3,0.2,0.8,0.3,1.5,0.5s1.3,0.4,1.8,0.6
			c0.4,0.2,0.8,0.5,1,0.8s0.3,0.7,0.3,1.2c0,0.8-0.3,1.4-0.9,1.8c-0.6,0.5-1.4,0.7-2.4,0.7c-0.7,0-1.3-0.1-1.8-0.4
			c-0.5-0.2-0.9-0.6-1.2-1s-0.4-0.9-0.4-1.4h1.4c0,0.5,0.2,0.9,0.6,1.2c0.4,0.3,0.8,0.4,1.4,0.4c0.5,0,1-0.1,1.3-0.3
			C666.6,216,666.7,215.7,666.7,215.3z"/>
		<path class="st17" d="M672,207v2h1.6v1.1H672v5.2c0,0.3,0.1,0.6,0.2,0.8c0.1,0.2,0.4,0.3,0.7,0.3c0.2,0,0.4,0,0.7-0.1v1.2
			c-0.4,0.1-0.8,0.2-1.1,0.2c-0.6,0-1.1-0.2-1.5-0.6s-0.5-0.9-0.5-1.7v-5.2H669v-1.1h1.5v-2L672,207L672,207z"/>
		<path class="st17" d="M675.3,206.8c0-0.2,0.1-0.4,0.2-0.6c0.1-0.2,0.4-0.2,0.6-0.2s0.5,0.1,0.6,0.2c0.1,0.2,0.2,0.4,0.2,0.6
			s-0.1,0.4-0.2,0.6c-0.1,0.2-0.4,0.2-0.6,0.2s-0.5-0.1-0.6-0.2C675.4,207.3,675.3,207.1,675.3,206.8z M676.9,217.5h-1.4V209h1.4
			V217.5z"/>
		<path class="st17" d="M681.1,207v2h1.6v1.1h-1.6v5.2c0,0.3,0.1,0.6,0.2,0.8c0.1,0.2,0.4,0.3,0.7,0.3c0.2,0,0.4,0,0.7-0.1v1.2
			c-0.4,0.1-0.8,0.2-1.1,0.2c-0.6,0-1.1-0.2-1.5-0.6s-0.5-0.9-0.5-1.7v-5.2h-1.5v-1.1h1.5v-2L681.1,207L681.1,207z"/>
		<path class="st17" d="M689.6,216.7c-0.6,0.7-1.4,1-2.5,1c-0.9,0-1.6-0.3-2.1-0.8s-0.7-1.3-0.7-2.3v-5.5h1.4v5.5
			c0,1.3,0.5,1.9,1.6,1.9s1.8-0.4,2.2-1.2v-6.1h1.4v8.5h-1.4L689.6,216.7z"/>
		<path class="st17" d="M696.6,216.5c0.5,0,1-0.2,1.4-0.5s0.6-0.7,0.6-1.2h1.4c0,0.5-0.2,0.9-0.5,1.4c-0.3,0.4-0.7,0.8-1.2,1
			c-0.5,0.3-1.1,0.4-1.6,0.4c-1.2,0-2.1-0.4-2.7-1.2s-1-1.8-1-3.2V213c0-0.8,0.2-1.6,0.5-2.2c0.3-0.6,0.7-1.1,1.3-1.5s1.2-0.5,2-0.5
			c0.9,0,1.7,0.3,2.4,0.9c0.6,0.6,1,1.3,1,2.2h-1.4c0-0.5-0.2-1-0.6-1.3c-0.4-0.4-0.8-0.5-1.4-0.5c-0.7,0-1.3,0.3-1.7,0.8
			s-0.6,1.3-0.6,2.3v0.3c0,1,0.2,1.7,0.6,2.2C695.3,216.2,695.9,216.5,696.6,216.5z"/>
		<path class="st17" d="M701.6,206.8c0-0.2,0.1-0.4,0.2-0.6c0.1-0.2,0.4-0.2,0.6-0.2s0.5,0.1,0.6,0.2c0.1,0.2,0.2,0.4,0.2,0.6
			s-0.1,0.4-0.2,0.6c-0.1,0.2-0.4,0.2-0.6,0.2s-0.5-0.1-0.6-0.2C701.7,207.3,701.6,207.1,701.6,206.8z M703.2,217.5h-1.4V209h1.4
			V217.5z"/>
		<path class="st17" d="M705.1,213.2c0-0.8,0.2-1.6,0.5-2.2c0.3-0.7,0.8-1.2,1.4-1.5c0.6-0.4,1.2-0.5,2-0.5c1.2,0,2.1,0.4,2.8,1.2
			s1.1,1.9,1.1,3.2v0.1c0,0.8-0.2,1.6-0.5,2.2c-0.3,0.7-0.8,1.2-1.4,1.5s-1.3,0.5-2,0.5c-1.1,0-2.1-0.4-2.8-1.2s-1.1-1.9-1.1-3.2
			V213.2z M706.5,213.4c0,0.9,0.2,1.7,0.7,2.3c0.4,0.6,1,0.9,1.7,0.9s1.3-0.3,1.8-0.9c0.4-0.6,0.6-1.4,0.6-2.4
			c0-0.9-0.2-1.7-0.7-2.3c-0.4-0.6-1-0.9-1.8-0.9c-0.7,0-1.3,0.3-1.7,0.9S706.5,212.3,706.5,213.4z M709.6,205.5h1.8l-2.1,2.3h-1.2
			L709.6,205.5z"/>
		<path class="st17" d="M716,209.1v1.1c0.6-0.8,1.5-1.2,2.5-1.2c1.8,0,2.7,1,2.7,3v5.6h-1.4V212c0-0.6-0.1-1.1-0.4-1.4
			s-0.7-0.4-1.3-0.4c-0.5,0-0.9,0.1-1.2,0.4c-0.4,0.2-0.6,0.6-0.8,1v6h-1.4v-8.5L716,209.1L716,209.1z"/>
		<path class="st17" d="M723.5,216.8c0-0.2,0.1-0.5,0.2-0.6s0.4-0.2,0.7-0.2s0.5,0.1,0.7,0.2c0.2,0.2,0.2,0.4,0.2,0.6
			c0,0.2-0.1,0.4-0.2,0.6c-0.2,0.2-0.4,0.2-0.7,0.2s-0.5-0.1-0.7-0.2S723.5,217,723.5,216.8z"/>
	</g>
	<g class="st16">
		<path class="st17" d="M649.3,140.9v-14.2h5c1.7,0,3,0.3,3.9,1s1.3,1.6,1.3,2.9c0,0.7-0.2,1.3-0.5,1.8s-0.9,0.9-1.5,1.2
			c0.7,0.2,1.3,0.5,1.7,1.1s0.6,1.2,0.6,2c0,1.4-0.4,2.4-1.3,3.1s-2.1,1.1-3.7,1.1L649.3,140.9L649.3,140.9z M652.2,132.7h2.2
			c1.5,0,2.2-0.6,2.2-1.8c0-0.6-0.2-1.1-0.6-1.4s-1-0.4-1.8-0.4h-2.1L652.2,132.7L652.2,132.7z M652.2,134.8v3.8h2.5
			c0.7,0,1.2-0.2,1.6-0.5s0.6-0.8,0.6-1.4c0-1.3-0.7-2-2-2L652.2,134.8L652.2,134.8z"/>
		<path class="st17" d="M668,140.9c-0.1-0.3-0.2-0.6-0.3-0.9c-0.7,0.8-1.6,1.1-2.7,1.1c-1,0-1.9-0.3-2.6-0.9s-1-1.4-1-2.3
			c0-1.1,0.4-2,1.2-2.6s2-0.9,3.6-0.9h1.3v-0.6c0-0.5-0.1-0.9-0.4-1.2s-0.6-0.4-1.2-0.4c-0.5,0-0.8,0.1-1.1,0.3s-0.4,0.5-0.4,0.9
			h-2.8c0-0.6,0.2-1.2,0.6-1.7s0.9-0.9,1.6-1.2s1.5-0.4,2.3-0.4c1.3,0,2.3,0.3,3.1,1s1.1,1.6,1.1,2.8v4.6c0,1,0.1,1.8,0.4,2.3v0.2
			H668V140.9z M665.6,139c0.4,0,0.8-0.1,1.2-0.3s0.6-0.4,0.8-0.7v-1.8h-1.1c-1.4,0-2.2,0.5-2.3,1.5v0.2c0,0.4,0.1,0.6,0.4,0.9
			S665.2,139,665.6,139z"/>
		<path class="st17" d="M675.2,130.4l0.1,1.2c0.8-0.9,1.8-1.4,3-1.4c1.1,0,2,0.3,2.5,1s0.8,1.6,0.8,2.9v6.8h-2.8v-6.8
			c0-0.6-0.1-1-0.4-1.3s-0.7-0.4-1.3-0.4c-0.8,0-1.4,0.3-1.8,1v7.5h-2.8v-10.6h2.7V130.4z"/>
		<path class="st17" d="M683.3,135.6c0-1.6,0.4-3,1.1-3.9s1.7-1.5,3-1.5c1,0,1.9,0.4,2.5,1.2V126h2.8v15h-2.5l-0.1-1.1
			c-0.7,0.9-1.6,1.3-2.7,1.3c-1.2,0-2.2-0.5-3-1.5S683.3,137.3,683.3,135.6z M686.2,135.8c0,1,0.2,1.8,0.5,2.3s0.8,0.8,1.5,0.8
			c0.9,0,1.5-0.4,1.8-1.1v-4.2c-0.4-0.7-1-1.1-1.8-1.1C686.8,132.5,686.2,133.6,686.2,135.8z"/>
		<path class="st17" d="M699.9,141.1c-1.5,0-2.8-0.5-3.8-1.4s-1.5-2.2-1.5-3.8v-0.3c0-1.1,0.2-2,0.6-2.8s1-1.5,1.7-1.9
			s1.6-0.7,2.6-0.7c1.4,0,2.6,0.5,3.4,1.4s1.2,2.2,1.2,3.9v1.2h-6.7c0.1,0.7,0.4,1.2,0.8,1.7s1,0.6,1.7,0.6c1.1,0,1.9-0.4,2.5-1.2
			l1.4,1.6c-0.4,0.6-1,1.1-1.7,1.4S700.8,141.1,699.9,141.1z M699.6,132.5c-0.6,0-1,0.2-1.4,0.6c-0.3,0.4-0.6,0.9-0.7,1.6h3.9v-0.2
			c0-0.6-0.2-1.1-0.5-1.5C700.6,132.6,700.2,132.5,699.6,132.5z"/>
		<path class="st17" d="M711.8,133c-0.4-0.1-0.7-0.1-1-0.1c-1.1,0-1.8,0.4-2.1,1.1v6.9h-2.8v-10.6h2.7l0.1,1.3
			c0.6-1,1.4-1.5,2.4-1.5c0.3,0,0.6,0,0.9,0.1L711.8,133z"/>
		<path class="st17" d="M719,140.9c-0.1-0.3-0.2-0.6-0.3-0.9c-0.7,0.8-1.6,1.1-2.7,1.1c-1,0-1.9-0.3-2.6-0.9s-1-1.4-1-2.3
			c0-1.1,0.4-2,1.2-2.6s2-0.9,3.6-0.9h1.3v-0.6c0-0.5-0.1-0.9-0.4-1.2s-0.6-0.4-1.2-0.4c-0.5,0-0.8,0.1-1.1,0.3s-0.4,0.5-0.4,0.9
			h-2.8c0-0.6,0.2-1.2,0.6-1.7s0.9-0.9,1.6-1.2s1.5-0.4,2.3-0.4c1.3,0,2.3,0.3,3.1,1s1.1,1.6,1.1,2.8v4.6c0,1,0.1,1.8,0.4,2.3v0.2
			H719V140.9z M716.6,139c0.4,0,0.8-0.1,1.2-0.3s0.6-0.4,0.8-0.7v-1.8h-1.1c-1.4,0-2.2,0.5-2.3,1.5v0.2c0,0.4,0.1,0.6,0.4,0.9
			S716.2,139,716.6,139z"/>
	</g>
</g>
<rect id="Rectángulo_5267" y="481.3" class="st18" width="1030" height="10"/>
</svg>
