<svg xmlns="http://www.w3.org/2000/svg" width="162.886" height="158.817" viewBox="0 0 162.886 158.817">
  <g id="Grupo_54182" data-name="Grupo 54182" transform="translate(259.61 -1985.327)">
    <g id="Grupo_54181" data-name="Grupo 54181" transform="translate(-259.61 1985.327)">
      <path id="Trazado_101133" data-name="Trazado 101133" d="M-151.459,1985.327a17.6,17.6,0,0,1,17.513,17.616,17.594,17.594,0,0,1-17.513,17.613,17.6,17.6,0,0,1-17.513-17.613,17.6,17.6,0,0,1,17.513-17.616" transform="translate(233.308 -1985.327)" fill="#ff4d0f" fill-rule="evenodd"/>
      <path id="Trazado_101134" data-name="Trazado 101134" d="M-238.35,2058.881v.067a3.488,3.488,0,0,0-.086.646,2.166,2.166,0,0,0,1.547,2.028,13.02,13.02,0,0,0,4.815.664,11.116,11.116,0,0,0,3.882-.545c.944-.363,1.413-.864,1.413-1.5,0-.962-1.86-1.738-5.564-2.344-.435-.072-.76-.125-.97-.155-.236-.046-.587-.1-1.04-.173q-8.832-1.448-11.348-3.136a5.787,5.787,0,0,1-1.858-1.947,5.252,5.252,0,0,1-.616-2.529q0-3.457,4.059-5.26t11.874-1.8q7.725,0,11.443,1.687t3.722,5.211v.272h-9.751v-.106c0-.81-.489-1.412-1.476-1.827a11.645,11.645,0,0,0-4.338-.629,10.186,10.186,0,0,0-3.415.444c-.8.3-1.205.718-1.205,1.263,0,.977,2.127,1.8,6.378,2.489.818.123,1.462.224,1.925.3q4.545.759,6.47,1.31a16.673,16.673,0,0,1,3.323,1.288,6.5,6.5,0,0,1,2.406,2.152,5.113,5.113,0,0,1,.846,2.85q0,3.56-4.421,5.475t-12.723,1.918q-8.208,0-11.88-1.843a6.172,6.172,0,0,1-3.663-5.916v-.348Zm26.716,7.715v-23.349h27.8v5.034H-201.2V2052h16.052v4.97H-201.2v4.53h18.019v5.1Zm32.814,0v-23.349h13.21l14.14,15.667v-15.667h10.028V2066.6h-13.7l-13.679-15.72v15.72Zm64.346-9.312-5-8.487-5.282,8.487Zm-15.9,9.313h-10.468l16.159-23.349H-113.1l15.414,23.349h-11.623l-2.354-4.215h-16.194Z" transform="translate(256.416 -2002.033)" fill="#ff4d0f" fill-rule="evenodd"/>
      <path id="Trazado_101135" data-name="Trazado 101135" d="M-228.71,2161.016l-9.326-8.766,28.386-49.266a4.03,4.03,0,0,0-3.49-6.045h-46.47v-12.321h74.8Z" transform="translate(259.61 -2014.14)" fill="#ff4d0f" fill-rule="evenodd"/>
      <path id="Trazado_101136" data-name="Trazado 101136" d="M-91.612,2161.016l9.326-8.766-28.386-49.266a4.03,4.03,0,0,1,3.49-6.045h46.47v-12.321h-74.8Z" transform="translate(223.597 -2014.14)" fill="#ff4d0f" fill-rule="evenodd"/>
      <path id="Trazado_101137" data-name="Trazado 101137" d="M-161.822,2102.894l.1-.173,42.147,69.664-11.192,5.825-27.158-45.485a4.113,4.113,0,0,0-7.073,0l-26.982,45.484-10.955-5.42,41.113-69.9" transform="translate(243.164 -2019.393)" fill="#ff4d0f" fill-rule="evenodd"/>
    </g>
  </g>
</svg>
